<?xml version="1.0" encoding="utf-8"?>
<!-- Generator: Adobe Illustrator 23.0.0, SVG Export Plug-In . SVG Version: 6.00 Build 0)  -->
<svg version="1.1" id="Livello_1" xmlns="http://www.w3.org/2000/svg" xmlns:xlink="http://www.w3.org/1999/xlink" x="0px" y="0px"
	 viewBox="0 0 481 245" style="enable-background:new 0 0 481 245;" xml:space="preserve">
<style type="text/css">
	.st0{fill:none;stroke:#000000;stroke-width:0.6449;stroke-miterlimit:10;}
	.st1{fill:#010101;}
	.st2{fill:none;stroke:#000000;stroke-width:0.5953;stroke-miterlimit:10;}
	.st3{fill:none;stroke:#000000;stroke-width:0.7937;stroke-miterlimit:10;}
	.st4{fill:none;stroke:#000000;stroke-width:2.4803;stroke-miterlimit:10;}
	.st5{fill:none;}
</style>
<g>
	<g>
		<line class="st0" x1="29.2" y1="60.8" x2="454.3" y2="60.8"/>
		<line class="st0" x1="29.2" y1="65.8" x2="454.3" y2="65.8"/>
		<line class="st0" x1="29.2" y1="70.7" x2="454.3" y2="70.7"/>
		<line class="st0" x1="29.2" y1="75.7" x2="454.3" y2="75.7"/>
		<line class="st0" x1="29.2" y1="80.6" x2="454.3" y2="80.6"/>
		<path class="st1" d="M44.2,62.2c0.6,0,1.1,0.5,1.1,1.1s-0.5,1.1-1.1,1.1s-1.1-0.5-1.1-1.1S43.6,62.2,44.2,62.2z M44.2,67.2
			c0.6,0,1.1,0.5,1.1,1.1s-0.5,1.1-1.1,1.1s-1.1-0.5-1.1-1.1S43.6,67.2,44.2,67.2z M36.7,60.6c3.4,0,5.5,2.3,5.5,5.8
			c0,2.6-1,5-2.8,6.9c-2.1,2.3-4.6,3.8-7.3,5.1c-0.1,0.1-0.2,0.1-0.3,0.1c-0.2,0-0.3-0.1-0.3-0.2c0-0.2,0.1-0.3,0.3-0.4
			c2.5-1.4,4.5-3.1,5.7-4.9c1.2-1.9,1.7-4.3,1.7-6.3c0-3.1-0.9-5.2-3-5.2c-2,0-3.2,1.4-3.2,2.2c0,0.2,0.1,0.4,0.3,0.4s0.5-0.1,1-0.1
			c1,0,1.9,0.8,1.9,2.1c0,1.2-0.9,2.1-2.1,2.1c-1.6,0-2.4-1.4-2.4-3C31.7,63.1,33.3,60.6,36.7,60.6z"/>
		<line class="st2" x1="73.8" y1="72.4" x2="73.8" y2="55.8"/>
		<path class="st1" d="M70.2,75.7c-1.1,0-1.9-0.6-1.9-1.6c0-1.7,1.7-3.3,3.9-3.3c1.1,0,1.9,0.6,1.9,1.6C74.1,74.1,72,75.7,70.2,75.7
			z"/>
		<path class="st1" d="M97.7,70.9l-0.5,0.2c-0.2,0.1-0.3,0.4-0.3,0.6v1.8c0,0.2,0.1,0.4,0.3,0.4l0.5-0.2c0,0,0.1,0,0.1,0
			c0.1,0,0.1,0.1,0.1,0.2v1.4c0,0.1-0.1,0.3-0.2,0.3c0,0-0.4,0.2-0.6,0.2C97,75.8,97,76,97,76.2V79c0,0.1-0.1,0.2-0.3,0.2
			c-0.1,0-0.3-0.1-0.3-0.2v-2.5c0-0.1-0.1-0.4-0.3-0.4c0,0-0.1,0-0.1,0l-1.2,0.5c-0.1,0-0.2,0.2-0.2,0.4v2.8c0,0.1-0.1,0.2-0.3,0.2
			c-0.1,0-0.3-0.1-0.3-0.2v-2.4c0-0.1-0.1-0.3-0.2-0.3c0,0,0,0-0.1,0c-0.2,0.1-0.5,0.2-0.5,0.2c0,0-0.1,0-0.1,0
			c-0.1,0-0.2-0.1-0.2-0.2v-1.4c0-0.1,0.1-0.3,0.2-0.3c0,0,0.4-0.2,0.5-0.2c0.1-0.1,0.2-0.2,0.2-0.5v-2c0-0.2-0.1-0.4-0.3-0.4
			c0,0,0,0-0.1,0c-0.1,0.1-0.4,0.2-0.4,0.2c0,0-0.1,0-0.1,0c-0.1,0-0.2-0.1-0.2-0.2v-1.4c0-0.1,0.1-0.3,0.2-0.3c0,0,0.4-0.2,0.5-0.2
			c0.1-0.1,0.2-0.3,0.2-0.5v-2.7c0-0.1,0.1-0.2,0.3-0.2c0.1,0,0.3,0.1,0.3,0.2v2.4c0,0.2,0.1,0.4,0.2,0.4c0.3-0.1,1-0.4,1.3-0.5
			c0.2-0.1,0.2-0.4,0.3-0.6v-2.6c0-0.1,0.1-0.2,0.3-0.2c0.2,0,0.3,0.1,0.3,0.2v2.4c0,0.2,0.1,0.3,0.3,0.3c0.1,0,0.5-0.2,0.5-0.2
			c0,0,0.1,0,0.1,0c0.1,0,0.1,0.1,0.1,0.2v1.4C98,70.6,97.9,70.8,97.7,70.9z M96.4,74.1c0-0.2,0.1-0.7,0.1-1.3c0-0.5,0-1-0.1-1.1
			c0-0.1-0.2-0.1-0.3-0.1c-0.5,0-1.4,0.4-1.4,0.8c0,0.2-0.1,0.9-0.1,1.5c0,0.5,0,0.9,0.1,1c0,0.1,0.1,0.1,0.2,0.1
			C95.3,74.9,96.3,74.5,96.4,74.1z"/>
		<line class="st2" x1="106" y1="72.4" x2="106" y2="55.8"/>
		<path class="st1" d="M102.4,75.7c-1.1,0-1.9-0.6-1.9-1.6c0-1.7,1.7-3.3,3.9-3.3c1.1,0,1.9,0.6,1.9,1.6
			C106.3,74.1,104.1,75.7,102.4,75.7z"/>
		<line class="st2" x1="125.5" y1="71.6" x2="125.5" y2="88.1"/>
		<path class="st1" d="M127.1,73.2c-1.1,0-1.9-0.6-1.9-1.6c0-1.7,1.7-3.3,3.9-3.3c1.1,0,1.9,0.6,1.9,1.6
			C131.1,71.6,128.9,73.2,127.1,73.2z"/>
		<path class="st1" d="M154.6,68.4l-0.5,0.2c-0.2,0.1-0.3,0.4-0.3,0.6V71c0,0.2,0.1,0.4,0.3,0.4l0.5-0.2c0,0,0.1,0,0.1,0
			c0.1,0,0.1,0.1,0.1,0.2v1.4c0,0.1-0.1,0.3-0.2,0.3c0,0-0.4,0.2-0.6,0.2c-0.1,0.1-0.2,0.3-0.2,0.5v2.8c0,0.1-0.1,0.2-0.3,0.2
			c-0.1,0-0.3-0.1-0.3-0.2v-2.5c0-0.1-0.1-0.4-0.3-0.4c0,0-0.1,0-0.1,0l-1.2,0.5c-0.1,0-0.2,0.2-0.2,0.4v2.8c0,0.1-0.1,0.2-0.3,0.2
			c-0.1,0-0.3-0.1-0.3-0.2V75c0-0.1-0.1-0.3-0.2-0.3c0,0,0,0-0.1,0c-0.2,0.1-0.5,0.2-0.5,0.2c0,0-0.1,0-0.1,0
			c-0.1,0-0.2-0.1-0.2-0.2v-1.4c0-0.1,0.1-0.3,0.2-0.3c0,0,0.4-0.2,0.5-0.2c0.1-0.1,0.2-0.2,0.2-0.5v-2c0-0.2-0.1-0.4-0.3-0.4
			c0,0,0,0-0.1,0c-0.1,0.1-0.4,0.2-0.4,0.2c0,0-0.1,0-0.1,0c-0.1,0-0.2-0.1-0.2-0.2v-1.4c0-0.1,0.1-0.3,0.2-0.3c0,0,0.4-0.2,0.5-0.2
			c0.1-0.1,0.2-0.3,0.2-0.5v-2.7c0-0.1,0.1-0.2,0.3-0.2c0.1,0,0.3,0.1,0.3,0.2v2.4c0,0.2,0.1,0.4,0.2,0.4c0.3-0.1,1-0.4,1.3-0.5
			c0.2-0.1,0.2-0.4,0.3-0.6V64c0-0.1,0.1-0.2,0.3-0.2c0.2,0,0.3,0.1,0.3,0.2v2.4c0,0.2,0.1,0.3,0.3,0.3c0.1,0,0.5-0.2,0.5-0.2
			c0,0,0.1,0,0.1,0c0.1,0,0.1,0.1,0.1,0.2V68C154.9,68.2,154.8,68.3,154.6,68.4z M153.3,71.6c0-0.2,0.1-0.7,0.1-1.3
			c0-0.5,0-1-0.1-1.1c0-0.1-0.2-0.1-0.3-0.1c-0.5,0-1.4,0.4-1.4,0.8c0,0.2-0.1,0.9-0.1,1.5c0,0.5,0,0.9,0.1,1c0,0.1,0.1,0.1,0.2,0.1
			C152.2,72.4,153.2,72,153.3,71.6z"/>
		<line class="st2" x1="157.7" y1="71.6" x2="157.7" y2="88.1"/>
		<path class="st1" d="M159.3,73.2c-1.1,0-1.9-0.6-1.9-1.6c0-1.7,1.7-3.3,3.9-3.3c1.1,0,1.9,0.6,1.9,1.6
			C163.2,71.6,161.1,73.2,159.3,73.2z"/>
		<line class="st2" x1="190.6" y1="69.1" x2="190.6" y2="85.6"/>
		<path class="st1" d="M192.3,70.7c-1.1,0-1.9-0.6-1.9-1.6c0-1.7,1.7-3.3,3.9-3.3c1.1,0,1.9,0.6,1.9,1.6
			C196.2,69.1,194,70.7,192.3,70.7z"/>
		<line class="st2" x1="214.9" y1="66.6" x2="214.9" y2="83.1"/>
		<path class="st1" d="M216.5,68.2c-1.1,0-1.9-0.6-1.9-1.6c0-1.7,1.7-3.3,3.9-3.3c1.1,0,1.9,0.6,1.9,1.6
			C220.5,66.6,218.3,68.2,216.5,68.2z"/>
		<path class="st1" d="M243.6,63.4l-0.5,0.2c-0.2,0.1-0.3,0.4-0.3,0.6V66c0,0.2,0.1,0.4,0.3,0.4l0.5-0.2c0,0,0.1,0,0.1,0
			c0.1,0,0.1,0.1,0.1,0.2v1.4c0,0.1-0.1,0.3-0.2,0.3c0,0-0.4,0.2-0.6,0.2c-0.1,0.1-0.2,0.3-0.2,0.5v2.8c0,0.1-0.1,0.2-0.3,0.2
			c-0.1,0-0.3-0.1-0.3-0.2v-2.5c0-0.1-0.1-0.4-0.3-0.4c0,0-0.1,0-0.1,0l-1.2,0.5c-0.1,0-0.2,0.2-0.2,0.4v2.8c0,0.1-0.1,0.2-0.3,0.2
			c-0.1,0-0.3-0.1-0.3-0.2V70c0-0.1-0.1-0.3-0.2-0.3c0,0,0,0-0.1,0c-0.2,0.1-0.5,0.2-0.5,0.2c0,0-0.1,0-0.1,0
			c-0.1,0-0.2-0.1-0.2-0.2v-1.4c0-0.1,0.1-0.3,0.2-0.3c0,0,0.4-0.2,0.5-0.2c0.1-0.1,0.2-0.2,0.2-0.5v-2c0-0.2-0.1-0.4-0.3-0.4
			c0,0,0,0-0.1,0c-0.1,0.1-0.4,0.2-0.4,0.2c0,0-0.1,0-0.1,0c-0.1,0-0.2-0.1-0.2-0.2v-1.4c0-0.1,0.1-0.3,0.2-0.3c0,0,0.4-0.2,0.5-0.2
			c0.1-0.1,0.2-0.3,0.2-0.5v-2.7c0-0.1,0.1-0.2,0.3-0.2c0.1,0,0.3,0.1,0.3,0.2v2.4c0,0.2,0.1,0.4,0.2,0.4c0.3-0.1,1-0.4,1.3-0.5
			c0.2-0.1,0.2-0.4,0.3-0.6V59c0-0.1,0.1-0.2,0.3-0.2c0.2,0,0.3,0.1,0.3,0.2v2.4c0,0.2,0.1,0.3,0.3,0.3c0.1,0,0.5-0.2,0.5-0.2
			c0,0,0.1,0,0.1,0c0.1,0,0.1,0.1,0.1,0.2v1.4C243.8,63.2,243.7,63.4,243.6,63.4z M242.2,66.7c0-0.2,0.1-0.7,0.1-1.3
			c0-0.5,0-1-0.1-1.1c0-0.1-0.2-0.1-0.3-0.1c-0.5,0-1.4,0.4-1.4,0.8c0,0.2-0.1,0.9-0.1,1.5c0,0.5,0,0.9,0.1,1c0,0.1,0.1,0.1,0.2,0.1
			C241.2,67.5,242.1,67.1,242.2,66.7z"/>
		<line class="st2" x1="246.6" y1="66.6" x2="246.6" y2="83.1"/>
		<path class="st1" d="M248.2,68.2c-1.1,0-1.9-0.6-1.9-1.6c0-1.7,1.7-3.3,3.9-3.3c1.1,0,1.9,0.6,1.9,1.6
			C252.2,66.6,250,68.2,248.2,68.2z"/>
		<line class="st2" x1="270.9" y1="64.1" x2="270.9" y2="80.6"/>
		<path class="st1" d="M272.5,65.8c-1.1,0-1.9-0.6-1.9-1.6c0-1.7,1.7-3.3,3.9-3.3c1.1,0,1.9,0.6,1.9,1.6
			C276.5,64.1,274.3,65.8,272.5,65.8z"/>
		<path class="st1" d="M307.8,60.9l-0.5,0.2c-0.2,0.1-0.3,0.4-0.3,0.6v1.8c0,0.2,0.1,0.4,0.3,0.4l0.5-0.2c0,0,0.1,0,0.1,0
			c0.1,0,0.1,0.1,0.1,0.2v1.4c0,0.1-0.1,0.3-0.2,0.3c0,0-0.4,0.2-0.6,0.2c-0.1,0.1-0.2,0.3-0.2,0.5v2.8c0,0.1-0.1,0.2-0.3,0.2
			c-0.1,0-0.3-0.1-0.3-0.2v-2.5c0-0.1-0.1-0.4-0.3-0.4c0,0-0.1,0-0.1,0l-1.2,0.5c-0.1,0-0.2,0.2-0.2,0.4V70c0,0.1-0.1,0.2-0.3,0.2
			c-0.1,0-0.3-0.1-0.3-0.2v-2.4c0-0.1-0.1-0.3-0.2-0.3c0,0,0,0-0.1,0c-0.2,0.1-0.5,0.2-0.5,0.2c0,0-0.1,0-0.1,0
			c-0.1,0-0.2-0.1-0.2-0.2v-1.4c0-0.1,0.1-0.3,0.2-0.3c0,0,0.4-0.2,0.5-0.2c0.1-0.1,0.2-0.2,0.2-0.5v-2c0-0.2-0.1-0.4-0.3-0.4
			c0,0,0,0-0.1,0c-0.1,0.1-0.4,0.2-0.4,0.2c0,0-0.1,0-0.1,0c-0.1,0-0.2-0.1-0.2-0.2v-1.4c0-0.1,0.1-0.3,0.2-0.3c0,0,0.4-0.2,0.5-0.2
			c0.1-0.1,0.2-0.3,0.2-0.5v-2.7c0-0.1,0.1-0.2,0.3-0.2c0.1,0,0.3,0.1,0.3,0.2v2.4c0,0.2,0.1,0.4,0.2,0.4c0.3-0.1,1-0.4,1.3-0.5
			c0.2-0.1,0.2-0.4,0.3-0.6v-2.6c0-0.1,0.1-0.2,0.3-0.2c0.2,0,0.3,0.1,0.3,0.2V59c0,0.2,0.1,0.3,0.3,0.3c0.1,0,0.5-0.2,0.5-0.2
			c0,0,0.1,0,0.1,0c0.1,0,0.1,0.1,0.1,0.2v1.4C308.1,60.7,308,60.9,307.8,60.9z M306.5,64.2c0-0.2,0.1-0.7,0.1-1.3
			c0-0.5,0-1-0.1-1.1c0-0.1-0.2-0.1-0.3-0.1c-0.5,0-1.4,0.4-1.4,0.8c0,0.2-0.1,0.9-0.1,1.5c0,0.5,0,0.9,0.1,1c0,0.1,0.1,0.1,0.2,0.1
			C305.4,65,306.3,64.6,306.5,64.2z"/>
		<line class="st2" x1="310.8" y1="64.1" x2="310.8" y2="80.6"/>
		<path class="st1" d="M312.5,65.8c-1.1,0-1.9-0.6-1.9-1.6c0-1.7,1.7-3.3,3.9-3.3c1.1,0,1.9,0.6,1.9,1.6
			C316.4,64.1,314.2,65.8,312.5,65.8z"/>
		<line class="st2" x1="335.1" y1="61.6" x2="335.1" y2="78.2"/>
		<path class="st1" d="M336.7,63.3c-1.1,0-1.9-0.6-1.9-1.6c0-1.7,1.7-3.3,3.9-3.3c1.1,0,1.9,0.6,1.9,1.6
			C340.7,61.7,338.5,63.3,336.7,63.3z"/>
		<path class="st1" d="M363.8,58.5l-0.5,0.2c-0.2,0.1-0.3,0.4-0.3,0.6v1.8c0,0.2,0.1,0.4,0.3,0.4l0.5-0.2c0,0,0.1,0,0.1,0
			c0.1,0,0.1,0.1,0.1,0.2v1.4c0,0.1-0.1,0.3-0.2,0.3c0,0-0.4,0.2-0.6,0.2c-0.1,0.1-0.2,0.3-0.2,0.5v2.8c0,0.1-0.1,0.2-0.3,0.2
			c-0.1,0-0.3-0.1-0.3-0.2v-2.5c0-0.1-0.1-0.4-0.3-0.4c0,0-0.1,0-0.1,0l-1.2,0.5c-0.1,0-0.2,0.2-0.2,0.4v2.8c0,0.1-0.1,0.2-0.3,0.2
			c-0.1,0-0.3-0.1-0.3-0.2V65c0-0.1-0.1-0.3-0.2-0.3c0,0,0,0-0.1,0c-0.2,0.1-0.5,0.2-0.5,0.2c0,0-0.1,0-0.1,0
			c-0.1,0-0.2-0.1-0.2-0.2v-1.4c0-0.1,0.1-0.3,0.2-0.3c0,0,0.4-0.2,0.5-0.2c0.1-0.1,0.2-0.2,0.2-0.5v-2c0-0.2-0.1-0.4-0.3-0.4
			c0,0,0,0-0.1,0c-0.1,0.1-0.4,0.2-0.4,0.2c0,0-0.1,0-0.1,0c-0.1,0-0.2-0.1-0.2-0.2v-1.4c0-0.1,0.1-0.3,0.2-0.3c0,0,0.4-0.2,0.5-0.2
			c0.1-0.1,0.2-0.3,0.2-0.5v-2.7c0-0.1,0.1-0.2,0.3-0.2c0.1,0,0.3,0.1,0.3,0.2v2.4c0,0.2,0.1,0.4,0.2,0.4c0.3-0.1,1-0.4,1.3-0.5
			c0.2-0.1,0.2-0.4,0.3-0.6v-2.6c0-0.1,0.1-0.2,0.3-0.2c0.2,0,0.3,0.1,0.3,0.2v2.4c0,0.2,0.1,0.3,0.3,0.3c0.1,0,0.5-0.2,0.5-0.2
			c0,0,0.1,0,0.1,0c0.1,0,0.1,0.1,0.1,0.2v1.4C364,58.2,363.9,58.4,363.8,58.5z M362.4,61.7c0-0.2,0.1-0.7,0.1-1.3
			c0-0.5,0-1-0.1-1.1c0-0.1-0.2-0.1-0.3-0.1c-0.5,0-1.4,0.4-1.4,0.8c0,0.2-0.1,0.9-0.1,1.5c0,0.5,0,0.9,0.1,1c0,0.1,0.1,0.1,0.2,0.1
			C361.4,62.5,362.3,62.1,362.4,61.7z"/>
		<line class="st2" x1="366.8" y1="61.6" x2="366.8" y2="78.2"/>
		<path class="st1" d="M368.4,63.3c-1.1,0-1.9-0.6-1.9-1.6c0-1.7,1.7-3.3,3.9-3.3c1.1,0,1.9,0.6,1.9,1.6
			C372.4,61.7,370.2,63.3,368.4,63.3z"/>
		<line class="st2" x1="391.1" y1="59.2" x2="391.1" y2="75.7"/>
		<path class="st1" d="M392.7,60.8c-1.1,0-1.9-0.6-1.9-1.6c0-1.7,1.7-3.3,3.9-3.3c1.1,0,1.9,0.6,1.9,1.6
			C396.7,59.2,394.5,60.8,392.7,60.8z"/>
		<line class="st3" x1="420.8" y1="55.8" x2="431.6" y2="55.8"/>
		<line class="st2" x1="423.6" y1="56.7" x2="423.6" y2="73.2"/>
		<path class="st1" d="M425.2,58.3c-1.1,0-1.9-0.6-1.9-1.6c0-1.7,1.7-3.3,3.9-3.3c1.1,0,1.9,0.6,1.9,1.6
			C429.2,56.7,427,58.3,425.2,58.3z"/>
		<g>
			<line class="st3" x1="449.4" y1="60.8" x2="449.4" y2="80.7"/>
			<line class="st4" x1="453" y1="60.8" x2="453" y2="80.7"/>
		</g>
		<line class="st3" x1="29.2" y1="60.8" x2="29.2" y2="80.6"/>
		<g>
			<rect x="29.2" y="36" class="st5" width="425" height="10.2"/>
			<path class="st1" d="M159.2,44.7c-0.6-0.2-1-0.5-1.3-0.8l0.3-0.7c0.3,0.3,0.7,0.6,1.2,0.7s1,0.3,1.6,0.3c0.8,0,1.3-0.1,1.7-0.4
				c0.4-0.3,0.6-0.6,0.6-1.1c0-0.3-0.1-0.6-0.3-0.8c-0.2-0.2-0.5-0.4-0.8-0.5s-0.7-0.2-1.2-0.4c-0.6-0.2-1.1-0.3-1.5-0.5
				c-0.4-0.1-0.7-0.4-1-0.7c-0.3-0.3-0.4-0.7-0.4-1.2c0-0.4,0.1-0.8,0.3-1.2c0.2-0.3,0.6-0.6,1-0.8c0.5-0.2,1-0.3,1.7-0.3
				c0.5,0,1,0.1,1.4,0.2s0.9,0.3,1.2,0.5l-0.3,0.7c-0.4-0.2-0.7-0.4-1.1-0.5c-0.4-0.1-0.8-0.2-1.2-0.2c-0.7,0-1.3,0.1-1.7,0.4
				c-0.4,0.3-0.6,0.6-0.6,1.1c0,0.3,0.1,0.6,0.3,0.8c0.2,0.2,0.5,0.4,0.8,0.5c0.3,0.1,0.7,0.2,1.2,0.4c0.6,0.2,1.1,0.3,1.5,0.5
				c0.4,0.1,0.7,0.4,1,0.7s0.4,0.7,0.4,1.2c0,0.4-0.1,0.8-0.3,1.2s-0.6,0.6-1.1,0.8S161.7,45,161,45C160.4,45,159.8,44.9,159.2,44.7
				z"/>
			<path class="st1" d="M166.8,44.6c-0.5-0.3-0.9-0.7-1.2-1.1c-0.3-0.5-0.4-1-0.4-1.7c0-0.6,0.1-1.2,0.4-1.7
				c0.3-0.5,0.7-0.9,1.2-1.1c0.5-0.3,1.1-0.4,1.7-0.4c0.5,0,1,0.1,1.5,0.3c0.4,0.2,0.8,0.5,1,0.9l-0.6,0.4c-0.2-0.3-0.5-0.5-0.8-0.7
				c-0.3-0.2-0.7-0.2-1-0.2c-0.5,0-0.9,0.1-1.2,0.3c-0.4,0.2-0.6,0.5-0.9,0.9c-0.2,0.4-0.3,0.8-0.3,1.3c0,0.5,0.1,0.9,0.3,1.3
				c0.2,0.4,0.5,0.7,0.9,0.9c0.4,0.2,0.8,0.3,1.2,0.3c0.4,0,0.7-0.1,1-0.2c0.3-0.2,0.6-0.4,0.8-0.7l0.6,0.4c-0.2,0.4-0.6,0.7-1,0.9
				c-0.4,0.2-0.9,0.3-1.5,0.3C167.9,45,167.3,44.9,166.8,44.6z"/>
			<path class="st1" d="M176.8,39.2c0.4,0.4,0.7,1,0.7,1.8v3.9h-0.8v-1c-0.2,0.3-0.5,0.6-0.8,0.8s-0.8,0.3-1.3,0.3
				c-0.7,0-1.3-0.2-1.7-0.5c-0.4-0.3-0.6-0.8-0.6-1.3c0-0.5,0.2-1,0.6-1.3c0.4-0.3,1-0.5,1.9-0.5h2V41c0-0.5-0.2-1-0.5-1.2
				c-0.3-0.3-0.7-0.4-1.3-0.4c-0.4,0-0.8,0.1-1.2,0.2c-0.4,0.1-0.7,0.3-0.9,0.5l-0.4-0.6c0.3-0.3,0.7-0.5,1.2-0.6
				c0.4-0.1,0.9-0.2,1.4-0.2C175.7,38.6,176.3,38.8,176.8,39.2z M175.8,44c0.3-0.2,0.6-0.5,0.8-1v-1h-2c-1.1,0-1.6,0.4-1.6,1.1
				c0,0.4,0.1,0.7,0.4,0.9c0.3,0.2,0.7,0.3,1.2,0.3C175,44.3,175.4,44.2,175.8,44z"/>
			<path class="st1" d="M179.7,36h0.9v8.9h-0.9V36z"/>
			<path class="st1" d="M187.1,39.2c0.4,0.4,0.7,1,0.7,1.8v3.9h-0.8v-1c-0.2,0.3-0.5,0.6-0.8,0.8s-0.8,0.3-1.3,0.3
				c-0.7,0-1.3-0.2-1.7-0.5c-0.4-0.3-0.6-0.8-0.6-1.3c0-0.5,0.2-1,0.6-1.3c0.4-0.3,1-0.5,1.9-0.5h2V41c0-0.5-0.2-1-0.5-1.2
				c-0.3-0.3-0.7-0.4-1.3-0.4c-0.4,0-0.8,0.1-1.2,0.2c-0.4,0.1-0.7,0.3-0.9,0.5l-0.4-0.6c0.3-0.3,0.7-0.5,1.2-0.6
				c0.4-0.1,0.9-0.2,1.4-0.2C186,38.6,186.6,38.8,187.1,39.2z M186.1,44c0.3-0.2,0.6-0.5,0.8-1v-1h-2c-1.1,0-1.6,0.4-1.6,1.1
				c0,0.4,0.1,0.7,0.4,0.9c0.3,0.2,0.7,0.3,1.2,0.3C185.3,44.3,185.8,44.2,186.1,44z"/>
			<path class="st1" d="M194.1,44.6c-0.5-0.3-0.9-0.7-1.2-1.1c-0.3-0.5-0.4-1-0.4-1.7c0-0.6,0.1-1.2,0.4-1.7
				c0.3-0.5,0.7-0.9,1.2-1.1c0.5-0.3,1.1-0.4,1.7-0.4c0.5,0,1,0.1,1.5,0.3c0.4,0.2,0.8,0.5,1,0.9l-0.6,0.4c-0.2-0.3-0.5-0.5-0.8-0.7
				c-0.3-0.2-0.7-0.2-1-0.2c-0.5,0-0.9,0.1-1.2,0.3c-0.4,0.2-0.6,0.5-0.9,0.9c-0.2,0.4-0.3,0.8-0.3,1.3c0,0.5,0.1,0.9,0.3,1.3
				c0.2,0.4,0.5,0.7,0.9,0.9c0.4,0.2,0.8,0.3,1.2,0.3c0.4,0,0.7-0.1,1-0.2c0.3-0.2,0.6-0.4,0.8-0.7l0.6,0.4c-0.2,0.4-0.6,0.7-1,0.9
				c-0.4,0.2-0.9,0.3-1.5,0.3C195.2,45,194.6,44.9,194.1,44.6z"/>
			<path class="st1" d="M201.6,38.9c0.4-0.2,0.9-0.3,1.5-0.3v0.8l-0.2,0c-0.7,0-1.2,0.2-1.6,0.6c-0.4,0.4-0.6,1-0.6,1.7v3.2h-0.9
				v-6.3h0.8v1.2C201,39.4,201.3,39.1,201.6,38.9z"/>
			<path class="st1" d="M205.5,44.6c-0.5-0.3-0.9-0.7-1.2-1.1c-0.3-0.5-0.4-1-0.4-1.7c0-0.6,0.1-1.2,0.4-1.7
				c0.3-0.5,0.7-0.9,1.2-1.1c0.5-0.3,1-0.4,1.6-0.4s1.2,0.1,1.6,0.4c0.5,0.3,0.9,0.7,1.1,1.1c0.3,0.5,0.4,1,0.4,1.7
				c0,0.6-0.1,1.2-0.4,1.7c-0.3,0.5-0.7,0.9-1.1,1.1c-0.5,0.3-1,0.4-1.6,0.4S206,44.9,205.5,44.6z M208.4,43.9
				c0.4-0.2,0.6-0.5,0.8-0.9c0.2-0.4,0.3-0.8,0.3-1.3c0-0.5-0.1-0.9-0.3-1.3c-0.2-0.4-0.5-0.7-0.8-0.9s-0.8-0.3-1.2-0.3
				c-0.4,0-0.9,0.1-1.2,0.3s-0.6,0.5-0.8,0.9c-0.2,0.4-0.3,0.8-0.3,1.3c0,0.5,0.1,0.9,0.3,1.3c0.2,0.4,0.5,0.7,0.8,0.9
				s0.8,0.3,1.2,0.3C207.6,44.2,208,44.1,208.4,43.9z"/>
			<path class="st1" d="M221.9,39.3c0.5,0.5,0.7,1.1,0.7,2v3.7h-0.9v-3.6c0-0.7-0.2-1.2-0.5-1.5c-0.3-0.3-0.8-0.5-1.3-0.5
				c-0.7,0-1.2,0.2-1.5,0.6s-0.6,1-0.6,1.7v3.3h-0.9v-3.6c0-0.7-0.2-1.2-0.5-1.5c-0.3-0.3-0.8-0.5-1.4-0.5c-0.6,0-1.2,0.2-1.5,0.6
				s-0.6,1-0.6,1.7v3.3h-0.9v-6.3h0.8v1.2c0.2-0.4,0.5-0.7,0.9-0.9s0.9-0.3,1.4-0.3c0.5,0,1,0.1,1.4,0.3s0.7,0.6,0.9,1
				c0.2-0.4,0.6-0.7,1-1s0.9-0.4,1.5-0.4C220.8,38.6,221.4,38.8,221.9,39.3z"/>
			<path class="st1" d="M229,39.2c0.4,0.4,0.7,1,0.7,1.8v3.9h-0.8v-1c-0.2,0.3-0.5,0.6-0.8,0.8s-0.8,0.3-1.3,0.3
				c-0.7,0-1.3-0.2-1.7-0.5c-0.4-0.3-0.6-0.8-0.6-1.3c0-0.5,0.2-1,0.6-1.3c0.4-0.3,1-0.5,1.9-0.5h2V41c0-0.5-0.2-1-0.5-1.2
				c-0.3-0.3-0.7-0.4-1.3-0.4c-0.4,0-0.8,0.1-1.2,0.2c-0.4,0.1-0.7,0.3-0.9,0.5l-0.4-0.6c0.3-0.3,0.7-0.5,1.2-0.6
				c0.4-0.1,0.9-0.2,1.4-0.2C227.9,38.6,228.5,38.8,229,39.2z M228,44c0.3-0.2,0.6-0.5,0.8-1v-1h-2c-1.1,0-1.6,0.4-1.6,1.1
				c0,0.4,0.1,0.7,0.4,0.9c0.3,0.2,0.7,0.3,1.2,0.3C227.2,44.3,227.6,44.2,228,44z"/>
			<path class="st1" d="M235.3,44.6c-0.2,0.1-0.4,0.3-0.6,0.3c-0.2,0.1-0.5,0.1-0.7,0.1c-0.6,0-1-0.2-1.4-0.5
				c-0.3-0.3-0.5-0.8-0.5-1.4v-3.8h-1.1v-0.7h1.1v-1.4h0.9v1.4h1.9v0.7h-1.9v3.8c0,0.4,0.1,0.7,0.3,0.9c0.2,0.2,0.5,0.3,0.8,0.3
				c0.2,0,0.3,0,0.5-0.1c0.2-0.1,0.3-0.1,0.4-0.2L235.3,44.6z"/>
			<path class="st1" d="M236.8,37.1c-0.1-0.1-0.2-0.3-0.2-0.4c0-0.2,0.1-0.3,0.2-0.4c0.1-0.1,0.3-0.2,0.4-0.2c0.2,0,0.3,0.1,0.4,0.2
				c0.1,0.1,0.2,0.3,0.2,0.4c0,0.2-0.1,0.3-0.2,0.4s-0.3,0.2-0.4,0.2C237.1,37.2,236.9,37.2,236.8,37.1z M236.8,38.6h0.9v6.3h-0.9
				V38.6z"/>
			<path class="st1" d="M241,44.6c-0.5-0.3-0.9-0.7-1.2-1.1c-0.3-0.5-0.4-1-0.4-1.7c0-0.6,0.1-1.2,0.4-1.7c0.3-0.5,0.7-0.9,1.2-1.1
				c0.5-0.3,1-0.4,1.7-0.4c0.5,0,1,0.1,1.5,0.3s0.8,0.5,1,0.9l-0.6,0.4c-0.2-0.3-0.5-0.5-0.8-0.7c-0.3-0.2-0.7-0.2-1-0.2
				c-0.5,0-0.9,0.1-1.2,0.3c-0.4,0.2-0.6,0.5-0.9,0.9s-0.3,0.8-0.3,1.3c0,0.5,0.1,0.9,0.3,1.3c0.2,0.4,0.5,0.7,0.9,0.9
				c0.4,0.2,0.8,0.3,1.2,0.3c0.4,0,0.7-0.1,1-0.2s0.6-0.4,0.8-0.7l0.6,0.4c-0.2,0.4-0.6,0.7-1,0.9s-0.9,0.3-1.5,0.3
				C242,45,241.5,44.9,241,44.6z"/>
			<path class="st1" d="M250.9,39.2c0.4,0.4,0.7,1,0.7,1.8v3.9h-0.8v-1c-0.2,0.3-0.5,0.6-0.8,0.8s-0.8,0.3-1.3,0.3
				c-0.7,0-1.3-0.2-1.7-0.5c-0.4-0.3-0.6-0.8-0.6-1.3c0-0.5,0.2-1,0.6-1.3c0.4-0.3,1-0.5,1.9-0.5h2V41c0-0.5-0.2-1-0.5-1.2
				c-0.3-0.3-0.7-0.4-1.3-0.4c-0.4,0-0.8,0.1-1.2,0.2c-0.4,0.1-0.7,0.3-0.9,0.5l-0.4-0.6c0.3-0.3,0.7-0.5,1.2-0.6
				c0.4-0.1,0.9-0.2,1.4-0.2C249.8,38.6,250.4,38.8,250.9,39.2z M249.9,44c0.3-0.2,0.6-0.5,0.8-1v-1h-2c-1.1,0-1.6,0.4-1.6,1.1
				c0,0.4,0.1,0.7,0.4,0.9c0.3,0.2,0.7,0.3,1.2,0.3C249.2,44.3,249.6,44.2,249.9,44z"/>
			<path class="st1" d="M261.1,39.2c0.4,0.4,0.7,1,0.7,1.8v3.9H261v-1c-0.2,0.3-0.5,0.6-0.8,0.8s-0.8,0.3-1.3,0.3
				c-0.7,0-1.3-0.2-1.7-0.5s-0.6-0.8-0.6-1.3c0-0.5,0.2-1,0.6-1.3s1-0.5,1.9-0.5h2V41c0-0.5-0.2-1-0.5-1.2c-0.3-0.3-0.7-0.4-1.3-0.4
				c-0.4,0-0.8,0.1-1.2,0.2s-0.7,0.3-0.9,0.5l-0.4-0.6c0.3-0.3,0.7-0.5,1.2-0.6c0.4-0.1,0.9-0.2,1.4-0.2
				C260,38.6,260.7,38.8,261.1,39.2z M260.2,44c0.3-0.2,0.6-0.5,0.8-1v-1h-2c-1.1,0-1.6,0.4-1.6,1.1c0,0.4,0.1,0.7,0.4,0.9
				c0.3,0.2,0.7,0.3,1.2,0.3C259.4,44.3,259.8,44.2,260.2,44z"/>
			<path class="st1" d="M264.3,44.8c-0.5-0.1-0.8-0.3-1.1-0.6l0.4-0.7c0.3,0.2,0.6,0.4,1,0.5c0.4,0.1,0.8,0.2,1.2,0.2
				c0.6,0,1-0.1,1.3-0.3c0.3-0.2,0.4-0.4,0.4-0.8c0-0.2-0.1-0.4-0.2-0.5c-0.2-0.1-0.3-0.2-0.6-0.3s-0.5-0.1-0.9-0.2
				c-0.5-0.1-0.9-0.2-1.2-0.3c-0.3-0.1-0.6-0.3-0.8-0.5c-0.2-0.2-0.3-0.6-0.3-1c0-0.5,0.2-1,0.7-1.3c0.4-0.3,1.1-0.5,1.8-0.5
				c0.4,0,0.8,0.1,1.2,0.2c0.4,0.1,0.7,0.3,1,0.4l-0.4,0.7c-0.5-0.4-1.1-0.5-1.9-0.5c-0.5,0-1,0.1-1.2,0.3c-0.3,0.2-0.4,0.4-0.4,0.8
				c0,0.2,0.1,0.4,0.2,0.6c0.2,0.1,0.4,0.3,0.6,0.3c0.2,0.1,0.6,0.1,1,0.2c0.5,0.1,0.9,0.2,1.2,0.3c0.3,0.1,0.6,0.3,0.8,0.5
				c0.2,0.2,0.3,0.6,0.3,1c0,0.6-0.2,1-0.7,1.3c-0.5,0.3-1.1,0.5-1.9,0.5C265.3,45,264.8,44.9,264.3,44.8z"/>
			<path class="st1" d="M270.9,44.6c-0.5-0.3-0.9-0.7-1.2-1.1c-0.3-0.5-0.4-1-0.4-1.7c0-0.6,0.1-1.2,0.4-1.7
				c0.3-0.5,0.7-0.9,1.2-1.1c0.5-0.3,1.1-0.4,1.7-0.4c0.5,0,1,0.1,1.5,0.3s0.8,0.5,1,0.9l-0.6,0.4c-0.2-0.3-0.5-0.5-0.8-0.7
				c-0.3-0.2-0.7-0.2-1-0.2c-0.5,0-0.9,0.1-1.2,0.3s-0.6,0.5-0.9,0.9c-0.2,0.4-0.3,0.8-0.3,1.3c0,0.5,0.1,0.9,0.3,1.3
				c0.2,0.4,0.5,0.7,0.9,0.9s0.8,0.3,1.2,0.3c0.4,0,0.7-0.1,1-0.2c0.3-0.2,0.6-0.4,0.8-0.7l0.6,0.4c-0.2,0.4-0.6,0.7-1,0.9
				c-0.4,0.2-0.9,0.3-1.5,0.3C271.9,45,271.4,44.9,270.9,44.6z"/>
			<path class="st1" d="M282.1,42h-5.3c0,0.7,0.3,1.2,0.8,1.6c0.5,0.4,1,0.6,1.7,0.6c0.4,0,0.8-0.1,1.1-0.2c0.3-0.1,0.6-0.3,0.9-0.6
				l0.5,0.6c-0.3,0.3-0.6,0.6-1,0.8c-0.4,0.2-0.9,0.3-1.4,0.3c-0.6,0-1.2-0.1-1.7-0.4s-0.9-0.7-1.2-1.1c-0.3-0.5-0.4-1-0.4-1.7
				c0-0.6,0.1-1.2,0.4-1.7c0.3-0.5,0.6-0.9,1.1-1.1c0.5-0.3,1-0.4,1.6-0.4s1.1,0.1,1.6,0.4c0.5,0.3,0.8,0.7,1.1,1.1
				c0.3,0.5,0.4,1,0.4,1.7L282.1,42z M277.5,39.9c-0.4,0.4-0.6,0.9-0.7,1.5h4.5c-0.1-0.6-0.3-1.1-0.7-1.5s-0.9-0.6-1.5-0.6
				C278.4,39.3,277.9,39.5,277.5,39.9z"/>
			<path class="st1" d="M289,39.3c0.5,0.5,0.7,1.1,0.7,2v3.7h-0.9v-3.6c0-0.7-0.2-1.2-0.5-1.5c-0.3-0.3-0.8-0.5-1.4-0.5
				c-0.7,0-1.2,0.2-1.6,0.6c-0.4,0.4-0.6,1-0.6,1.7v3.3h-0.9v-6.3h0.8v1.2c0.2-0.4,0.6-0.7,1-0.9s0.9-0.3,1.4-0.3
				C287.9,38.6,288.5,38.8,289,39.3z"/>
			<path class="st1" d="M297.8,36v8.9h-0.8v-1.2c-0.3,0.4-0.6,0.7-1,1S295,45,294.5,45c-0.6,0-1.1-0.1-1.6-0.4
				c-0.5-0.3-0.9-0.7-1.1-1.1c-0.3-0.5-0.4-1-0.4-1.7c0-0.6,0.1-1.2,0.4-1.7c0.3-0.5,0.6-0.9,1.1-1.1c0.5-0.3,1-0.4,1.6-0.4
				c0.5,0,1,0.1,1.4,0.3s0.8,0.5,1,0.9V36H297.8z M295.8,43.9c0.4-0.2,0.6-0.5,0.8-0.9s0.3-0.8,0.3-1.3c0-0.5-0.1-0.9-0.3-1.3
				s-0.5-0.7-0.8-0.9s-0.8-0.3-1.2-0.3c-0.4,0-0.8,0.1-1.2,0.3c-0.4,0.2-0.6,0.5-0.8,0.9s-0.3,0.8-0.3,1.3c0,0.5,0.1,0.9,0.3,1.3
				s0.5,0.7,0.8,0.9c0.4,0.2,0.8,0.3,1.2,0.3C295,44.2,295.4,44.1,295.8,43.9z"/>
			<path class="st1" d="M305.6,42h-5.3c0,0.7,0.3,1.2,0.8,1.6c0.5,0.4,1,0.6,1.7,0.6c0.4,0,0.8-0.1,1.1-0.2c0.3-0.1,0.6-0.3,0.9-0.6
				l0.5,0.6c-0.3,0.3-0.6,0.6-1,0.8c-0.4,0.2-0.9,0.3-1.4,0.3c-0.6,0-1.2-0.1-1.7-0.4s-0.9-0.7-1.2-1.1c-0.3-0.5-0.4-1-0.4-1.7
				c0-0.6,0.1-1.2,0.4-1.7c0.3-0.5,0.6-0.9,1.1-1.1c0.5-0.3,1-0.4,1.6-0.4s1.1,0.1,1.6,0.4c0.5,0.3,0.8,0.7,1.1,1.1
				c0.3,0.5,0.4,1,0.4,1.7L305.6,42z M301.1,39.9c-0.4,0.4-0.6,0.9-0.7,1.5h4.5c-0.1-0.6-0.3-1.1-0.7-1.5s-0.9-0.6-1.5-0.6
				C302,39.3,301.5,39.5,301.1,39.9z"/>
			<path class="st1" d="M312.5,39.3c0.5,0.5,0.7,1.1,0.7,2v3.7h-0.9v-3.6c0-0.7-0.2-1.2-0.5-1.5c-0.3-0.3-0.8-0.5-1.4-0.5
				c-0.7,0-1.2,0.2-1.6,0.6c-0.4,0.4-0.6,1-0.6,1.7v3.3h-0.9v-6.3h0.8v1.2c0.2-0.4,0.6-0.7,1-0.9s0.9-0.3,1.4-0.3
				C311.4,38.6,312,38.8,312.5,39.3z"/>
			<path class="st1" d="M318.8,44.6c-0.2,0.1-0.4,0.3-0.6,0.3c-0.2,0.1-0.5,0.1-0.7,0.1c-0.6,0-1-0.2-1.4-0.5
				c-0.3-0.3-0.5-0.8-0.5-1.4v-3.8h-1.1v-0.7h1.1v-1.4h0.9v1.4h1.9v0.7h-1.9v3.8c0,0.4,0.1,0.7,0.3,0.9c0.2,0.2,0.5,0.3,0.8,0.3
				c0.2,0,0.3,0,0.5-0.1s0.3-0.1,0.4-0.2L318.8,44.6z"/>
			<path class="st1" d="M325.6,42h-5.3c0,0.7,0.3,1.2,0.8,1.6c0.5,0.4,1,0.6,1.7,0.6c0.4,0,0.8-0.1,1.1-0.2c0.3-0.1,0.6-0.3,0.9-0.6
				l0.5,0.6c-0.3,0.3-0.6,0.6-1,0.8c-0.4,0.2-0.9,0.3-1.4,0.3c-0.6,0-1.2-0.1-1.7-0.4s-0.9-0.7-1.2-1.1c-0.3-0.5-0.4-1-0.4-1.7
				c0-0.6,0.1-1.2,0.4-1.7c0.3-0.5,0.6-0.9,1.1-1.1c0.5-0.3,1-0.4,1.6-0.4s1.1,0.1,1.6,0.4c0.5,0.3,0.8,0.7,1.1,1.1
				c0.3,0.5,0.4,1,0.4,1.7L325.6,42z M321.1,39.9c-0.4,0.4-0.6,0.9-0.7,1.5h4.5c-0.1-0.6-0.3-1.1-0.7-1.5s-0.9-0.6-1.5-0.6
				C322,39.3,321.5,39.5,321.1,39.9z"/>
		</g>
		<g>
			<g>
				<rect x="61.7" y="95.5" class="st5" width="19.1" height="10.2"/>
				<path class="st1" d="M65.1,95.9h2.9c0.7,0,1.4,0.1,2,0.4c0.6,0.3,1,0.7,1.3,1.2c0.3,0.5,0.5,1.1,0.5,1.8s-0.2,1.3-0.5,1.8
					c-0.3,0.5-0.8,0.9-1.3,1.2c-0.6,0.3-1.2,0.4-2,0.4h-2.9V95.9z M67.9,102.3c0.6,0,1.1-0.1,1.6-0.4s0.8-0.6,1.1-1
					c0.3-0.4,0.4-0.9,0.4-1.5s-0.1-1.1-0.4-1.5c-0.3-0.4-0.6-0.8-1.1-1c-0.5-0.2-1-0.4-1.6-0.4h-2.1v5.7H67.9z"/>
				<path class="st1" d="M74,102.6c-0.4-0.2-0.7-0.5-1-1s-0.4-0.9-0.4-1.4s0.1-1,0.4-1.4c0.2-0.4,0.6-0.7,1-1s0.9-0.3,1.4-0.3
					c0.5,0,1,0.1,1.4,0.3c0.4,0.2,0.7,0.5,1,1c0.2,0.4,0.3,0.9,0.3,1.4s-0.1,1-0.3,1.4s-0.5,0.7-1,1c-0.4,0.2-0.9,0.3-1.4,0.3
					C74.8,103,74.4,102.8,74,102.6z M76.4,102.1c0.3-0.2,0.5-0.4,0.7-0.7c0.2-0.3,0.3-0.7,0.3-1.1s-0.1-0.8-0.3-1.1
					c-0.2-0.3-0.4-0.6-0.7-0.7c-0.3-0.2-0.6-0.3-1-0.3c-0.4,0-0.7,0.1-1,0.3c-0.3,0.2-0.5,0.4-0.7,0.7c-0.2,0.3-0.3,0.7-0.3,1.1
					s0.1,0.8,0.3,1.1c0.2,0.3,0.4,0.6,0.7,0.7c0.3,0.2,0.6,0.3,1,0.3C75.7,102.3,76.1,102.2,76.4,102.1z"/>
			</g>
			<g>
				<rect x="89.8" y="95.5" class="st5" width="24.7" height="10.2"/>
				<path class="st1" d="M96,95.9h2.9c0.7,0,1.4,0.1,2,0.4c0.6,0.3,1,0.7,1.3,1.2c0.3,0.5,0.5,1.1,0.5,1.8s-0.2,1.3-0.5,1.8
					c-0.3,0.5-0.8,0.9-1.3,1.2c-0.6,0.3-1.2,0.4-2,0.4H96V95.9z M98.9,102.3c0.6,0,1.1-0.1,1.6-0.4s0.8-0.6,1.1-1
					c0.3-0.4,0.4-0.9,0.4-1.5s-0.1-1.1-0.4-1.5c-0.3-0.4-0.6-0.8-1.1-1c-0.5-0.2-1-0.4-1.6-0.4h-2.1v5.7H98.9z"/>
				<path class="st1" d="M104.9,102.6c-0.4-0.2-0.7-0.5-1-1s-0.4-0.9-0.4-1.4s0.1-1,0.4-1.4c0.2-0.4,0.6-0.7,1-1s0.9-0.3,1.4-0.3
					c0.5,0,1,0.1,1.4,0.3c0.4,0.2,0.7,0.5,1,1c0.2,0.4,0.3,0.9,0.3,1.4s-0.1,1-0.3,1.4s-0.5,0.7-1,1c-0.4,0.2-0.9,0.3-1.4,0.3
					C105.8,103,105.3,102.8,104.9,102.6z M107.3,102.1c0.3-0.2,0.5-0.4,0.7-0.7c0.2-0.3,0.3-0.7,0.3-1.1s-0.1-0.8-0.3-1.1
					c-0.2-0.3-0.4-0.6-0.7-0.7c-0.3-0.2-0.6-0.3-1-0.3c-0.4,0-0.7,0.1-1,0.3c-0.3,0.2-0.5,0.4-0.7,0.7c-0.2,0.3-0.3,0.7-0.3,1.1
					s0.1,0.8,0.3,1.1c0.2,0.3,0.4,0.6,0.7,0.7c0.3,0.2,0.6,0.3,1,0.3C106.7,102.3,107,102.2,107.3,102.1z"/>
			</g>
			<g>
				<rect x="145.3" y="95.5" class="st5" width="24.7" height="10.2"/>
				<path class="st1" d="M156.9,102.9l-1.6-2.3c-0.2,0-0.4,0-0.6,0h-1.9v2.2h-0.7v-7h2.6c0.9,0,1.6,0.2,2.1,0.6
					c0.5,0.4,0.8,1,0.8,1.8c0,0.5-0.1,1-0.4,1.4c-0.3,0.4-0.7,0.6-1.2,0.8l1.7,2.4H156.9z M156.4,99.6c0.4-0.3,0.5-0.7,0.5-1.3
					c0-0.6-0.2-1-0.5-1.3c-0.4-0.3-0.9-0.5-1.6-0.5h-1.9v3.5h1.9C155.5,100.1,156,99.9,156.4,99.6z"/>
				<path class="st1" d="M163.8,100.5h-4.4c0,0.5,0.3,1,0.6,1.3c0.4,0.3,0.9,0.5,1.4,0.5c0.3,0,0.6-0.1,0.9-0.2
					c0.3-0.1,0.5-0.3,0.7-0.5l0.4,0.5c-0.2,0.3-0.5,0.5-0.9,0.6s-0.7,0.2-1.2,0.2c-0.5,0-1-0.1-1.4-0.3c-0.4-0.2-0.7-0.5-1-1
					s-0.4-0.9-0.4-1.4s0.1-1,0.3-1.4c0.2-0.4,0.5-0.7,0.9-1c0.4-0.2,0.8-0.3,1.3-0.3c0.5,0,0.9,0.1,1.3,0.3s0.7,0.5,0.9,0.9
					c0.2,0.4,0.3,0.9,0.3,1.4L163.8,100.5z M160,98.7c-0.3,0.3-0.5,0.7-0.6,1.3h3.7c0-0.5-0.2-0.9-0.6-1.3c-0.3-0.3-0.8-0.5-1.3-0.5
					C160.8,98.2,160.4,98.4,160,98.7z"/>
			</g>
			<g>
				<rect x="118.6" y="95.5" class="st5" width="19.1" height="10.2"/>
				<path class="st1" d="M127.4,102.9l-1.6-2.3c-0.2,0-0.4,0-0.6,0h-1.9v2.2h-0.7v-7h2.6c0.9,0,1.6,0.2,2.1,0.6
					c0.5,0.4,0.8,1,0.8,1.8c0,0.5-0.1,1-0.4,1.4c-0.3,0.4-0.7,0.6-1.2,0.8l1.7,2.4H127.4z M126.8,99.6c0.4-0.3,0.5-0.7,0.5-1.3
					c0-0.6-0.2-1-0.5-1.3c-0.4-0.3-0.9-0.5-1.6-0.5h-1.9v3.5h1.9C125.9,100.1,126.5,99.9,126.8,99.6z"/>
				<path class="st1" d="M134.3,100.5h-4.4c0,0.5,0.3,1,0.6,1.3c0.4,0.3,0.9,0.5,1.4,0.5c0.3,0,0.6-0.1,0.9-0.2
					c0.3-0.1,0.5-0.3,0.7-0.5l0.4,0.5c-0.2,0.3-0.5,0.5-0.9,0.6s-0.7,0.2-1.2,0.2c-0.5,0-1-0.1-1.4-0.3c-0.4-0.2-0.7-0.5-1-1
					s-0.4-0.9-0.4-1.4s0.1-1,0.3-1.4c0.2-0.4,0.5-0.7,0.9-1c0.4-0.2,0.8-0.3,1.3-0.3c0.5,0,0.9,0.1,1.3,0.3s0.7,0.5,0.9,0.9
					c0.2,0.4,0.3,0.9,0.3,1.4L134.3,100.5z M130.5,98.7c-0.3,0.3-0.5,0.7-0.6,1.3h3.7c0-0.5-0.2-0.9-0.6-1.3
					c-0.3-0.3-0.8-0.5-1.3-0.5C131.2,98.2,130.8,98.4,130.5,98.7z"/>
			</g>
			<g>
				<rect x="183.7" y="95.6" class="st5" width="19.1" height="10.2"/>
				<path class="st1" d="M195.6,96v7h-0.7v-5.6l-2.8,4.7h-0.4l-2.8-4.7v5.6h-0.7v-7h0.6l3,5.2l3-5.2H195.6z"/>
				<path class="st1" d="M197.7,96.5c-0.1-0.1-0.1-0.2-0.1-0.4c0-0.1,0-0.3,0.1-0.4s0.2-0.1,0.4-0.1c0.1,0,0.3,0,0.4,0.1
					c0.1,0.1,0.1,0.2,0.1,0.3c0,0.1-0.1,0.3-0.1,0.4c-0.1,0.1-0.2,0.1-0.4,0.1C197.9,96.6,197.8,96.6,197.7,96.5z M197.7,97.8h0.7
					v5.3h-0.7V97.8z"/>
			</g>
			<g>
				<rect x="234" y="95.6" class="st5" width="24.7" height="10.2"/>
				<path class="st1" d="M242.2,96.7v2.8h3.6v0.6h-3.6v3h-0.7v-7h4.8v0.6H242.2z"/>
				<path class="st1" d="M250.8,98.2c0.4,0.3,0.5,0.9,0.5,1.5v3.3h-0.7v-0.8c-0.2,0.3-0.4,0.5-0.7,0.6c-0.3,0.2-0.7,0.2-1.1,0.2
					c-0.6,0-1.1-0.1-1.4-0.4c-0.3-0.3-0.5-0.6-0.5-1.1c0-0.4,0.2-0.8,0.5-1.1s0.8-0.4,1.5-0.4h1.7v-0.3c0-0.5-0.1-0.8-0.4-1
					c-0.3-0.2-0.6-0.4-1.1-0.4c-0.3,0-0.7,0.1-1,0.2c-0.3,0.1-0.6,0.3-0.8,0.5l-0.3-0.5c0.3-0.2,0.6-0.4,1-0.5
					c0.4-0.1,0.8-0.2,1.2-0.2C250,97.7,250.5,97.9,250.8,98.2z M250,102.2c0.3-0.2,0.5-0.4,0.6-0.8v-0.9H249c-0.9,0-1.4,0.3-1.4,0.9
					c0,0.3,0.1,0.5,0.4,0.7s0.6,0.3,1,0.3C249.4,102.5,249.8,102.4,250,102.2z"/>
			</g>
			<g>
				<rect x="208" y="95.6" class="st5" width="19.1" height="10.2"/>
				<path class="st1" d="M213.4,96.7v2.8h3.6v0.6h-3.6v3h-0.7v-7h4.8v0.6H213.4z"/>
				<path class="st1" d="M222.1,98.2c0.4,0.3,0.5,0.9,0.5,1.5v3.3h-0.7v-0.8c-0.2,0.3-0.4,0.5-0.7,0.6c-0.3,0.2-0.7,0.2-1.1,0.2
					c-0.6,0-1.1-0.1-1.4-0.4c-0.3-0.3-0.5-0.6-0.5-1.1c0-0.4,0.2-0.8,0.5-1.1c0.3-0.3,0.8-0.4,1.5-0.4h1.7v-0.3c0-0.5-0.1-0.8-0.4-1
					c-0.3-0.2-0.6-0.4-1.1-0.4c-0.3,0-0.7,0.1-1,0.2c-0.3,0.1-0.6,0.3-0.8,0.5l-0.3-0.5c0.3-0.2,0.6-0.4,1-0.5
					c0.4-0.1,0.8-0.2,1.2-0.2C221.2,97.7,221.7,97.9,222.1,98.2z M221.3,102.2c0.3-0.2,0.5-0.4,0.6-0.8v-0.9h-1.6
					c-0.9,0-1.4,0.3-1.4,0.9c0,0.3,0.1,0.5,0.4,0.7s0.6,0.3,1,0.3C220.6,102.5,221,102.4,221.3,102.2z"/>
			</g>
			<g>
				<rect x="295.7" y="95.6" class="st5" width="24.7" height="10.2"/>
				<path class="st1" d="M302.1,102.8c-0.5-0.2-0.8-0.4-1.1-0.7l0.3-0.6c0.3,0.3,0.6,0.5,1,0.6c0.4,0.2,0.9,0.2,1.3,0.2
					c0.6,0,1.1-0.1,1.4-0.3s0.5-0.5,0.5-0.9c0-0.3-0.1-0.5-0.3-0.7c-0.2-0.2-0.4-0.3-0.6-0.4c-0.2-0.1-0.6-0.2-1-0.3
					c-0.5-0.1-0.9-0.3-1.3-0.4c-0.3-0.1-0.6-0.3-0.8-0.6s-0.3-0.6-0.3-1c0-0.4,0.1-0.7,0.3-1s0.5-0.5,0.9-0.7s0.9-0.3,1.4-0.3
					c0.4,0,0.8,0.1,1.2,0.2c0.4,0.1,0.7,0.3,1,0.5l-0.3,0.6c-0.3-0.2-0.6-0.3-0.9-0.4c-0.3-0.1-0.7-0.1-1-0.1
					c-0.6,0-1.1,0.1-1.4,0.4c-0.3,0.2-0.5,0.5-0.5,0.9c0,0.3,0.1,0.5,0.3,0.7s0.4,0.3,0.6,0.4c0.3,0.1,0.6,0.2,1,0.3
					c0.5,0.1,0.9,0.3,1.2,0.4c0.3,0.1,0.6,0.3,0.8,0.6s0.3,0.6,0.3,1c0,0.4-0.1,0.7-0.3,1c-0.2,0.3-0.5,0.5-0.9,0.7
					c-0.4,0.2-0.9,0.3-1.5,0.3C303.1,103.1,302.6,103,302.1,102.8z"/>
				<path class="st1" d="M308.4,102.7c-0.4-0.2-0.7-0.5-1-1s-0.4-0.9-0.4-1.4s0.1-1,0.4-1.4c0.2-0.4,0.6-0.7,1-1
					c0.4-0.2,0.9-0.3,1.4-0.3c0.5,0,1,0.1,1.4,0.3c0.4,0.2,0.7,0.5,1,1c0.2,0.4,0.3,0.9,0.3,1.4s-0.1,1-0.3,1.4
					c-0.2,0.4-0.5,0.7-1,1c-0.4,0.2-0.9,0.3-1.4,0.3C309.3,103.1,308.8,103,308.4,102.7z M310.8,102.2c0.3-0.2,0.5-0.4,0.7-0.7
					c0.2-0.3,0.3-0.7,0.3-1.1s-0.1-0.8-0.3-1.1c-0.2-0.3-0.4-0.6-0.7-0.7c-0.3-0.2-0.6-0.3-1-0.3c-0.4,0-0.7,0.1-1,0.3
					c-0.3,0.2-0.5,0.4-0.7,0.7c-0.2,0.3-0.3,0.7-0.3,1.1s0.1,0.8,0.3,1.1c0.2,0.3,0.4,0.6,0.7,0.7c0.3,0.2,0.6,0.3,1,0.3
					C310.2,102.4,310.5,102.4,310.8,102.2z"/>
				<path class="st1" d="M313.9,95.6h0.7v7.4h-0.7V95.6z"/>
			</g>
			<g>
				<rect x="264.4" y="95.6" class="st5" width="19.1" height="10.2"/>
				<path class="st1" d="M267.9,102.8c-0.5-0.2-0.8-0.4-1.1-0.7l0.3-0.6c0.3,0.3,0.6,0.5,1,0.6c0.4,0.2,0.9,0.2,1.3,0.2
					c0.6,0,1.1-0.1,1.4-0.3s0.5-0.5,0.5-0.9c0-0.3-0.1-0.5-0.3-0.7s-0.4-0.3-0.6-0.4c-0.2-0.1-0.6-0.2-1-0.3
					c-0.5-0.1-0.9-0.3-1.3-0.4s-0.6-0.3-0.8-0.6c-0.2-0.3-0.3-0.6-0.3-1c0-0.4,0.1-0.7,0.3-1s0.5-0.5,0.9-0.7s0.9-0.3,1.4-0.3
					c0.4,0,0.8,0.1,1.2,0.2c0.4,0.1,0.7,0.3,1,0.5l-0.3,0.6c-0.3-0.2-0.6-0.3-0.9-0.4c-0.3-0.1-0.7-0.1-1-0.1
					c-0.6,0-1.1,0.1-1.4,0.4c-0.3,0.2-0.5,0.5-0.5,0.9c0,0.3,0.1,0.5,0.3,0.7s0.4,0.3,0.6,0.4c0.3,0.1,0.6,0.2,1,0.3
					c0.5,0.1,0.9,0.3,1.2,0.4c0.3,0.1,0.6,0.3,0.8,0.6c0.2,0.3,0.3,0.6,0.3,1c0,0.4-0.1,0.7-0.3,1c-0.2,0.3-0.5,0.5-0.9,0.7
					c-0.4,0.2-0.9,0.3-1.5,0.3C268.9,103.1,268.4,103,267.9,102.8z"/>
				<path class="st1" d="M274.3,102.7c-0.4-0.2-0.7-0.5-1-1s-0.3-0.9-0.3-1.4s0.1-1,0.3-1.4c0.2-0.4,0.6-0.7,1-1
					c0.4-0.2,0.9-0.3,1.4-0.3s1,0.1,1.4,0.3s0.7,0.5,1,1c0.2,0.4,0.3,0.9,0.3,1.4s-0.1,1-0.3,1.4c-0.2,0.4-0.5,0.7-1,1
					s-0.9,0.3-1.4,0.3S274.7,103,274.3,102.7z M276.6,102.2c0.3-0.2,0.5-0.4,0.7-0.7c0.2-0.3,0.3-0.7,0.3-1.1s-0.1-0.8-0.3-1.1
					c-0.2-0.3-0.4-0.6-0.7-0.7c-0.3-0.2-0.6-0.3-1-0.3s-0.7,0.1-1,0.3c-0.3,0.2-0.5,0.4-0.7,0.7c-0.2,0.3-0.3,0.7-0.3,1.1
					s0.1,0.8,0.3,1.1c0.2,0.3,0.4,0.6,0.7,0.7s0.6,0.3,1,0.3S276.3,102.4,276.6,102.2z"/>
				<path class="st1" d="M279.7,95.6h0.7v7.4h-0.7V95.6z"/>
			</g>
			<g>
				<rect x="354.5" y="95.6" class="st5" width="24.7" height="10.2"/>
				<path class="st1" d="M362.1,96h0.7v6.4h3.9v0.6h-4.7V96z"/>
				<path class="st1" d="M371.2,98.2c0.4,0.3,0.5,0.9,0.5,1.5v3.3h-0.7v-0.8c-0.2,0.3-0.4,0.5-0.7,0.6c-0.3,0.2-0.7,0.2-1.1,0.2
					c-0.6,0-1.1-0.1-1.4-0.4c-0.3-0.3-0.5-0.6-0.5-1.1c0-0.4,0.2-0.8,0.5-1.1s0.8-0.4,1.5-0.4h1.7v-0.3c0-0.5-0.1-0.8-0.4-1
					c-0.3-0.2-0.6-0.4-1.1-0.4c-0.3,0-0.7,0.1-1,0.2c-0.3,0.1-0.6,0.3-0.8,0.5l-0.3-0.5c0.3-0.2,0.6-0.4,1-0.5
					c0.4-0.1,0.8-0.2,1.2-0.2C370.3,97.7,370.9,97.9,371.2,98.2z M370.4,102.2c0.3-0.2,0.5-0.4,0.6-0.8v-0.9h-1.6
					c-0.9,0-1.4,0.3-1.4,0.9c0,0.3,0.1,0.5,0.4,0.7s0.6,0.3,1,0.3C369.8,102.5,370.1,102.4,370.4,102.2z"/>
			</g>
			<g>
				<rect x="328.2" y="95.6" class="st5" width="19.1" height="10.2"/>
				<path class="st1" d="M333,96h0.7v6.4h3.9v0.6H333V96z"/>
				<path class="st1" d="M342.2,98.2c0.4,0.3,0.5,0.9,0.5,1.5v3.3H342v-0.8c-0.2,0.3-0.4,0.5-0.7,0.6c-0.3,0.2-0.7,0.2-1.1,0.2
					c-0.6,0-1.1-0.1-1.4-0.4c-0.3-0.3-0.5-0.6-0.5-1.1c0-0.4,0.2-0.8,0.5-1.1s0.8-0.4,1.5-0.4h1.7v-0.3c0-0.5-0.1-0.8-0.4-1
					c-0.3-0.2-0.6-0.4-1.1-0.4c-0.3,0-0.7,0.1-1,0.2c-0.3,0.1-0.6,0.3-0.8,0.5l-0.3-0.5c0.3-0.2,0.6-0.4,1-0.5
					c0.4-0.1,0.8-0.2,1.2-0.2C341.3,97.7,341.8,97.9,342.2,98.2z M341.4,102.2c0.3-0.2,0.5-0.4,0.6-0.8v-0.9h-1.6
					c-0.9,0-1.4,0.3-1.4,0.9c0,0.3,0.1,0.5,0.4,0.7s0.6,0.3,1,0.3C340.7,102.5,341.1,102.4,341.4,102.2z"/>
			</g>
			<g>
				<rect x="384.2" y="95.6" class="st5" width="19.1" height="10.2"/>
				<path class="st1" d="M390.9,102.8c-0.5-0.2-0.8-0.4-1.1-0.7l0.3-0.6c0.3,0.3,0.6,0.5,1,0.6c0.4,0.2,0.9,0.2,1.3,0.2
					c0.6,0,1.1-0.1,1.4-0.3s0.5-0.5,0.5-0.9c0-0.3-0.1-0.5-0.3-0.7c-0.2-0.2-0.4-0.3-0.6-0.4c-0.2-0.1-0.6-0.2-1-0.3
					c-0.5-0.1-0.9-0.3-1.3-0.4c-0.3-0.1-0.6-0.3-0.8-0.6s-0.3-0.6-0.3-1c0-0.4,0.1-0.7,0.3-1s0.5-0.5,0.9-0.7s0.9-0.3,1.4-0.3
					c0.4,0,0.8,0.1,1.2,0.2c0.4,0.1,0.7,0.3,1,0.5l-0.3,0.6c-0.3-0.2-0.6-0.3-0.9-0.4c-0.3-0.1-0.7-0.1-1-0.1
					c-0.6,0-1.1,0.1-1.4,0.4c-0.3,0.2-0.5,0.5-0.5,0.9c0,0.3,0.1,0.5,0.3,0.7s0.4,0.3,0.6,0.4c0.3,0.1,0.6,0.2,1,0.3
					c0.5,0.1,0.9,0.3,1.2,0.4c0.3,0.1,0.6,0.3,0.8,0.6s0.3,0.6,0.3,1c0,0.4-0.1,0.7-0.3,1c-0.2,0.3-0.5,0.5-0.9,0.7
					c-0.4,0.2-0.9,0.3-1.5,0.3C391.9,103.1,391.4,103,390.9,102.8z"/>
				<path class="st1" d="M396.4,96.5c-0.1-0.1-0.2-0.2-0.2-0.4c0-0.1,0-0.3,0.2-0.4c0.1-0.1,0.2-0.1,0.4-0.1c0.1,0,0.3,0,0.4,0.1
					c0.1,0.1,0.1,0.2,0.1,0.3c0,0.1,0,0.3-0.1,0.4c-0.1,0.1-0.2,0.1-0.4,0.1C396.7,96.6,396.5,96.6,396.4,96.5z M396.4,97.8h0.7v5.3
					h-0.7V97.8z"/>
			</g>
			<g>
				<rect x="416.7" y="95.5" class="st5" width="19.1" height="10.2"/>
				<path class="st1" d="M420.1,95.9h2.9c0.7,0,1.4,0.1,2,0.4c0.6,0.3,1,0.7,1.3,1.2c0.3,0.5,0.5,1.1,0.5,1.8s-0.2,1.3-0.5,1.8
					c-0.3,0.5-0.8,0.9-1.3,1.2c-0.6,0.3-1.2,0.4-2,0.4h-2.9V95.9z M422.9,102.3c0.6,0,1.1-0.1,1.6-0.4s0.8-0.6,1.1-1
					c0.3-0.4,0.4-0.9,0.4-1.5s-0.1-1.1-0.4-1.5c-0.3-0.4-0.6-0.8-1.1-1c-0.5-0.2-1-0.4-1.6-0.4h-2.1v5.7H422.9z"/>
				<path class="st1" d="M429,102.6c-0.4-0.2-0.7-0.5-1-1s-0.3-0.9-0.3-1.4s0.1-1,0.3-1.4c0.2-0.4,0.6-0.7,1-1
					c0.4-0.2,0.9-0.3,1.4-0.3s1,0.1,1.4,0.3s0.7,0.5,1,1c0.2,0.4,0.3,0.9,0.3,1.4s-0.1,1-0.3,1.4c-0.2,0.4-0.5,0.7-1,1
					s-0.9,0.3-1.4,0.3S429.4,102.8,429,102.6z M431.4,102.1c0.3-0.2,0.5-0.4,0.7-0.7c0.2-0.3,0.3-0.7,0.3-1.1s-0.1-0.8-0.3-1.1
					c-0.2-0.3-0.4-0.6-0.7-0.7c-0.3-0.2-0.6-0.3-1-0.3s-0.7,0.1-1,0.3c-0.3,0.2-0.5,0.4-0.7,0.7c-0.2,0.3-0.3,0.7-0.3,1.1
					s0.1,0.8,0.3,1.1c0.2,0.3,0.4,0.6,0.7,0.7s0.6,0.3,1,0.3S431.1,102.2,431.4,102.1z"/>
			</g>
			<path class="st1" d="M112.8,93l-0.3,0.1c-0.1,0-0.1,0.2-0.1,0.3v1c0,0.1,0.1,0.2,0.1,0.2l0.3-0.1c0,0,0,0,0.1,0
				c0,0,0.1,0,0.1,0.1v0.7c0,0.1-0.1,0.1-0.1,0.2c0,0-0.2,0.1-0.3,0.1c-0.1,0-0.1,0.2-0.1,0.2v1.5c0,0.1-0.1,0.1-0.2,0.1
				c-0.1,0-0.1-0.1-0.1-0.1v-1.3c0-0.1-0.1-0.2-0.1-0.2c0,0,0,0,0,0l-0.6,0.3c-0.1,0-0.1,0.1-0.1,0.2v1.4c0,0.1-0.1,0.1-0.2,0.1
				c-0.1,0-0.1-0.1-0.1-0.1v-1.3c0-0.1-0.1-0.2-0.1-0.2c0,0,0,0,0,0c-0.1,0-0.2,0.1-0.2,0.1c0,0,0,0,0,0c-0.1,0-0.1,0-0.1-0.1v-0.7
				c0-0.1,0.1-0.1,0.1-0.2c0,0,0.2-0.1,0.3-0.1c0.1,0,0.1-0.1,0.1-0.2v-1c0-0.1-0.1-0.2-0.1-0.2c0,0,0,0,0,0c-0.1,0-0.2,0.1-0.2,0.1
				c0,0,0,0,0,0c-0.1,0-0.1,0-0.1-0.1v-0.7c0-0.1,0.1-0.1,0.1-0.2c0,0,0.2-0.1,0.3-0.1c0.1,0,0.1-0.1,0.1-0.3v-1.4
				c0-0.1,0.1-0.1,0.2-0.1c0.1,0,0.1,0.1,0.1,0.1v1.2c0,0.1,0,0.2,0.1,0.2c0.2,0,0.5-0.2,0.7-0.3c0.1-0.1,0.1-0.2,0.1-0.3v-1.3
				c0-0.1,0.1-0.1,0.2-0.1c0.1,0,0.1,0.1,0.1,0.1v1.3c0,0.1,0.1,0.1,0.1,0.1c0.1,0,0.3-0.1,0.3-0.1c0,0,0,0,0.1,0c0,0,0.1,0,0.1,0.1
				v0.7C112.9,92.9,112.9,92.9,112.8,93z M112.1,94.7c0-0.1,0-0.4,0-0.7c0-0.3,0-0.5,0-0.6c0,0-0.1-0.1-0.2-0.1
				c-0.3,0-0.7,0.2-0.8,0.4c0,0.1,0,0.4,0,0.8c0,0.2,0,0.5,0,0.5c0,0,0.1,0.1,0.1,0.1C111.5,95.1,112,94.9,112.1,94.7z"/>
			<path class="st1" d="M167.2,93l-0.3,0.1c-0.1,0-0.1,0.2-0.1,0.3v1c0,0.1,0.1,0.2,0.1,0.2l0.3-0.1c0,0,0,0,0.1,0
				c0,0,0.1,0,0.1,0.1v0.7c0,0.1-0.1,0.1-0.1,0.2c0,0-0.2,0.1-0.3,0.1c-0.1,0-0.1,0.2-0.1,0.2v1.5c0,0.1-0.1,0.1-0.2,0.1
				c-0.1,0-0.1-0.1-0.1-0.1V96c0-0.1-0.1-0.2-0.1-0.2c0,0,0,0,0,0l-0.6,0.3c-0.1,0-0.1,0.1-0.1,0.2v1.4c0,0.1-0.1,0.1-0.2,0.1
				c-0.1,0-0.1-0.1-0.1-0.1v-1.3c0-0.1-0.1-0.2-0.1-0.2c0,0,0,0,0,0c-0.1,0-0.2,0.1-0.2,0.1c0,0,0,0,0,0c-0.1,0-0.1,0-0.1-0.1v-0.7
				c0-0.1,0.1-0.1,0.1-0.2c0,0,0.2-0.1,0.3-0.1c0.1,0,0.1-0.1,0.1-0.2v-1c0-0.1-0.1-0.2-0.1-0.2c0,0,0,0,0,0c-0.1,0-0.2,0.1-0.2,0.1
				c0,0,0,0,0,0c-0.1,0-0.1,0-0.1-0.1v-0.7c0-0.1,0.1-0.1,0.1-0.2c0,0,0.2-0.1,0.3-0.1c0.1,0,0.1-0.1,0.1-0.3v-1.4
				c0-0.1,0.1-0.1,0.2-0.1c0.1,0,0.1,0.1,0.1,0.1v1.2c0,0.1,0,0.2,0.1,0.2c0.2,0,0.5-0.2,0.7-0.3c0.1-0.1,0.1-0.2,0.1-0.3v-1.3
				c0-0.1,0.1-0.1,0.2-0.1c0.1,0,0.1,0.1,0.1,0.1V92c0,0.1,0.1,0.1,0.1,0.1c0.1,0,0.3-0.1,0.3-0.1c0,0,0,0,0.1,0c0,0,0.1,0,0.1,0.1
				v0.7C167.3,92.9,167.3,93,167.2,93z M166.5,94.7c0-0.1,0-0.4,0-0.7c0-0.3,0-0.5,0-0.6c0,0-0.1-0.1-0.2-0.1
				c-0.3,0-0.7,0.2-0.8,0.4c0,0.1,0,0.4,0,0.8c0,0.2,0,0.5,0,0.5c0,0,0.1,0.1,0.1,0.1C166,95.1,166.4,94.9,166.5,94.7z"/>
			<path class="st1" d="M254.6,93l-0.3,0.1c-0.1,0-0.1,0.2-0.1,0.3v1c0,0.1,0.1,0.2,0.1,0.2l0.3-0.1c0,0,0,0,0.1,0
				c0,0,0.1,0,0.1,0.1v0.7c0,0.1-0.1,0.1-0.1,0.2c0,0-0.2,0.1-0.3,0.1c-0.1,0-0.1,0.2-0.1,0.2v1.5c0,0.1-0.1,0.1-0.2,0.1
				c-0.1,0-0.1-0.1-0.1-0.1V96c0-0.1-0.1-0.2-0.1-0.2c0,0,0,0,0,0l-0.6,0.3c-0.1,0-0.1,0.1-0.1,0.2v1.4c0,0.1-0.1,0.1-0.2,0.1
				c-0.1,0-0.1-0.1-0.1-0.1v-1.3c0-0.1-0.1-0.2-0.1-0.2c0,0,0,0,0,0c-0.1,0-0.2,0.1-0.2,0.1c0,0,0,0,0,0c-0.1,0-0.1,0-0.1-0.1v-0.7
				c0-0.1,0.1-0.1,0.1-0.2c0,0,0.2-0.1,0.3-0.1c0.1,0,0.1-0.1,0.1-0.2v-1c0-0.1-0.1-0.2-0.1-0.2c0,0,0,0,0,0c-0.1,0-0.2,0.1-0.2,0.1
				c0,0,0,0,0,0c-0.1,0-0.1,0-0.1-0.1v-0.7c0-0.1,0.1-0.1,0.1-0.2c0,0,0.2-0.1,0.3-0.1c0.1,0,0.1-0.1,0.1-0.3v-1.4
				c0-0.1,0.1-0.1,0.2-0.1c0.1,0,0.1,0.1,0.1,0.1v1.2c0,0.1,0,0.2,0.1,0.2c0.2,0,0.5-0.2,0.7-0.3c0.1-0.1,0.1-0.2,0.1-0.3v-1.3
				c0-0.1,0.1-0.1,0.2-0.1c0.1,0,0.1,0.1,0.1,0.1V92c0,0.1,0.1,0.1,0.1,0.1c0.1,0,0.3-0.1,0.3-0.1c0,0,0,0,0.1,0c0,0,0.1,0,0.1,0.1
				v0.7C254.8,92.9,254.7,93,254.6,93z M253.9,94.7c0-0.1,0-0.4,0-0.7c0-0.3,0-0.5,0-0.6c0,0-0.1-0.1-0.2-0.1
				c-0.3,0-0.7,0.2-0.8,0.4c0,0.1,0,0.4,0,0.8c0,0.2,0,0.5,0,0.5c0,0,0.1,0.1,0.1,0.1C253.4,95.1,253.9,94.9,253.9,94.7z"/>
			<path class="st1" d="M318.9,93l-0.3,0.1c-0.1,0-0.1,0.2-0.1,0.3v1c0,0.1,0.1,0.2,0.1,0.2l0.3-0.1c0,0,0,0,0.1,0
				c0,0,0.1,0,0.1,0.1v0.7c0,0.1-0.1,0.1-0.1,0.2c0,0-0.2,0.1-0.3,0.1c-0.1,0-0.1,0.2-0.1,0.2v1.5c0,0.1-0.1,0.1-0.2,0.1
				c-0.1,0-0.1-0.1-0.1-0.1V96c0-0.1-0.1-0.2-0.1-0.2c0,0,0,0,0,0l-0.6,0.3c-0.1,0-0.1,0.1-0.1,0.2v1.4c0,0.1-0.1,0.1-0.2,0.1
				c-0.1,0-0.1-0.1-0.1-0.1v-1.3c0-0.1-0.1-0.2-0.1-0.2c0,0,0,0,0,0c-0.1,0-0.2,0.1-0.2,0.1c0,0,0,0,0,0c-0.1,0-0.1,0-0.1-0.1v-0.7
				c0-0.1,0.1-0.1,0.1-0.2c0,0,0.2-0.1,0.3-0.1c0.1,0,0.1-0.1,0.1-0.2v-1c0-0.1-0.1-0.2-0.1-0.2c0,0,0,0,0,0c-0.1,0-0.2,0.1-0.2,0.1
				c0,0,0,0,0,0c-0.1,0-0.1,0-0.1-0.1v-0.7c0-0.1,0.1-0.1,0.1-0.2c0,0,0.2-0.1,0.3-0.1c0.1,0,0.1-0.1,0.1-0.3v-1.4
				c0-0.1,0.1-0.1,0.2-0.1c0.1,0,0.1,0.1,0.1,0.1v1.2c0,0.1,0,0.2,0.1,0.2c0.2,0,0.5-0.2,0.7-0.3c0.1-0.1,0.1-0.2,0.1-0.3v-1.3
				c0-0.1,0.1-0.1,0.2-0.1c0.1,0,0.1,0.1,0.1,0.1V92c0,0.1,0.1,0.1,0.1,0.1c0.1,0,0.3-0.1,0.3-0.1c0,0,0,0,0.1,0c0,0,0.1,0,0.1,0.1
				v0.7C319,92.9,318.9,93,318.9,93z M318.1,94.7c0-0.1,0-0.4,0-0.7c0-0.3,0-0.5,0-0.6c0,0-0.1-0.1-0.2-0.1c-0.3,0-0.7,0.2-0.8,0.4
				c0,0.1,0,0.4,0,0.8c0,0.2,0,0.5,0,0.5c0,0,0.1,0.1,0.1,0.1C317.6,95.1,318.1,94.9,318.1,94.7z"/>
			<path class="st1" d="M374.8,93.1l-0.3,0.1c-0.1,0-0.1,0.2-0.1,0.3v1c0,0.1,0.1,0.2,0.1,0.2l0.3-0.1c0,0,0,0,0.1,0
				c0,0,0.1,0,0.1,0.1v0.7c0,0.1-0.1,0.1-0.1,0.2c0,0-0.2,0.1-0.3,0.1c-0.1,0-0.1,0.2-0.1,0.2v1.5c0,0.1-0.1,0.1-0.2,0.1
				c-0.1,0-0.1-0.1-0.1-0.1V96c0-0.1-0.1-0.2-0.1-0.2c0,0,0,0,0,0l-0.6,0.3c-0.1,0-0.1,0.1-0.1,0.2v1.4c0,0.1-0.1,0.1-0.2,0.1
				c-0.1,0-0.1-0.1-0.1-0.1v-1.3c0-0.1-0.1-0.2-0.1-0.2c0,0,0,0,0,0c-0.1,0-0.2,0.1-0.2,0.1c0,0,0,0,0,0c-0.1,0-0.1,0-0.1-0.1v-0.7
				c0-0.1,0.1-0.1,0.1-0.2c0,0,0.2-0.1,0.3-0.1c0.1,0,0.1-0.1,0.1-0.2v-1c0-0.1-0.1-0.2-0.1-0.2c0,0,0,0,0,0c-0.1,0-0.2,0.1-0.2,0.1
				c0,0,0,0,0,0c-0.1,0-0.1,0-0.1-0.1v-0.7c0-0.1,0.1-0.1,0.1-0.2c0,0,0.2-0.1,0.3-0.1c0.1,0,0.1-0.1,0.1-0.3v-1.4
				c0-0.1,0.1-0.1,0.2-0.1c0.1,0,0.1,0.1,0.1,0.1v1.2c0,0.1,0,0.2,0.1,0.2c0.2,0,0.5-0.2,0.7-0.3c0.1-0.1,0.1-0.2,0.1-0.3v-1.3
				c0-0.1,0.1-0.1,0.2-0.1c0.1,0,0.1,0.1,0.1,0.1V92c0,0.1,0.1,0.1,0.1,0.1c0.1,0,0.3-0.1,0.3-0.1c0,0,0,0,0.1,0c0,0,0.1,0,0.1,0.1
				v0.7C375,92.9,374.9,93,374.8,93.1z M374.1,94.7c0-0.1,0-0.4,0-0.7c0-0.3,0-0.5,0-0.6c0,0-0.1-0.1-0.2-0.1
				c-0.3,0-0.7,0.2-0.8,0.4c0,0.1,0,0.4,0,0.8c0,0.2,0,0.5,0,0.5c0,0,0.1,0.1,0.1,0.1C373.6,95.2,374.1,95,374.1,94.7z"/>
		</g>
	</g>
	<g>
		<line class="st0" x1="29.2" y1="160.6" x2="454.3" y2="160.6"/>
		<line class="st0" x1="29.2" y1="165.6" x2="454.3" y2="165.6"/>
		<line class="st0" x1="29.2" y1="170.5" x2="454.3" y2="170.5"/>
		<line class="st0" x1="29.2" y1="175.5" x2="454.3" y2="175.5"/>
		<line class="st0" x1="29.2" y1="180.4" x2="454.3" y2="180.4"/>
		<path class="st1" d="M44.2,162c0.6,0,1.1,0.5,1.1,1.1s-0.5,1.1-1.1,1.1s-1.1-0.5-1.1-1.1S43.6,162,44.2,162z M44.2,167
			c0.6,0,1.1,0.5,1.1,1.1s-0.5,1.1-1.1,1.1s-1.1-0.5-1.1-1.1S43.6,167,44.2,167z M36.7,160.4c3.4,0,5.5,2.3,5.5,5.8
			c0,2.6-1,5-2.8,6.9c-2.1,2.3-4.6,3.8-7.3,5.1c-0.1,0.1-0.2,0.1-0.3,0.1c-0.2,0-0.3-0.1-0.3-0.2c0-0.2,0.1-0.3,0.3-0.4
			c2.5-1.4,4.5-3.1,5.7-4.9c1.2-1.9,1.7-4.3,1.7-6.3c0-3.1-0.9-5.2-3-5.2c-2,0-3.2,1.4-3.2,2.2c0,0.2,0.1,0.4,0.3,0.4s0.5-0.1,1-0.1
			c1,0,1.9,0.8,1.9,2.1c0,1.2-0.9,2.1-2.1,2.1c-1.6,0-2.4-1.4-2.4-3C31.7,162.9,33.3,160.4,36.7,160.4z"/>
		<line class="st3" x1="65.8" y1="155.6" x2="76.6" y2="155.6"/>
		<line class="st2" x1="68.6" y1="156.5" x2="68.6" y2="173"/>
		<path class="st1" d="M70.2,158.1c-1.1,0-1.9-0.6-1.9-1.6c0-1.7,1.7-3.3,3.9-3.3c1.1,0,1.9,0.6,1.9,1.6
			C74.1,156.5,72,158.1,70.2,158.1z"/>
		<line class="st2" x1="93" y1="159" x2="93" y2="175.5"/>
		<path class="st1" d="M94.6,160.6c-1.1,0-1.9-0.6-1.9-1.6c0-1.7,1.7-3.3,3.9-3.3c1.1,0,1.9,0.6,1.9,1.6
			C98.6,159,96.4,160.6,94.6,160.6z"/>
		<path class="st1" d="M117.4,161.5c-0.2-0.2-0.2-11.5-0.2-11.5c0-0.4,0.3-0.6,0.6-0.6c0.2,0,0.4,0.1,0.4,0.3c0,0.4-0.1,5.2-0.1,5.6
			c0,0.1,0.1,0.3,0.2,0.3c0,0,0.1,0,0.1,0c0.1,0,0.3-0.2,0.4-0.3c0.2-0.1,0.5-0.2,0.7-0.3c0.1,0,0.3-0.1,0.4-0.1
			c0.9,0.1,1.8,0.8,1.8,1.9c0,0.9-0.6,2.1-2.4,3.4c-0.5,0.3-1,0.9-1.6,1.2c0,0-0.1,0-0.1,0S117.4,161.6,117.4,161.5z M118.1,159.7
			c0,0.1,0,0.3,0.2,0.3c0.1,0,0.1,0,0.2-0.1c0.6-0.4,1.2-1,1.4-1.5c0.2-0.4,0.3-0.8,0.3-1.2c0-0.4-0.1-0.7-0.3-0.9
			c-0.1-0.1-0.3-0.2-0.5-0.2c-0.2,0-0.3,0-0.5,0.1c-0.3,0.2-0.8,0.6-0.9,0.8c0,0.1,0,0.3,0,0.6C118,158.5,118.1,159.7,118.1,159.7z"
			/>
		<line class="st2" x1="124.4" y1="159" x2="124.4" y2="175.5"/>
		<path class="st1" d="M126,160.6c-1.1,0-1.9-0.6-1.9-1.6c0-1.7,1.7-3.3,3.9-3.3c1.1,0,1.9,0.6,1.9,1.6
			C130,159,127.8,160.6,126,160.6z"/>
		<line class="st2" x1="148.8" y1="161.4" x2="148.8" y2="178"/>
		<path class="st1" d="M150.4,163.1c-1.1,0-1.9-0.6-1.9-1.6c0-1.7,1.7-3.3,3.9-3.3c1.1,0,1.9,0.6,1.9,1.6
			C154.4,161.5,152.2,163.1,150.4,163.1z"/>
		<path class="st1" d="M181.4,164c-0.2-0.2-0.2-11.5-0.2-11.5c0-0.4,0.3-0.6,0.6-0.6c0.2,0,0.4,0.1,0.4,0.3c0,0.4-0.1,5.2-0.1,5.6
			c0,0.1,0.1,0.3,0.2,0.3c0,0,0.1,0,0.1,0c0.1,0,0.3-0.2,0.4-0.3c0.2-0.1,0.5-0.2,0.7-0.3c0.1,0,0.3-0.1,0.4-0.1
			c0.9,0.1,1.8,0.8,1.8,1.9c0,0.9-0.6,2.1-2.4,3.4c-0.5,0.3-1,0.9-1.6,1.2c0,0-0.1,0-0.1,0S181.5,164.1,181.4,164z M182.1,162.2
			c0,0.1,0,0.3,0.2,0.3c0.1,0,0.1,0,0.2-0.1c0.6-0.4,1.2-1,1.4-1.5c0.2-0.4,0.3-0.8,0.3-1.2c0-0.4-0.1-0.7-0.3-0.9
			c-0.1-0.1-0.3-0.2-0.5-0.2c-0.2,0-0.3,0-0.5,0.1c-0.3,0.2-0.8,0.6-0.9,0.8c0,0.1,0,0.3,0,0.6C182.1,161,182.1,162.2,182.1,162.2z"
			/>
		<line class="st2" x1="188.4" y1="161.4" x2="188.4" y2="178"/>
		<path class="st1" d="M190.1,163.1c-1.1,0-1.9-0.6-1.9-1.6c0-1.7,1.7-3.3,3.9-3.3c1.1,0,1.9,0.6,1.9,1.6
			C194,161.5,191.8,163.1,190.1,163.1z"/>
		<line class="st2" x1="212.9" y1="163.9" x2="212.9" y2="180.4"/>
		<path class="st1" d="M214.5,165.6c-1.1,0-1.9-0.6-1.9-1.6c0-1.7,1.7-3.3,3.9-3.3c1.1,0,1.9,0.6,1.9,1.6
			C218.4,163.9,216.3,165.6,214.5,165.6z"/>
		<path class="st1" d="M237.2,166.5c-0.2-0.2-0.2-11.5-0.2-11.5c0-0.4,0.3-0.6,0.6-0.6c0.2,0,0.4,0.1,0.4,0.3c0,0.4-0.1,5.2-0.1,5.6
			c0,0.1,0.1,0.3,0.2,0.3c0,0,0.1,0,0.1,0c0.1,0,0.3-0.2,0.4-0.3c0.2-0.1,0.5-0.2,0.7-0.3c0.1,0,0.3-0.1,0.4-0.1
			c0.9,0.1,1.8,0.8,1.8,1.9c0,0.9-0.6,2.1-2.4,3.4c-0.5,0.3-1,0.9-1.6,1.2c0,0-0.1,0-0.1,0C237.3,166.6,237.3,166.5,237.2,166.5z
			 M237.9,164.7c0,0.1,0,0.3,0.2,0.3c0.1,0,0.1,0,0.2-0.1c0.6-0.4,1.2-1,1.4-1.5c0.2-0.4,0.3-0.8,0.3-1.2c0-0.4-0.1-0.7-0.3-0.9
			c-0.1-0.1-0.3-0.2-0.5-0.2c-0.2,0-0.3,0-0.5,0.1c-0.3,0.2-0.8,0.6-0.9,0.8c0,0.1,0,0.3,0,0.6C237.9,163.5,237.9,164.7,237.9,164.7
			z"/>
		<line class="st2" x1="244.3" y1="163.9" x2="244.3" y2="180.4"/>
		<path class="st1" d="M245.9,165.6c-1.1,0-1.9-0.6-1.9-1.6c0-1.7,1.7-3.3,3.9-3.3c1.1,0,1.9,0.6,1.9,1.6
			C249.8,163.9,247.6,165.6,245.9,165.6z"/>
		<line class="st2" x1="268.7" y1="166.4" x2="268.7" y2="182.9"/>
		<path class="st1" d="M270.3,168c-1.1,0-1.9-0.6-1.9-1.6c0-1.7,1.7-3.3,3.9-3.3c1.1,0,1.9,0.6,1.9,1.6
			C274.2,166.4,272.1,168,270.3,168z"/>
		<line class="st2" x1="301.3" y1="168.9" x2="301.3" y2="185.4"/>
		<path class="st1" d="M303,170.5c-1.1,0-1.9-0.6-1.9-1.6c0-1.7,1.7-3.3,3.9-3.3c1.1,0,1.9,0.6,1.9,1.6
			C306.9,168.9,304.7,170.5,303,170.5z"/>
		<path class="st1" d="M326.1,171.4c-0.2-0.2-0.2-11.5-0.2-11.5c0-0.4,0.3-0.6,0.6-0.6c0.2,0,0.4,0.1,0.4,0.3c0,0.4-0.1,5.2-0.1,5.6
			c0,0.1,0.1,0.3,0.2,0.3c0,0,0.1,0,0.1,0c0.1,0,0.3-0.2,0.4-0.3c0.2-0.1,0.5-0.2,0.7-0.3c0.1,0,0.3-0.1,0.4-0.1
			c0.9,0.1,1.8,0.8,1.8,1.9c0,0.9-0.6,2.1-2.4,3.4c-0.5,0.3-1,0.9-1.6,1.2c0,0-0.1,0-0.1,0C326.2,171.5,326.2,171.5,326.1,171.4z
			 M326.8,169.6c0,0.1,0,0.3,0.2,0.3c0.1,0,0.1,0,0.2-0.1c0.6-0.4,1.2-1,1.4-1.5c0.2-0.4,0.3-0.8,0.3-1.2c0-0.4-0.1-0.7-0.3-0.9
			c-0.1-0.1-0.3-0.2-0.5-0.2c-0.2,0-0.3,0-0.5,0.1c-0.3,0.2-0.8,0.6-0.9,0.8c0,0.1,0,0.3,0,0.6C326.8,168.5,326.8,169.6,326.8,169.6
			z"/>
		<line class="st2" x1="333.2" y1="168.9" x2="333.2" y2="185.4"/>
		<path class="st1" d="M334.8,170.5c-1.1,0-1.9-0.6-1.9-1.6c0-1.7,1.7-3.3,3.9-3.3c1.1,0,1.9,0.6,1.9,1.6
			C338.7,168.9,336.5,170.5,334.8,170.5z"/>
		<line class="st2" x1="358" y1="171.4" x2="358" y2="187.9"/>
		<path class="st1" d="M359.6,173c-1.1,0-1.9-0.6-1.9-1.6c0-1.7,1.7-3.3,3.9-3.3c1.1,0,1.9,0.6,1.9,1.6
			C363.6,171.4,361.4,173,359.6,173z"/>
		<path class="st1" d="M382.8,173.9c-0.2-0.2-0.2-11.5-0.2-11.5c0-0.4,0.3-0.6,0.6-0.6c0.2,0,0.4,0.1,0.4,0.3c0,0.4-0.1,5.2-0.1,5.6
			c0,0.1,0.1,0.3,0.2,0.3c0,0,0.1,0,0.1,0c0.1,0,0.3-0.2,0.4-0.3c0.2-0.1,0.5-0.2,0.7-0.3c0.1,0,0.3-0.1,0.4-0.1
			c0.9,0.1,1.8,0.8,1.8,1.9c0,0.9-0.6,2.1-2.4,3.4c-0.5,0.3-1,0.9-1.6,1.2c0,0-0.1,0-0.1,0C382.9,174,382.9,174,382.8,173.9z
			 M383.5,172.1c0,0.1,0,0.3,0.2,0.3c0.1,0,0.1,0,0.2-0.1c0.6-0.4,1.2-1,1.4-1.5c0.2-0.4,0.3-0.8,0.3-1.2c0-0.4-0.1-0.7-0.3-0.9
			c-0.1-0.1-0.3-0.2-0.5-0.2c-0.2,0-0.3,0-0.5,0.1c-0.3,0.2-0.8,0.6-0.9,0.8c0,0.1,0,0.3,0,0.6C383.4,170.9,383.5,172.1,383.5,172.1
			z"/>
		<line class="st2" x1="389.8" y1="171.4" x2="389.8" y2="187.9"/>
		<path class="st1" d="M391.5,173c-1.1,0-1.9-0.6-1.9-1.6c0-1.7,1.7-3.3,3.9-3.3c1.1,0,1.9,0.6,1.9,1.6
			C395.4,171.4,393.2,173,391.5,173z"/>
		<line class="st2" x1="428.2" y1="172.2" x2="428.2" y2="155.6"/>
		<path class="st1" d="M424.6,175.5c-1.1,0-1.9-0.6-1.9-1.6c0-1.7,1.7-3.3,3.9-3.3c1.1,0,1.9,0.6,1.9,1.6
			C428.5,173.9,426.3,175.5,424.6,175.5z"/>
		<g>
			<line class="st3" x1="449.4" y1="160.6" x2="449.4" y2="180.4"/>
			<line class="st4" x1="453" y1="160.6" x2="453" y2="180.4"/>
		</g>
		<line class="st3" x1="29.2" y1="160.6" x2="29.2" y2="180.4"/>
		<g>
			<rect x="26.7" y="135.6" class="st5" width="425" height="10.2"/>
			<path class="st1" d="M154.5,144.2c-0.6-0.2-1-0.5-1.3-0.8l0.3-0.7c0.3,0.3,0.7,0.6,1.2,0.7c0.5,0.2,1,0.3,1.6,0.3
				c0.8,0,1.3-0.1,1.7-0.4s0.6-0.6,0.6-1.1c0-0.3-0.1-0.6-0.3-0.8c-0.2-0.2-0.5-0.4-0.8-0.5c-0.3-0.1-0.7-0.2-1.2-0.4
				c-0.6-0.2-1.1-0.3-1.5-0.5c-0.4-0.1-0.7-0.4-1-0.7s-0.4-0.7-0.4-1.2c0-0.4,0.1-0.8,0.3-1.2c0.2-0.3,0.6-0.6,1-0.8
				c0.5-0.2,1-0.3,1.7-0.3c0.5,0,1,0.1,1.4,0.2s0.9,0.3,1.2,0.5l-0.3,0.7c-0.4-0.2-0.7-0.4-1.1-0.5c-0.4-0.1-0.8-0.2-1.2-0.2
				c-0.7,0-1.3,0.1-1.7,0.4c-0.4,0.3-0.6,0.7-0.6,1.1c0,0.3,0.1,0.6,0.3,0.8c0.2,0.2,0.5,0.4,0.8,0.5c0.3,0.1,0.7,0.2,1.2,0.4
				c0.6,0.2,1.1,0.3,1.5,0.5c0.4,0.1,0.7,0.4,1,0.7s0.4,0.7,0.4,1.2c0,0.4-0.1,0.8-0.3,1.2c-0.2,0.3-0.6,0.6-1.1,0.8
				s-1.1,0.3-1.7,0.3C155.7,144.5,155.1,144.4,154.5,144.2z"/>
			<path class="st1" d="M162.2,144.1c-0.5-0.3-0.9-0.7-1.2-1.1c-0.3-0.5-0.4-1-0.4-1.7c0-0.6,0.1-1.2,0.4-1.7
				c0.3-0.5,0.7-0.9,1.2-1.1c0.5-0.3,1.1-0.4,1.7-0.4c0.5,0,1,0.1,1.5,0.3c0.4,0.2,0.8,0.5,1,0.9l-0.6,0.4c-0.2-0.3-0.5-0.5-0.8-0.7
				c-0.3-0.2-0.7-0.2-1-0.2c-0.5,0-0.9,0.1-1.2,0.3c-0.4,0.2-0.6,0.5-0.9,0.9c-0.2,0.4-0.3,0.8-0.3,1.3c0,0.5,0.1,0.9,0.3,1.3
				c0.2,0.4,0.5,0.7,0.9,0.9c0.4,0.2,0.8,0.3,1.2,0.3c0.4,0,0.7-0.1,1-0.2c0.3-0.2,0.6-0.4,0.8-0.7l0.6,0.4c-0.2,0.4-0.6,0.7-1,0.9
				c-0.4,0.2-0.9,0.3-1.5,0.3C163.2,144.5,162.6,144.4,162.2,144.1z"/>
			<path class="st1" d="M172.1,138.7c0.4,0.4,0.7,1,0.7,1.8v3.9h-0.8v-1c-0.2,0.3-0.5,0.6-0.8,0.8c-0.4,0.2-0.8,0.3-1.3,0.3
				c-0.7,0-1.3-0.2-1.7-0.5c-0.4-0.3-0.6-0.8-0.6-1.3c0-0.5,0.2-1,0.6-1.3c0.4-0.3,1-0.5,1.9-0.5h2v-0.4c0-0.5-0.2-1-0.5-1.2
				c-0.3-0.3-0.7-0.4-1.3-0.4c-0.4,0-0.8,0.1-1.2,0.2c-0.4,0.1-0.7,0.3-0.9,0.5l-0.4-0.6c0.3-0.3,0.7-0.5,1.2-0.6
				c0.4-0.1,0.9-0.2,1.4-0.2C171,138.1,171.6,138.3,172.1,138.7z M171.1,143.5c0.3-0.2,0.6-0.5,0.8-1v-1h-2c-1.1,0-1.6,0.4-1.6,1.1
				c0,0.4,0.1,0.7,0.4,0.9c0.3,0.2,0.7,0.3,1.2,0.3C170.4,143.8,170.8,143.7,171.1,143.5z"/>
			<path class="st1" d="M175.1,135.6h0.9v8.9h-0.9V135.6z"/>
			<path class="st1" d="M182.4,138.7c0.4,0.4,0.7,1,0.7,1.8v3.9h-0.8v-1c-0.2,0.3-0.5,0.6-0.8,0.8c-0.4,0.2-0.8,0.3-1.3,0.3
				c-0.7,0-1.3-0.2-1.7-0.5c-0.4-0.3-0.6-0.8-0.6-1.3c0-0.5,0.2-1,0.6-1.3c0.4-0.3,1-0.5,1.9-0.5h2v-0.4c0-0.5-0.2-1-0.5-1.2
				c-0.3-0.3-0.7-0.4-1.3-0.4c-0.4,0-0.8,0.1-1.2,0.2c-0.4,0.1-0.7,0.3-0.9,0.5l-0.4-0.6c0.3-0.3,0.7-0.5,1.2-0.6
				c0.4-0.1,0.9-0.2,1.4-0.2C181.3,138.1,181.9,138.3,182.4,138.7z M181.4,143.5c0.3-0.2,0.6-0.5,0.8-1v-1h-2
				c-1.1,0-1.6,0.4-1.6,1.1c0,0.4,0.1,0.7,0.4,0.9c0.3,0.2,0.7,0.3,1.2,0.3C180.7,143.8,181.1,143.7,181.4,143.5z"/>
			<path class="st1" d="M189.4,144.1c-0.5-0.3-0.9-0.7-1.2-1.1c-0.3-0.5-0.4-1-0.4-1.7c0-0.6,0.1-1.2,0.4-1.7
				c0.3-0.5,0.7-0.9,1.2-1.1c0.5-0.3,1.1-0.4,1.7-0.4c0.5,0,1,0.1,1.5,0.3c0.4,0.2,0.8,0.5,1,0.9l-0.6,0.4c-0.2-0.3-0.5-0.5-0.8-0.7
				c-0.3-0.2-0.7-0.2-1-0.2c-0.5,0-0.9,0.1-1.2,0.3c-0.4,0.2-0.6,0.5-0.9,0.9c-0.2,0.4-0.3,0.8-0.3,1.3c0,0.5,0.1,0.9,0.3,1.3
				c0.2,0.4,0.5,0.7,0.9,0.9c0.4,0.2,0.8,0.3,1.2,0.3c0.4,0,0.7-0.1,1-0.2c0.3-0.2,0.6-0.4,0.8-0.7l0.6,0.4c-0.2,0.4-0.6,0.7-1,0.9
				c-0.4,0.2-0.9,0.3-1.5,0.3C190.5,144.5,189.9,144.4,189.4,144.1z"/>
			<path class="st1" d="M197,138.4c0.4-0.2,0.9-0.3,1.5-0.3v0.8l-0.2,0c-0.7,0-1.2,0.2-1.6,0.6s-0.6,1-0.6,1.7v3.2h-0.9v-6.3h0.8
				v1.2C196.3,139,196.6,138.6,197,138.4z"/>
			<path class="st1" d="M200.9,144.1c-0.5-0.3-0.9-0.7-1.2-1.1c-0.3-0.5-0.4-1-0.4-1.7c0-0.6,0.1-1.2,0.4-1.7
				c0.3-0.5,0.7-0.9,1.2-1.1c0.5-0.3,1-0.4,1.6-0.4s1.2,0.1,1.6,0.4c0.5,0.3,0.9,0.7,1.1,1.1s0.4,1,0.4,1.7c0,0.6-0.1,1.2-0.4,1.7
				c-0.3,0.5-0.7,0.9-1.1,1.1c-0.5,0.3-1,0.4-1.6,0.4S201.3,144.4,200.9,144.1z M203.7,143.5c0.4-0.2,0.6-0.5,0.8-0.9
				c0.2-0.4,0.3-0.8,0.3-1.3c0-0.5-0.1-0.9-0.3-1.3c-0.2-0.4-0.5-0.7-0.8-0.9s-0.8-0.3-1.2-0.3c-0.4,0-0.9,0.1-1.2,0.3
				s-0.6,0.5-0.8,0.9c-0.2,0.4-0.3,0.8-0.3,1.3c0,0.5,0.1,0.9,0.3,1.3c0.2,0.4,0.5,0.7,0.8,0.9s0.8,0.3,1.2,0.3
				C202.9,143.8,203.3,143.7,203.7,143.5z"/>
			<path class="st1" d="M217.2,138.8c0.5,0.5,0.7,1.1,0.7,2v3.7H217v-3.6c0-0.7-0.2-1.2-0.5-1.5c-0.3-0.3-0.8-0.5-1.3-0.5
				c-0.7,0-1.2,0.2-1.5,0.6c-0.4,0.4-0.6,1-0.6,1.7v3.3h-0.9v-3.6c0-0.7-0.2-1.2-0.5-1.5c-0.3-0.3-0.8-0.5-1.4-0.5
				c-0.6,0-1.2,0.2-1.5,0.6c-0.4,0.4-0.6,1-0.6,1.7v3.3h-0.9v-6.3h0.8v1.2c0.2-0.4,0.5-0.7,0.9-0.9s0.9-0.3,1.4-0.3
				c0.5,0,1,0.1,1.4,0.3c0.4,0.2,0.7,0.6,0.9,1c0.2-0.4,0.6-0.7,1-1c0.4-0.2,0.9-0.4,1.5-0.4C216.1,138.1,216.7,138.3,217.2,138.8z"
				/>
			<path class="st1" d="M224.3,138.7c0.4,0.4,0.7,1,0.7,1.8v3.9h-0.8v-1c-0.2,0.3-0.5,0.6-0.8,0.8c-0.4,0.2-0.8,0.3-1.3,0.3
				c-0.7,0-1.3-0.2-1.7-0.5c-0.4-0.3-0.6-0.8-0.6-1.3c0-0.5,0.2-1,0.6-1.3c0.4-0.3,1-0.5,1.9-0.5h2v-0.4c0-0.5-0.2-1-0.5-1.2
				c-0.3-0.3-0.7-0.4-1.3-0.4c-0.4,0-0.8,0.1-1.2,0.2c-0.4,0.1-0.7,0.3-0.9,0.5l-0.4-0.6c0.3-0.3,0.7-0.5,1.2-0.6
				c0.4-0.1,0.9-0.2,1.4-0.2C223.2,138.1,223.8,138.3,224.3,138.7z M223.3,143.5c0.3-0.2,0.6-0.5,0.8-1v-1h-2
				c-1.1,0-1.6,0.4-1.6,1.1c0,0.4,0.1,0.7,0.4,0.9c0.3,0.2,0.7,0.3,1.2,0.3C222.6,143.8,223,143.7,223.3,143.5z"/>
			<path class="st1" d="M230.6,144.1c-0.2,0.1-0.4,0.3-0.6,0.3s-0.5,0.1-0.7,0.1c-0.6,0-1-0.2-1.4-0.5c-0.3-0.3-0.5-0.8-0.5-1.4
				v-3.8h-1.1v-0.7h1.1v-1.4h0.9v1.4h1.9v0.7h-1.9v3.8c0,0.4,0.1,0.7,0.3,0.9s0.5,0.3,0.8,0.3c0.2,0,0.3,0,0.5-0.1
				c0.2-0.1,0.3-0.1,0.4-0.2L230.6,144.1z"/>
			<path class="st1" d="M232.1,136.6c-0.1-0.1-0.2-0.3-0.2-0.4c0-0.2,0.1-0.3,0.2-0.4c0.1-0.1,0.3-0.2,0.4-0.2
				c0.2,0,0.3,0.1,0.4,0.2s0.2,0.3,0.2,0.4c0,0.2-0.1,0.3-0.2,0.4s-0.3,0.2-0.4,0.2C232.4,136.8,232.2,136.7,232.1,136.6z
				 M232.1,138.1h0.9v6.3h-0.9V138.1z"/>
			<path class="st1" d="M236.3,144.1c-0.5-0.3-0.9-0.7-1.2-1.1c-0.3-0.5-0.4-1-0.4-1.7c0-0.6,0.1-1.2,0.4-1.7
				c0.3-0.5,0.7-0.9,1.2-1.1c0.5-0.3,1.1-0.4,1.7-0.4c0.5,0,1,0.1,1.5,0.3c0.4,0.2,0.8,0.5,1,0.9l-0.6,0.4c-0.2-0.3-0.5-0.5-0.8-0.7
				c-0.3-0.2-0.7-0.2-1-0.2c-0.5,0-0.9,0.1-1.2,0.3c-0.4,0.2-0.6,0.5-0.9,0.9c-0.2,0.4-0.3,0.8-0.3,1.3c0,0.5,0.1,0.9,0.3,1.3
				c0.2,0.4,0.5,0.7,0.9,0.9c0.4,0.2,0.8,0.3,1.2,0.3c0.4,0,0.7-0.1,1-0.2c0.3-0.2,0.6-0.4,0.8-0.7l0.6,0.4c-0.2,0.4-0.6,0.7-1,0.9
				c-0.4,0.2-0.9,0.3-1.5,0.3C237.3,144.5,236.8,144.4,236.3,144.1z"/>
			<path class="st1" d="M246.2,138.7c0.4,0.4,0.7,1,0.7,1.8v3.9h-0.8v-1c-0.2,0.3-0.5,0.6-0.8,0.8c-0.4,0.2-0.8,0.3-1.3,0.3
				c-0.7,0-1.3-0.2-1.7-0.5s-0.6-0.8-0.6-1.3c0-0.5,0.2-1,0.6-1.3s1-0.5,1.9-0.5h2v-0.4c0-0.5-0.2-1-0.5-1.2
				c-0.3-0.3-0.7-0.4-1.3-0.4c-0.4,0-0.8,0.1-1.2,0.2s-0.7,0.3-0.9,0.5l-0.4-0.6c0.3-0.3,0.7-0.5,1.2-0.6c0.4-0.1,0.9-0.2,1.4-0.2
				C245.1,138.1,245.8,138.3,246.2,138.7z M245.3,143.5c0.3-0.2,0.6-0.5,0.8-1v-1h-2c-1.1,0-1.6,0.4-1.6,1.1c0,0.4,0.1,0.7,0.4,0.9
				s0.7,0.3,1.2,0.3C244.5,143.8,244.9,143.7,245.3,143.5z"/>
			<path class="st1" d="M258.1,135.6v8.9h-0.8v-1.2c-0.3,0.4-0.6,0.7-1,1c-0.4,0.2-0.9,0.3-1.4,0.3c-0.6,0-1.1-0.1-1.6-0.4
				c-0.5-0.3-0.9-0.7-1.1-1.1c-0.3-0.5-0.4-1-0.4-1.7c0-0.6,0.1-1.2,0.4-1.7c0.3-0.5,0.6-0.9,1.1-1.1c0.5-0.3,1-0.4,1.6-0.4
				c0.5,0,1,0.1,1.4,0.3s0.8,0.5,1,0.9v-3.8H258.1z M256.1,143.5c0.4-0.2,0.6-0.5,0.8-0.9s0.3-0.8,0.3-1.3c0-0.5-0.1-0.9-0.3-1.3
				s-0.5-0.7-0.8-0.9c-0.4-0.2-0.8-0.3-1.2-0.3c-0.4,0-0.8,0.1-1.2,0.3c-0.4,0.2-0.6,0.5-0.8,0.9s-0.3,0.8-0.3,1.3
				c0,0.5,0.1,0.9,0.3,1.3s0.5,0.7,0.8,0.9c0.4,0.2,0.8,0.3,1.2,0.3C255.4,143.8,255.7,143.7,256.1,143.5z"/>
			<path class="st1" d="M260.5,136.6c-0.1-0.1-0.2-0.3-0.2-0.4c0-0.2,0.1-0.3,0.2-0.4s0.3-0.2,0.4-0.2c0.2,0,0.3,0.1,0.4,0.2
				s0.2,0.3,0.2,0.4c0,0.2-0.1,0.3-0.2,0.4s-0.3,0.2-0.4,0.2C260.7,136.8,260.6,136.7,260.5,136.6z M260.5,138.1h0.9v6.3h-0.9V138.1
				z"/>
			<path class="st1" d="M263.9,144.3c-0.5-0.1-0.8-0.3-1.1-0.6l0.4-0.7c0.3,0.2,0.6,0.4,1,0.5c0.4,0.1,0.8,0.2,1.2,0.2
				c0.6,0,1-0.1,1.3-0.3c0.3-0.2,0.4-0.4,0.4-0.8c0-0.2-0.1-0.4-0.2-0.5c-0.2-0.1-0.3-0.2-0.6-0.3c-0.2-0.1-0.5-0.1-0.9-0.2
				c-0.5-0.1-0.9-0.2-1.2-0.3c-0.3-0.1-0.6-0.3-0.8-0.5c-0.2-0.2-0.3-0.6-0.3-1c0-0.5,0.2-1,0.7-1.3c0.4-0.3,1.1-0.5,1.8-0.5
				c0.4,0,0.8,0.1,1.2,0.2c0.4,0.1,0.7,0.3,1,0.4l-0.4,0.7c-0.5-0.4-1.1-0.5-1.9-0.5c-0.5,0-1,0.1-1.2,0.3c-0.3,0.2-0.4,0.4-0.4,0.8
				c0,0.2,0.1,0.4,0.2,0.6c0.2,0.1,0.4,0.3,0.6,0.3c0.2,0.1,0.6,0.1,1,0.2c0.5,0.1,0.9,0.2,1.2,0.3c0.3,0.1,0.6,0.3,0.8,0.5
				c0.2,0.2,0.3,0.6,0.3,1c0,0.6-0.2,1-0.7,1.3s-1.1,0.5-1.9,0.5C264.9,144.5,264.4,144.4,263.9,144.3z"/>
			<path class="st1" d="M270.5,144.1c-0.5-0.3-0.9-0.7-1.2-1.1c-0.3-0.5-0.4-1-0.4-1.7c0-0.6,0.1-1.2,0.4-1.7
				c0.3-0.5,0.7-0.9,1.2-1.1c0.5-0.3,1.1-0.4,1.7-0.4c0.5,0,1,0.1,1.5,0.3s0.8,0.5,1,0.9l-0.6,0.4c-0.2-0.3-0.5-0.5-0.8-0.7
				s-0.7-0.2-1-0.2c-0.5,0-0.9,0.1-1.2,0.3s-0.6,0.5-0.9,0.9c-0.2,0.4-0.3,0.8-0.3,1.3c0,0.5,0.1,0.9,0.3,1.3
				c0.2,0.4,0.5,0.7,0.9,0.9s0.8,0.3,1.2,0.3c0.4,0,0.7-0.1,1-0.2c0.3-0.2,0.6-0.4,0.8-0.7l0.6,0.4c-0.2,0.4-0.6,0.7-1,0.9
				s-0.9,0.3-1.5,0.3C271.6,144.5,271,144.4,270.5,144.1z"/>
			<path class="st1" d="M281.7,141.6h-5.3c0,0.7,0.3,1.2,0.8,1.6s1,0.6,1.7,0.6c0.4,0,0.8-0.1,1.1-0.2c0.3-0.1,0.6-0.3,0.9-0.6
				l0.5,0.6c-0.3,0.3-0.6,0.6-1,0.8c-0.4,0.2-0.9,0.3-1.4,0.3c-0.6,0-1.2-0.1-1.7-0.4c-0.5-0.3-0.9-0.7-1.2-1.1
				c-0.3-0.5-0.4-1-0.4-1.7c0-0.6,0.1-1.2,0.4-1.7c0.3-0.5,0.6-0.9,1.1-1.1c0.5-0.3,1-0.4,1.6-0.4s1.1,0.1,1.6,0.4
				c0.5,0.3,0.8,0.7,1.1,1.1c0.3,0.5,0.4,1,0.4,1.7L281.7,141.6z M277.1,139.4c-0.4,0.4-0.6,0.9-0.7,1.5h4.5
				c-0.1-0.6-0.3-1.1-0.7-1.5c-0.4-0.4-0.9-0.6-1.5-0.6C278.1,138.8,277.5,139,277.1,139.4z"/>
			<path class="st1" d="M288.6,138.8c0.5,0.5,0.7,1.1,0.7,2v3.7h-0.9v-3.6c0-0.7-0.2-1.2-0.5-1.5c-0.3-0.3-0.8-0.5-1.4-0.5
				c-0.7,0-1.2,0.2-1.6,0.6c-0.4,0.4-0.6,1-0.6,1.7v3.3h-0.9v-6.3h0.8v1.2c0.2-0.4,0.6-0.7,1-0.9s0.9-0.3,1.4-0.3
				C287.5,138.1,288.1,138.3,288.6,138.8z"/>
			<path class="st1" d="M297.4,135.6v8.9h-0.8v-1.2c-0.3,0.4-0.6,0.7-1,1c-0.4,0.2-0.9,0.3-1.4,0.3c-0.6,0-1.1-0.1-1.6-0.4
				c-0.5-0.3-0.9-0.7-1.1-1.1c-0.3-0.5-0.4-1-0.4-1.7c0-0.6,0.1-1.2,0.4-1.7c0.3-0.5,0.6-0.9,1.1-1.1c0.5-0.3,1-0.4,1.6-0.4
				c0.5,0,1,0.1,1.4,0.3s0.8,0.5,1,0.9v-3.8H297.4z M295.4,143.5c0.4-0.2,0.6-0.5,0.8-0.9s0.3-0.8,0.3-1.3c0-0.5-0.1-0.9-0.3-1.3
				s-0.5-0.7-0.8-0.9s-0.8-0.3-1.2-0.3c-0.4,0-0.8,0.1-1.2,0.3c-0.4,0.2-0.6,0.5-0.8,0.9s-0.3,0.8-0.3,1.3c0,0.5,0.1,0.9,0.3,1.3
				s0.5,0.7,0.8,0.9c0.4,0.2,0.8,0.3,1.2,0.3C294.6,143.8,295,143.7,295.4,143.5z"/>
			<path class="st1" d="M305.2,141.6H300c0,0.7,0.3,1.2,0.8,1.6s1,0.6,1.7,0.6c0.4,0,0.8-0.1,1.1-0.2c0.3-0.1,0.6-0.3,0.9-0.6
				l0.5,0.6c-0.3,0.3-0.6,0.6-1,0.8c-0.4,0.2-0.9,0.3-1.4,0.3c-0.6,0-1.2-0.1-1.7-0.4c-0.5-0.3-0.9-0.7-1.2-1.1
				c-0.3-0.5-0.4-1-0.4-1.7c0-0.6,0.1-1.2,0.4-1.7c0.3-0.5,0.6-0.9,1.1-1.1c0.5-0.3,1-0.4,1.6-0.4s1.1,0.1,1.6,0.4
				c0.5,0.3,0.8,0.7,1.1,1.1c0.3,0.5,0.4,1,0.4,1.7L305.2,141.6z M300.7,139.4c-0.4,0.4-0.6,0.9-0.7,1.5h4.5
				c-0.1-0.6-0.3-1.1-0.7-1.5c-0.4-0.4-0.9-0.6-1.5-0.6C301.6,138.8,301.1,139,300.7,139.4z"/>
			<path class="st1" d="M312.1,138.8c0.5,0.5,0.7,1.1,0.7,2v3.7h-0.9v-3.6c0-0.7-0.2-1.2-0.5-1.5c-0.3-0.3-0.8-0.5-1.4-0.5
				c-0.7,0-1.2,0.2-1.6,0.6c-0.4,0.4-0.6,1-0.6,1.7v3.3H307v-6.3h0.8v1.2c0.2-0.4,0.6-0.7,1-0.9s0.9-0.3,1.4-0.3
				C311,138.1,311.6,138.3,312.1,138.8z"/>
			<path class="st1" d="M318.4,144.1c-0.2,0.1-0.4,0.3-0.6,0.3s-0.5,0.1-0.7,0.1c-0.6,0-1-0.2-1.4-0.5c-0.3-0.3-0.5-0.8-0.5-1.4
				v-3.8h-1.1v-0.7h1.1v-1.4h0.9v1.4h1.9v0.7h-1.9v3.8c0,0.4,0.1,0.7,0.3,0.9c0.2,0.2,0.5,0.3,0.8,0.3c0.2,0,0.3,0,0.5-0.1
				c0.2-0.1,0.3-0.1,0.4-0.2L318.4,144.1z"/>
			<path class="st1" d="M325.3,141.6H320c0,0.7,0.3,1.2,0.8,1.6s1,0.6,1.7,0.6c0.4,0,0.8-0.1,1.1-0.2c0.3-0.1,0.6-0.3,0.9-0.6
				l0.5,0.6c-0.3,0.3-0.6,0.6-1,0.8c-0.4,0.2-0.9,0.3-1.4,0.3c-0.6,0-1.2-0.1-1.7-0.4c-0.5-0.3-0.9-0.7-1.2-1.1
				c-0.3-0.5-0.4-1-0.4-1.7c0-0.6,0.1-1.2,0.4-1.7c0.3-0.5,0.6-0.9,1.1-1.1c0.5-0.3,1-0.4,1.6-0.4s1.1,0.1,1.6,0.4
				c0.5,0.3,0.8,0.7,1.1,1.1c0.3,0.5,0.4,1,0.4,1.7L325.3,141.6z M320.7,139.4c-0.4,0.4-0.6,0.9-0.7,1.5h4.5
				c-0.1-0.6-0.3-1.1-0.7-1.5c-0.4-0.4-0.9-0.6-1.5-0.6C321.6,138.8,321.1,139,320.7,139.4z"/>
		</g>
		<g>
			<g>
				<rect x="61.7" y="198.6" class="st5" width="19.1" height="10.2"/>
				<path class="st1" d="M65.1,199.1h2.9c0.7,0,1.4,0.1,2,0.4c0.6,0.3,1,0.7,1.3,1.2s0.5,1.1,0.5,1.8c0,0.7-0.2,1.3-0.5,1.8
					c-0.3,0.5-0.8,0.9-1.3,1.2c-0.6,0.3-1.2,0.4-2,0.4h-2.9V199.1z M67.9,205.4c0.6,0,1.1-0.1,1.6-0.4s0.8-0.6,1.1-1
					c0.3-0.4,0.4-0.9,0.4-1.5c0-0.6-0.1-1.1-0.4-1.5s-0.6-0.8-1.1-1s-1-0.4-1.6-0.4h-2.1v5.7H67.9z"/>
				<path class="st1" d="M74,205.8c-0.4-0.2-0.7-0.5-1-1c-0.2-0.4-0.4-0.9-0.4-1.4c0-0.5,0.1-1,0.4-1.4c0.2-0.4,0.6-0.7,1-1
					s0.9-0.3,1.4-0.3c0.5,0,1,0.1,1.4,0.3c0.4,0.2,0.7,0.5,1,1c0.2,0.4,0.3,0.9,0.3,1.4c0,0.5-0.1,1-0.3,1.4c-0.2,0.4-0.5,0.7-1,1
					c-0.4,0.2-0.9,0.3-1.4,0.3C74.8,206.1,74.4,206,74,205.8z M76.4,205.2c0.3-0.2,0.5-0.4,0.7-0.7c0.2-0.3,0.3-0.7,0.3-1.1
					c0-0.4-0.1-0.8-0.3-1.1s-0.4-0.6-0.7-0.7c-0.3-0.2-0.6-0.3-1-0.3c-0.4,0-0.7,0.1-1,0.3c-0.3,0.2-0.5,0.4-0.7,0.7
					s-0.3,0.7-0.3,1.1c0,0.4,0.1,0.8,0.3,1.1c0.2,0.3,0.4,0.6,0.7,0.7c0.3,0.2,0.6,0.3,1,0.3C75.7,205.5,76.1,205.4,76.4,205.2z"/>
			</g>
			<g>
				<rect x="83.3" y="198.6" class="st5" width="24.7" height="10.2"/>
				<path class="st1" d="M92.8,205.9c-0.5-0.2-0.8-0.4-1.1-0.7l0.3-0.6c0.3,0.3,0.6,0.5,1,0.6c0.4,0.2,0.9,0.2,1.3,0.2
					c0.6,0,1.1-0.1,1.4-0.3c0.3-0.2,0.5-0.5,0.5-0.9c0-0.3-0.1-0.5-0.3-0.7c-0.2-0.2-0.4-0.3-0.6-0.4s-0.6-0.2-1-0.3
					c-0.5-0.1-0.9-0.3-1.3-0.4c-0.3-0.1-0.6-0.3-0.8-0.6c-0.2-0.3-0.3-0.6-0.3-1c0-0.4,0.1-0.7,0.3-1s0.5-0.5,0.9-0.7
					c0.4-0.2,0.9-0.3,1.4-0.3c0.4,0,0.8,0.1,1.2,0.2c0.4,0.1,0.7,0.3,1,0.5l-0.3,0.6c-0.3-0.2-0.6-0.3-0.9-0.4
					c-0.3-0.1-0.7-0.1-1-0.1c-0.6,0-1.1,0.1-1.4,0.4s-0.5,0.5-0.5,0.9c0,0.3,0.1,0.5,0.3,0.7s0.4,0.3,0.6,0.4c0.3,0.1,0.6,0.2,1,0.3
					c0.5,0.1,0.9,0.3,1.2,0.4c0.3,0.1,0.6,0.3,0.8,0.6c0.2,0.3,0.3,0.6,0.3,1c0,0.4-0.1,0.7-0.3,1c-0.2,0.3-0.5,0.5-0.9,0.7
					c-0.4,0.2-0.9,0.3-1.5,0.3C93.8,206.1,93.3,206,92.8,205.9z"/>
				<path class="st1" d="M98.4,199.5c-0.1-0.1-0.1-0.2-0.1-0.4c0-0.1,0-0.3,0.1-0.4c0.1-0.1,0.2-0.1,0.4-0.1c0.1,0,0.3,0,0.4,0.1
					c0.1,0.1,0.1,0.2,0.1,0.3c0,0.1-0.1,0.3-0.1,0.4c-0.1,0.1-0.2,0.2-0.4,0.2C98.6,199.6,98.5,199.6,98.4,199.5z M98.4,200.8h0.7
					v5.3h-0.7V200.8z"/>
			</g>
			<g>
				<rect x="139.1" y="198.6" class="st5" width="24.7" height="10.2"/>
				<path class="st1" d="M146.7,199.1h0.7v6.4h3.9v0.6h-4.7V199.1z"/>
				<path class="st1" d="M155.9,201.3c0.4,0.3,0.5,0.9,0.5,1.5v3.3h-0.7v-0.8c-0.2,0.3-0.4,0.5-0.7,0.6c-0.3,0.2-0.7,0.2-1.1,0.2
					c-0.6,0-1.1-0.1-1.4-0.4s-0.5-0.7-0.5-1.1c0-0.4,0.2-0.8,0.5-1.1c0.3-0.3,0.8-0.4,1.5-0.4h1.7v-0.3c0-0.5-0.1-0.8-0.4-1
					c-0.3-0.2-0.6-0.4-1.1-0.4c-0.3,0-0.7,0.1-1,0.2c-0.3,0.1-0.6,0.3-0.8,0.5l-0.3-0.5c0.3-0.2,0.6-0.4,1-0.5s0.8-0.2,1.2-0.2
					C155,200.8,155.5,200.9,155.9,201.3z M155.1,205.3c0.3-0.2,0.5-0.4,0.6-0.8v-0.9h-1.6c-0.9,0-1.4,0.3-1.4,0.9
					c0,0.3,0.1,0.5,0.4,0.7s0.6,0.3,1,0.3C154.4,205.5,154.8,205.5,155.1,205.3z"/>
			</g>
			<g>
				<rect x="117.5" y="198.6" class="st5" width="19.1" height="10.2"/>
				<path class="st1" d="M124.2,205.9c-0.5-0.2-0.8-0.4-1.1-0.7l0.3-0.6c0.3,0.3,0.6,0.5,1,0.6c0.4,0.2,0.9,0.2,1.3,0.2
					c0.6,0,1.1-0.1,1.4-0.3c0.3-0.2,0.5-0.5,0.5-0.9c0-0.3-0.1-0.5-0.3-0.7c-0.2-0.2-0.4-0.3-0.6-0.4s-0.6-0.2-1-0.3
					c-0.5-0.1-0.9-0.3-1.3-0.4c-0.3-0.1-0.6-0.3-0.8-0.6c-0.2-0.3-0.3-0.6-0.3-1c0-0.4,0.1-0.7,0.3-1s0.5-0.5,0.9-0.7
					c0.4-0.2,0.9-0.3,1.4-0.3c0.4,0,0.8,0.1,1.2,0.2c0.4,0.1,0.7,0.3,1,0.5l-0.3,0.6c-0.3-0.2-0.6-0.3-0.9-0.4
					c-0.3-0.1-0.7-0.1-1-0.1c-0.6,0-1.1,0.1-1.4,0.4s-0.5,0.5-0.5,0.9c0,0.3,0.1,0.5,0.3,0.7s0.4,0.3,0.6,0.4c0.3,0.1,0.6,0.2,1,0.3
					c0.5,0.1,0.9,0.3,1.2,0.4c0.3,0.1,0.6,0.3,0.8,0.6c0.2,0.3,0.3,0.6,0.3,1c0,0.4-0.1,0.7-0.3,1c-0.2,0.3-0.5,0.5-0.9,0.7
					c-0.4,0.2-0.9,0.3-1.5,0.3C125.2,206.1,124.7,206,124.2,205.9z"/>
				<path class="st1" d="M129.7,199.5c-0.1-0.1-0.1-0.2-0.1-0.4c0-0.1,0-0.3,0.1-0.4c0.1-0.1,0.2-0.1,0.4-0.1c0.1,0,0.3,0,0.4,0.1
					c0.1,0.1,0.1,0.2,0.1,0.3c0,0.1-0.1,0.3-0.1,0.4c-0.1,0.1-0.2,0.2-0.4,0.2C130,199.6,129.8,199.6,129.7,199.5z M129.7,200.8h0.7
					v5.3h-0.7V200.8z"/>
			</g>
			<g>
				<rect x="178.6" y="198.6" class="st5" width="19.1" height="10.2"/>
				<path class="st1" d="M183.4,199.1h0.7v6.4h3.9v0.6h-4.7V199.1z"/>
				<path class="st1" d="M192.6,201.3c0.4,0.3,0.5,0.9,0.5,1.5v3.3h-0.7v-0.8c-0.2,0.3-0.4,0.5-0.7,0.6c-0.3,0.2-0.7,0.2-1.1,0.2
					c-0.6,0-1.1-0.1-1.4-0.4s-0.5-0.7-0.5-1.1c0-0.4,0.2-0.8,0.5-1.1c0.3-0.3,0.8-0.4,1.5-0.4h1.7v-0.3c0-0.5-0.1-0.8-0.4-1
					c-0.3-0.2-0.6-0.4-1.1-0.4c-0.3,0-0.7,0.1-1,0.2c-0.3,0.1-0.6,0.3-0.8,0.5l-0.3-0.5c0.3-0.2,0.6-0.4,1-0.5s0.8-0.2,1.2-0.2
					C191.7,200.8,192.2,200.9,192.6,201.3z M191.8,205.3c0.3-0.2,0.5-0.4,0.6-0.8v-0.9h-1.6c-0.9,0-1.4,0.3-1.4,0.9
					c0,0.3,0.1,0.5,0.4,0.7s0.6,0.3,1,0.3C191.1,205.5,191.5,205.5,191.8,205.3z"/>
			</g>
			<g>
				<rect x="231.9" y="198.6" class="st5" width="24.7" height="10.2"/>
				<path class="st1" d="M238.3,205.9c-0.5-0.2-0.8-0.4-1.1-0.7l0.3-0.6c0.3,0.3,0.6,0.5,1,0.6c0.4,0.2,0.9,0.2,1.3,0.2
					c0.6,0,1.1-0.1,1.4-0.3c0.3-0.2,0.5-0.5,0.5-0.9c0-0.3-0.1-0.5-0.3-0.7c-0.2-0.2-0.4-0.3-0.6-0.4c-0.2-0.1-0.6-0.2-1-0.3
					c-0.5-0.1-0.9-0.3-1.3-0.4c-0.3-0.1-0.6-0.3-0.8-0.6c-0.2-0.3-0.3-0.6-0.3-1c0-0.4,0.1-0.7,0.3-1s0.5-0.5,0.9-0.7
					c0.4-0.2,0.9-0.3,1.4-0.3c0.4,0,0.8,0.1,1.2,0.2c0.4,0.1,0.7,0.3,1,0.5l-0.3,0.6c-0.3-0.2-0.6-0.3-0.9-0.4
					c-0.3-0.1-0.7-0.1-1-0.1c-0.6,0-1.1,0.1-1.4,0.4s-0.5,0.5-0.5,0.9c0,0.3,0.1,0.5,0.3,0.7s0.4,0.3,0.6,0.4c0.3,0.1,0.6,0.2,1,0.3
					c0.5,0.1,0.9,0.3,1.2,0.4c0.3,0.1,0.6,0.3,0.8,0.6s0.3,0.6,0.3,1c0,0.4-0.1,0.7-0.3,1c-0.2,0.3-0.5,0.5-0.9,0.7
					s-0.9,0.3-1.4,0.3C239.2,206.1,238.7,206,238.3,205.9z"/>
				<path class="st1" d="M244.6,205.8c-0.4-0.2-0.7-0.5-1-1c-0.2-0.4-0.4-0.9-0.4-1.4c0-0.5,0.1-1,0.4-1.4c0.2-0.4,0.6-0.7,1-1
					c0.4-0.2,0.9-0.3,1.4-0.3c0.5,0,1,0.1,1.4,0.3c0.4,0.2,0.7,0.5,1,1c0.2,0.4,0.3,0.9,0.3,1.4c0,0.5-0.1,1-0.3,1.4
					c-0.2,0.4-0.5,0.7-1,1c-0.4,0.2-0.9,0.3-1.4,0.3C245.5,206.1,245,206,244.6,205.8z M247,205.2c0.3-0.2,0.5-0.4,0.7-0.7
					c0.2-0.3,0.3-0.7,0.3-1.1c0-0.4-0.1-0.8-0.3-1.1c-0.2-0.3-0.4-0.6-0.7-0.7c-0.3-0.2-0.6-0.3-1-0.3c-0.4,0-0.7,0.1-1,0.3
					c-0.3,0.2-0.5,0.4-0.7,0.7s-0.3,0.7-0.3,1.1c0,0.4,0.1,0.8,0.3,1.1c0.2,0.3,0.4,0.6,0.7,0.7c0.3,0.2,0.6,0.3,1,0.3
					C246.4,205.5,246.7,205.4,247,205.2z"/>
				<path class="st1" d="M250.1,198.6h0.7v7.4h-0.7V198.6z"/>
			</g>
			<g>
				<rect x="206" y="198.8" class="st5" width="19.1" height="10.2"/>
				<path class="st1" d="M209.5,206c-0.5-0.2-0.8-0.4-1.1-0.7l0.3-0.6c0.3,0.3,0.6,0.5,1,0.6c0.4,0.2,0.9,0.2,1.3,0.2
					c0.6,0,1.1-0.1,1.4-0.3c0.3-0.2,0.5-0.5,0.5-0.9c0-0.3-0.1-0.5-0.3-0.7c-0.2-0.2-0.4-0.3-0.6-0.4c-0.2-0.1-0.6-0.2-1-0.3
					c-0.5-0.1-0.9-0.3-1.3-0.4c-0.3-0.1-0.6-0.3-0.8-0.6c-0.2-0.3-0.3-0.6-0.3-1c0-0.4,0.1-0.7,0.3-1s0.5-0.5,0.9-0.7
					c0.4-0.2,0.9-0.3,1.4-0.3c0.4,0,0.8,0.1,1.2,0.2c0.4,0.1,0.7,0.3,1,0.5l-0.3,0.6c-0.3-0.2-0.6-0.3-0.9-0.4s-0.7-0.1-1-0.1
					c-0.6,0-1.1,0.1-1.4,0.4c-0.3,0.2-0.5,0.5-0.5,0.9c0,0.3,0.1,0.5,0.3,0.7s0.4,0.3,0.6,0.4c0.3,0.1,0.6,0.2,1,0.3
					c0.5,0.1,0.9,0.3,1.2,0.4c0.3,0.1,0.6,0.3,0.8,0.6c0.2,0.3,0.3,0.6,0.3,1c0,0.4-0.1,0.7-0.3,1c-0.2,0.3-0.5,0.5-0.9,0.7
					c-0.4,0.2-0.9,0.3-1.5,0.3C210.5,206.2,210,206.2,209.5,206z"/>
				<path class="st1" d="M215.9,205.9c-0.4-0.2-0.7-0.5-1-1c-0.2-0.4-0.3-0.9-0.3-1.4c0-0.5,0.1-1,0.3-1.4c0.2-0.4,0.6-0.7,1-1
					c0.4-0.2,0.9-0.3,1.4-0.3s1,0.1,1.4,0.3s0.7,0.5,1,1c0.2,0.4,0.3,0.9,0.3,1.4c0,0.5-0.1,1-0.3,1.4c-0.2,0.4-0.5,0.7-1,1
					c-0.4,0.2-0.9,0.3-1.4,0.3S216.3,206.1,215.9,205.9z M218.2,205.3c0.3-0.2,0.5-0.4,0.7-0.7c0.2-0.3,0.3-0.7,0.3-1.1
					c0-0.4-0.1-0.8-0.3-1.1c-0.2-0.3-0.4-0.6-0.7-0.7c-0.3-0.2-0.6-0.3-1-0.3s-0.7,0.1-1,0.3c-0.3,0.2-0.5,0.4-0.7,0.7
					s-0.3,0.7-0.3,1.1c0,0.4,0.1,0.8,0.3,1.1c0.2,0.3,0.4,0.6,0.7,0.7s0.6,0.3,1,0.3S217.9,205.5,218.2,205.3z"/>
				<path class="st1" d="M221.3,198.8h0.7v7.4h-0.7V198.8z"/>
			</g>
			<g>
				<rect x="291.6" y="198.4" class="st5" width="24.7" height="10.2"/>
				<path class="st1" d="M306.3,198.9v7h-0.7v-5.6l-2.8,4.7h-0.3l-2.8-4.7v5.6H299v-7h0.6l3,5.2l3-5.2H306.3z"/>
				<path class="st1" d="M308.4,199.3c-0.1-0.1-0.2-0.2-0.2-0.4c0-0.1,0-0.3,0.2-0.3c0.1-0.1,0.2-0.2,0.4-0.2c0.1,0,0.3,0,0.4,0.1
					c0.1,0.1,0.1,0.2,0.1,0.3c0,0.1,0,0.3-0.1,0.4c-0.1,0.1-0.2,0.1-0.4,0.1C308.6,199.5,308.5,199.4,308.4,199.3z M308.4,200.6h0.7
					v5.3h-0.7V200.6z"/>
			</g>
			<g>
				<rect x="261.8" y="198.4" class="st5" width="19.1" height="10.2"/>
				<path class="st1" d="M267.2,199.5v2.8h3.6v0.6h-3.6v3h-0.7v-7h4.8v0.6H267.2z"/>
				<path class="st1" d="M275.8,201.1c0.4,0.3,0.5,0.9,0.5,1.5v3.3h-0.7V205c-0.2,0.3-0.4,0.5-0.7,0.6s-0.7,0.2-1.1,0.2
					c-0.6,0-1.1-0.1-1.4-0.4c-0.3-0.3-0.5-0.6-0.5-1.1c0-0.4,0.2-0.8,0.5-1.1c0.3-0.3,0.8-0.4,1.5-0.4h1.7v-0.3c0-0.5-0.1-0.8-0.4-1
					c-0.3-0.2-0.6-0.4-1.1-0.4c-0.3,0-0.7,0.1-1,0.2s-0.6,0.3-0.8,0.5l-0.3-0.5c0.3-0.2,0.6-0.4,1-0.5c0.4-0.1,0.8-0.2,1.2-0.2
					C274.9,200.6,275.5,200.7,275.8,201.1z M275,205.1c0.3-0.2,0.5-0.4,0.6-0.8v-0.9H274c-0.9,0-1.3,0.3-1.3,0.9
					c0,0.3,0.1,0.5,0.3,0.7c0.2,0.2,0.6,0.3,1,0.3C274.4,205.4,274.7,205.3,275,205.1z"/>
			</g>
			<g>
				<rect x="348.3" y="198.8" class="st5" width="24.7" height="10.2"/>
				<path class="st1" d="M359.9,206.2l-1.6-2.3c-0.2,0-0.4,0-0.6,0h-1.9v2.2h-0.7v-7h2.6c0.9,0,1.6,0.2,2.1,0.6s0.8,1,0.8,1.8
					c0,0.5-0.1,1-0.4,1.4c-0.3,0.4-0.7,0.6-1.2,0.8l1.7,2.4H359.9z M359.3,202.9c0.4-0.3,0.5-0.7,0.5-1.3c0-0.6-0.2-1-0.5-1.3
					c-0.4-0.3-0.9-0.5-1.6-0.5h-1.9v3.5h1.9C358.4,203.3,359,203.2,359.3,202.9z"/>
				<path class="st1" d="M366.8,203.8h-4.4c0,0.5,0.3,1,0.6,1.3s0.9,0.5,1.4,0.5c0.3,0,0.6-0.1,0.9-0.2c0.3-0.1,0.5-0.3,0.7-0.5
					l0.4,0.5c-0.2,0.3-0.5,0.5-0.9,0.6c-0.4,0.1-0.7,0.2-1.2,0.2c-0.5,0-1-0.1-1.4-0.3c-0.4-0.2-0.7-0.5-1-1
					c-0.2-0.4-0.3-0.9-0.3-1.4c0-0.5,0.1-1,0.3-1.4c0.2-0.4,0.5-0.7,0.9-1s0.8-0.3,1.3-0.3c0.5,0,0.9,0.1,1.3,0.3s0.7,0.5,0.9,0.9
					c0.2,0.4,0.3,0.9,0.3,1.4L366.8,203.8z M363,202c-0.3,0.3-0.5,0.7-0.6,1.3h3.7c0-0.5-0.2-0.9-0.6-1.3c-0.3-0.3-0.8-0.5-1.3-0.5
					C363.8,201.5,363.3,201.6,363,202z"/>
			</g>
			<g>
				<rect x="323.3" y="198.4" class="st5" width="19.1" height="10.2"/>
				<path class="st1" d="M335.1,198.9v7h-0.7v-5.6l-2.8,4.7h-0.3l-2.8-4.7v5.6h-0.7v-7h0.6l3,5.2l3-5.2H335.1z"/>
				<path class="st1" d="M337.3,199.3c-0.1-0.1-0.2-0.2-0.2-0.4c0-0.1,0-0.3,0.2-0.3c0.1-0.1,0.2-0.2,0.4-0.2c0.1,0,0.3,0,0.4,0.1
					c0.1,0.1,0.1,0.2,0.1,0.3c0,0.1,0,0.3-0.1,0.4c-0.1,0.1-0.2,0.1-0.4,0.1C337.5,199.5,337.4,199.4,337.3,199.3z M337.3,200.6h0.7
					v5.3h-0.7V200.6z"/>
			</g>
			<g>
				<rect x="380" y="198.8" class="st5" width="19.1" height="10.2"/>
				<path class="st1" d="M388.8,206.2l-1.6-2.3c-0.2,0-0.4,0-0.6,0h-1.9v2.2H384v-7h2.6c0.9,0,1.6,0.2,2.1,0.6s0.8,1,0.8,1.8
					c0,0.5-0.1,1-0.4,1.4c-0.3,0.4-0.7,0.6-1.2,0.8l1.7,2.4H388.8z M388.2,202.9c0.4-0.3,0.5-0.7,0.5-1.3c0-0.6-0.2-1-0.5-1.3
					c-0.4-0.3-0.9-0.5-1.6-0.5h-1.9v3.5h1.9C387.3,203.3,387.9,203.2,388.2,202.9z"/>
				<path class="st1" d="M395.7,203.8h-4.4c0,0.5,0.3,1,0.6,1.3s0.9,0.5,1.4,0.5c0.3,0,0.6-0.1,0.9-0.2c0.3-0.1,0.5-0.3,0.7-0.5
					l0.4,0.5c-0.2,0.3-0.5,0.5-0.9,0.6c-0.4,0.1-0.7,0.2-1.2,0.2c-0.5,0-1-0.1-1.4-0.3c-0.4-0.2-0.7-0.5-1-1
					c-0.2-0.4-0.3-0.9-0.3-1.4c0-0.5,0.1-1,0.3-1.4c0.2-0.4,0.5-0.7,0.9-1s0.8-0.3,1.3-0.3c0.5,0,0.9,0.1,1.3,0.3s0.7,0.5,0.9,0.9
					c0.2,0.4,0.3,0.9,0.3,1.4L395.7,203.8z M391.9,202c-0.3,0.3-0.5,0.7-0.6,1.3h3.7c0-0.5-0.2-0.9-0.6-1.3
					c-0.3-0.3-0.8-0.5-1.3-0.5C392.7,201.5,392.2,201.6,391.9,202z"/>
			</g>
			<g>
				<rect x="416" y="198.8" class="st5" width="19.1" height="10.2"/>
				<path class="st1" d="M419.4,199.2h2.9c0.7,0,1.4,0.1,2,0.4c0.6,0.3,1,0.7,1.3,1.2s0.5,1.1,0.5,1.8c0,0.7-0.2,1.3-0.5,1.8
					c-0.3,0.5-0.8,0.9-1.3,1.2c-0.6,0.3-1.2,0.4-2,0.4h-2.9V199.2z M422.2,205.5c0.6,0,1.1-0.1,1.6-0.4s0.8-0.6,1.1-1
					c0.3-0.4,0.4-0.9,0.4-1.5c0-0.6-0.1-1.1-0.4-1.5c-0.3-0.4-0.6-0.8-1.1-1s-1-0.4-1.6-0.4h-2.1v5.7H422.2z"/>
				<path class="st1" d="M428.3,205.9c-0.4-0.2-0.7-0.5-1-1c-0.2-0.4-0.3-0.9-0.3-1.4c0-0.5,0.1-1,0.3-1.4c0.2-0.4,0.6-0.7,1-1
					c0.4-0.2,0.9-0.3,1.4-0.3s1,0.1,1.4,0.3s0.7,0.5,1,1c0.2,0.4,0.3,0.9,0.3,1.4c0,0.5-0.1,1-0.3,1.4c-0.2,0.4-0.5,0.7-1,1
					c-0.4,0.2-0.9,0.3-1.4,0.3S428.7,206.1,428.3,205.9z M430.7,205.3c0.3-0.2,0.5-0.4,0.7-0.7c0.2-0.3,0.3-0.7,0.3-1.1
					c0-0.4-0.1-0.8-0.3-1.1c-0.2-0.3-0.4-0.6-0.7-0.7c-0.3-0.2-0.6-0.3-1-0.3s-0.7,0.1-1,0.3c-0.3,0.2-0.5,0.4-0.7,0.7
					s-0.3,0.7-0.3,1.1c0,0.4,0.1,0.8,0.3,1.1c0.2,0.3,0.4,0.6,0.7,0.7s0.6,0.3,1,0.3S430.4,205.5,430.7,205.3z"/>
			</g>
			<path class="st1" d="M132.6,202.5c-0.1-0.1-0.2-7.4-0.2-7.4c0-0.2,0.2-0.4,0.4-0.4c0.1,0,0.2,0.1,0.2,0.2c0,0.3-0.1,3.3-0.1,3.6
				c0,0.1,0.1,0.2,0.1,0.2c0,0,0,0,0.1,0c0.1,0,0.2-0.1,0.3-0.2c0.1-0.1,0.3-0.1,0.4-0.2c0.1,0,0.2,0,0.3,0c0.6,0,1.1,0.5,1.1,1.2
				c0,0.6-0.4,1.4-1.5,2.1c-0.3,0.2-0.6,0.6-1,0.8c0,0,0,0-0.1,0C132.7,202.5,132.7,202.5,132.6,202.5z M133.1,201.4
				c0,0.1,0,0.2,0.1,0.2c0,0,0.1,0,0.1,0c0.4-0.2,0.7-0.6,0.9-1c0.2-0.3,0.2-0.5,0.2-0.8c0-0.2-0.1-0.5-0.2-0.6
				c-0.1-0.1-0.2-0.1-0.3-0.1c-0.1,0-0.2,0-0.3,0.1c-0.2,0.1-0.5,0.4-0.6,0.5c0,0.1,0,0.2,0,0.4C133,200.6,133.1,201.4,133.1,201.4z
				"/>
			<path class="st1" d="M194.2,202.3c-0.1-0.1-0.2-7.4-0.2-7.4c0-0.2,0.2-0.4,0.4-0.4c0.1,0,0.2,0.1,0.2,0.2c0,0.3-0.1,3.3-0.1,3.6
				c0,0.1,0.1,0.2,0.1,0.2c0,0,0,0,0.1,0c0.1,0,0.2-0.1,0.3-0.2c0.1-0.1,0.3-0.1,0.4-0.2c0.1,0,0.2,0,0.3,0c0.6,0,1.1,0.5,1.1,1.2
				c0,0.6-0.4,1.4-1.5,2.1c-0.3,0.2-0.6,0.6-1,0.8c0,0,0,0-0.1,0S194.2,202.3,194.2,202.3z M194.6,201.1c0,0.1,0,0.2,0.1,0.2
				c0,0,0.1,0,0.1,0c0.4-0.2,0.7-0.6,0.9-1c0.2-0.3,0.2-0.5,0.2-0.8c0-0.2-0.1-0.5-0.2-0.6c-0.1-0.1-0.2-0.1-0.3-0.1
				c-0.1,0-0.2,0-0.3,0.1c-0.2,0.1-0.5,0.4-0.6,0.5c0,0.1,0,0.2,0,0.4C194.6,200.4,194.6,201.1,194.6,201.1z"/>
			<path class="st1" d="M252.4,200c-0.1-0.1-0.2-7.4-0.2-7.4c0-0.2,0.2-0.4,0.4-0.4c0.1,0,0.2,0.1,0.2,0.2c0,0.3-0.1,3.3-0.1,3.6
				c0,0.1,0.1,0.2,0.1,0.2c0,0,0,0,0.1,0c0.1,0,0.2-0.1,0.3-0.2c0.1-0.1,0.3-0.1,0.4-0.2c0.1,0,0.2,0,0.3,0c0.6,0,1.1,0.5,1.1,1.2
				c0,0.6-0.4,1.4-1.5,2.1c-0.3,0.2-0.6,0.6-1,0.8c0,0,0,0-0.1,0S252.4,200.1,252.4,200z M252.8,198.9c0,0.1,0,0.2,0.1,0.2
				c0,0,0.1,0,0.1,0c0.4-0.2,0.7-0.6,0.9-1c0.2-0.3,0.2-0.5,0.2-0.8c0-0.2-0.1-0.5-0.2-0.6c-0.1-0.1-0.2-0.1-0.3-0.1
				c-0.1,0-0.2,0-0.3,0.1c-0.2,0.1-0.5,0.4-0.6,0.5c0,0.1,0,0.2,0,0.4C252.8,198.1,252.8,198.9,252.8,198.9z"/>
			<path class="st1" d="M340.3,200.4c-0.1-0.1-0.2-7.4-0.2-7.4c0-0.2,0.2-0.4,0.4-0.4c0.1,0,0.2,0.1,0.2,0.2c0,0.3-0.1,3.3-0.1,3.6
				c0,0.1,0.1,0.2,0.1,0.2c0,0,0,0,0.1,0c0.1,0,0.2-0.1,0.3-0.2c0.1-0.1,0.3-0.1,0.4-0.2c0.1,0,0.2,0,0.3,0c0.6,0,1.1,0.5,1.1,1.2
				c0,0.6-0.4,1.4-1.5,2.1c-0.3,0.2-0.6,0.6-1,0.8c0,0,0,0-0.1,0C340.4,200.5,340.3,200.5,340.3,200.4z M340.7,199.3
				c0,0.1,0,0.2,0.1,0.2c0,0,0.1,0,0.1,0c0.4-0.2,0.7-0.6,0.9-1c0.2-0.3,0.2-0.5,0.2-0.8c0-0.2-0.1-0.5-0.2-0.6
				c-0.1-0.1-0.2-0.1-0.3-0.1c-0.1,0-0.2,0-0.3,0.1c-0.2,0.1-0.5,0.4-0.6,0.5c0,0.1,0,0.2,0,0.4
				C340.7,198.5,340.7,199.3,340.7,199.3z"/>
			<path class="st1" d="M396,200.8c-0.1-0.1-0.2-7.4-0.2-7.4c0-0.2,0.2-0.4,0.4-0.4c0.1,0,0.2,0.1,0.2,0.2c0,0.3-0.1,3.3-0.1,3.6
				c0,0.1,0.1,0.2,0.1,0.2c0,0,0,0,0.1,0c0.1,0,0.2-0.1,0.3-0.2c0.1-0.1,0.3-0.1,0.4-0.2c0.1,0,0.2,0,0.3,0c0.6,0,1.1,0.5,1.1,1.2
				c0,0.6-0.4,1.4-1.5,2.1c-0.3,0.2-0.6,0.6-1,0.8c0,0,0,0-0.1,0S396.1,200.9,396,200.8z M396.5,199.7c0,0.1,0,0.2,0.1,0.2
				c0,0,0.1,0,0.1,0c0.4-0.2,0.7-0.6,0.9-1c0.2-0.3,0.2-0.5,0.2-0.8c0-0.2-0.1-0.5-0.2-0.6c-0.1-0.1-0.2-0.1-0.3-0.1
				c-0.1,0-0.2,0-0.3,0.1c-0.2,0.1-0.5,0.4-0.6,0.5c0,0.1,0,0.2,0,0.4C396.4,198.9,396.5,199.7,396.5,199.7z"/>
		</g>
	</g>
</g>
<g>
</g>
<g>
</g>
<g>
</g>
<g>
</g>
<g>
</g>
<g>
</g>
</svg>
