<?xml version="1.0" encoding="utf-8"?>
<!-- Generator: Adobe Illustrator 23.0.0, SVG Export Plug-In . SVG Version: 6.00 Build 0)  -->
<svg version="1.1" id="Livello_1" xmlns="http://www.w3.org/2000/svg" xmlns:xlink="http://www.w3.org/1999/xlink" x="0px" y="0px"
	 viewBox="0 0 527 88.8" style="enable-background:new 0 0 527 88.8;" xml:space="preserve">
<style type="text/css">
	.st0{fill:none;stroke:#000000;stroke-width:0.6449;stroke-miterlimit:10;}
	.st1{fill:#010101;}
	.st2{fill:none;stroke:#000000;stroke-width:0.7937;stroke-miterlimit:10;}
	.st3{fill:none;stroke:#000000;stroke-width:0.5953;stroke-miterlimit:10;}
	.st4{fill:none;stroke:#000000;stroke-width:2.4803;stroke-miterlimit:10;}
</style>
<g>
	<line class="st0" x1="17.1" y1="16.6" x2="509.9" y2="16.6"/>
	<line class="st0" x1="17.1" y1="21.6" x2="509.9" y2="21.6"/>
	<line class="st0" x1="17.1" y1="26.5" x2="509.9" y2="26.5"/>
	<line class="st0" x1="17.1" y1="31.5" x2="509.9" y2="31.5"/>
	<line class="st0" x1="17.1" y1="36.5" x2="509.9" y2="36.5"/>
	<path class="st1" d="M27,23.3l0.5,2.9c0.1,0.4,0.1,0.4,0.6,0.4c2.9,0,4.8,2.2,4.8,4.8c0,2.2-1.3,3.9-3.3,4.7
		c-0.3,0.1-0.3,0.1-0.3,0.3c0.2,1.2,0.6,3.1,0.6,4.2c0,3.4-2.6,4-3.9,4c-3,0-3.8-1.9-3.8-3.2c0-1.2,0.8-2.3,2.1-2.3
		c1.2,0,1.9,0.9,1.9,2c0,1.2-0.7,1.7-1.3,1.9c-0.5,0.1-0.6,0.2-0.6,0.3c0,0.3,0.5,0.6,1.6,0.6c1.2,0,3.2-0.4,3.2-3.3
		c0-0.9-0.3-2.7-0.5-4c0-0.2-0.1-0.2-0.3-0.2c-0.4,0.1-0.9,0.1-1.4,0.1c-4.9,0-7.2-3.3-7.2-6.7c0-2.1,0.9-4,2.2-5.7
		c1-1.3,2.4-2.5,3.7-3.5c0.2-0.2,0.2-0.2,0.2-0.5c-0.1-0.8-0.3-2.1-0.3-3.3c0-2.1,0.5-4.5,1.9-6.2c0.4-0.4,1-1,1.3-1
		c0.2,0,0.7,0.6,1,1c0.8,1.2,1.3,2.9,1.3,4.6c0,2.2-1,4.6-2.7,6.4c-0.4,0.4-0.8,0.8-1.1,1.1C27,23,27,23,27,23.3z M26.7,26.3
		l-0.4-2.5c0-0.2-0.1-0.2-0.3-0.1c-0.9,0.8-1.8,1.5-3,2.8c-1.6,1.9-1.8,3.4-1.8,4.6c0,2.8,2.2,4.7,5.7,4.7c0.4,0,0.8,0,1.1-0.1
		c0.3-0.1,0.3-0.1,0.3-0.3l-1-5.9c0-0.2-0.1-0.2-0.4-0.2c-1.2,0.3-2,1.2-2,2.3c0,0.9,0.6,1.8,1.4,2.1c0.1,0.1,0.3,0.1,0.3,0.3
		c0,0.1-0.1,0.2-0.2,0.2c-0.1,0-0.4-0.1-0.5-0.1c-1.3-0.5-2.3-1.7-2.3-3.5c0-1.7,1.1-3.3,2.9-3.8C26.8,26.7,26.8,26.7,26.7,26.3z
		 M28.1,29.5l1,5.7c0,0.2,0.1,0.2,0.3,0.1c1.1-0.6,1.9-1.6,1.9-2.8c0-1.7-1.3-3.1-2.9-3.2C28.1,29.2,28.1,29.2,28.1,29.5z
		 M28.9,12.8c-1.2,0-2.6,1.9-2.6,5c0,0.6,0,1.3,0.1,1.8c0,0.3,0.1,0.3,0.3,0.2c0.5-0.4,0.9-0.9,1.3-1.2c1.5-1.5,2.2-2.8,2.2-4.2
		C30.1,13.3,29.6,12.8,28.9,12.8z"/>
	<path class="st1" d="M47.2,23h1.4c0.2,0,0.3,0.1,0.3,0.4s-0.1,0.4-0.3,0.4h-1.4V25c0,0.6,0.4,0.8,0.6,0.8s0.4,0.1,0.4,0.4
		c0,0.3-0.2,0.4-0.4,0.4h-4.2c-0.3,0-0.4-0.2-0.4-0.4s0.1-0.4,0.5-0.4c0.4,0,0.8-0.2,0.8-0.7v-1.3h-3.7c-0.2,0-0.4-0.1-0.4-0.3
		c0-0.1,0-0.1,0.1-0.2c0,0,0,0,0-0.1l0.1-0.2c0.6-0.8,2.5-3.6,2.5-6.1c0-0.3,0.3-0.4,0.5-0.4c0.2,0,1.1,0,1.4,0c0.4,0,1.2,0,1.3,0
		c0.2,0,0.3,0.1,0.3,0.3c0,0,0,0.1,0,0.1c-0.1,0.2-3.2,4.7-4.8,6.1h2.7v-1.7c0-0.2,0.1-0.4,0.2-0.5l1.9-2.3c0.1-0.1,0.2-0.2,0.4-0.2
		c0.2,0,0.2,0.2,0.2,0.3V23z"/>
	<path class="st1" d="M47.2,33h1.4c0.2,0,0.3,0.1,0.3,0.4s-0.1,0.4-0.3,0.4h-1.4v1.2c0,0.6,0.4,0.8,0.6,0.8s0.4,0.1,0.4,0.4
		c0,0.3-0.2,0.4-0.4,0.4h-4.2c-0.3,0-0.4-0.2-0.4-0.4s0.1-0.4,0.5-0.4c0.4,0,0.8-0.2,0.8-0.7v-1.3h-3.7c-0.2,0-0.4-0.1-0.4-0.3
		c0-0.1,0-0.1,0.1-0.2c0,0,0,0,0-0.1l0.1-0.2c0.6-0.8,2.5-3.6,2.5-6.1c0-0.3,0.3-0.4,0.5-0.4c0.2,0,1.1,0,1.4,0c0.4,0,1.2,0,1.3,0
		c0.2,0,0.3,0.1,0.3,0.3c0,0,0,0.1,0,0.1c-0.1,0.2-3.2,4.7-4.8,6.1h2.7v-1.7c0-0.2,0.1-0.4,0.2-0.5l1.9-2.3c0.1-0.1,0.2-0.2,0.4-0.2
		c0.2,0,0.2,0.2,0.2,0.3V33z"/>
	<line class="st2" x1="53.5" y1="51.4" x2="64.3" y2="51.4"/>
	<line class="st2" x1="53.5" y1="46.4" x2="64.3" y2="46.4"/>
	<line class="st2" x1="53.5" y1="41.4" x2="64.3" y2="41.4"/>
	<line class="st3" x1="61.6" y1="53" x2="61.6" y2="26.5"/>
	<path class="st1" d="M59.4,54.7c1.4-0.9,1.8-1.4,1.8-1.8c0-0.1-0.1-0.3-0.1-0.4c-0.1-0.2-0.4-0.4-0.7-0.4c-0.4,0-1,0.2-2,0.8
		c-1.4,0.8-1.8,1.3-1.8,1.8c0,0.1,0.1,0.3,0.1,0.4c0.1,0.2,0.4,0.5,0.8,0.5C57.9,55.6,58.5,55.3,59.4,54.7z M57.9,56.3
		c-1.1,0-1.9-0.6-1.9-1.6c0-1,0.9-3.3,3.9-3.3c1.2,0,2,0.6,2,1.6C61.9,53.7,61.2,56.3,57.9,56.3z"/>
	<line class="st2" x1="125.6" y1="46.4" x2="136.4" y2="46.4"/>
	<line class="st2" x1="125.6" y1="41.4" x2="136.4" y2="41.4"/>
	<line class="st3" x1="133.6" y1="45.6" x2="133.6" y2="26.5"/>
	<path class="st1" d="M131.5,47.3c1.4-0.9,1.8-1.4,1.8-1.8c0-0.1-0.1-0.3-0.1-0.4c-0.1-0.2-0.4-0.4-0.7-0.4c-0.4,0-1,0.2-2,0.8
		c-1.4,0.8-1.8,1.3-1.8,1.8c0,0.1,0.1,0.3,0.1,0.4c0.1,0.2,0.4,0.5,0.8,0.5C130,48.1,130.6,47.9,131.5,47.3z M130,48.9
		c-1.1,0-1.9-0.6-1.9-1.6c0-1,0.9-3.3,3.9-3.3c1.2,0,2,0.6,2,1.6C133.9,46.2,133.2,48.9,130,48.9z"/>
	<line class="st2" x1="200.5" y1="16.6" x2="200.5" y2="36.5"/>
	<line class="st3" x1="213.9" y1="38.1" x2="213.9" y2="21.6"/>
	<path class="st1" d="M211.7,39.9c1.4-0.9,1.8-1.4,1.8-1.8c0-0.1-0.1-0.3-0.1-0.4c-0.1-0.2-0.4-0.4-0.7-0.4c-0.4,0-1,0.2-2,0.8
		c-1.4,0.8-1.8,1.3-1.8,1.8c0,0.1,0.1,0.3,0.1,0.4c0.1,0.2,0.4,0.5,0.8,0.5C210.2,40.7,210.8,40.5,211.7,39.9z M210.2,41.4
		c-1.1,0-1.9-0.6-1.9-1.6c0-1,0.9-3.3,3.9-3.3c1.2,0,2,0.6,2,1.6C214.2,38.8,213.5,41.4,210.2,41.4z"/>
	<line class="st3" x1="285.9" y1="30.7" x2="285.9" y2="14.1"/>
	<path class="st1" d="M283.8,32.4c1.4-0.9,1.8-1.4,1.8-1.8c0-0.1-0.1-0.3-0.1-0.4c-0.1-0.2-0.4-0.4-0.7-0.4c-0.4,0-1,0.2-2,0.8
		c-1.4,0.8-1.8,1.3-1.8,1.8c0,0.1,0.1,0.3,0.1,0.4c0.1,0.2,0.4,0.5,0.8,0.5C282.3,33.2,282.9,33,283.8,32.4z M282.3,34
		c-1.1,0-1.9-0.6-1.9-1.6c0-1,0.9-3.3,3.9-3.3c1.2,0,2,0.6,2,1.6C286.2,31.3,285.5,34,282.3,34z"/>
	<line class="st2" x1="352.8" y1="16.6" x2="352.8" y2="36.5"/>
	<line class="st3" x1="360.9" y1="27.4" x2="360.9" y2="43.9"/>
	<path class="st1" d="M364,27.5c1.4-0.9,1.8-1.4,1.8-1.8c0-0.1-0.1-0.3-0.1-0.4c-0.1-0.2-0.4-0.4-0.7-0.4c-0.4,0-1,0.2-2,0.8
		c-1.4,0.8-1.8,1.3-1.8,1.8c0,0.1,0.1,0.3,0.1,0.4c0.1,0.2,0.4,0.5,0.8,0.5C362.5,28.3,363.1,28.1,364,27.5z M362.5,29
		c-1.1,0-1.9-0.6-1.9-1.6c0-1,0.9-3.3,3.9-3.3c1.2,0,2,0.6,2,1.6C366.4,26.4,365.8,29,362.5,29z"/>
	<line class="st3" x1="432.9" y1="19.9" x2="432.9" y2="36.5"/>
	<path class="st1" d="M436,20c1.4-0.9,1.8-1.4,1.8-1.8c0-0.1-0.1-0.3-0.1-0.4c-0.1-0.2-0.4-0.4-0.7-0.4c-0.4,0-1,0.2-2,0.8
		c-1.4,0.8-1.8,1.3-1.8,1.8c0,0.1,0.1,0.3,0.1,0.4c0.1,0.2,0.4,0.5,0.8,0.5C434.5,20.8,435.2,20.6,436,20z M434.5,21.6
		c-1.1,0-1.9-0.6-1.9-1.6c0-1,0.9-3.3,3.9-3.3c1.2,0,2,0.6,2,1.6C438.5,18.9,437.8,21.6,434.5,21.6z"/>
	<line class="st2" x1="505" y1="16.6" x2="505" y2="36.5"/>
	<line class="st4" x1="508.7" y1="16.6" x2="508.7" y2="36.5"/>
	<line class="st2" x1="17.1" y1="16.6" x2="17.1" y2="36.5"/>
	<g>
		<path d="M60.2,75.9l0-5L57.7,75h-0.9l-2.5-4v4.9h-1.8v-8.4h1.6l3.1,5.2l3.1-5.2H62l0,8.4H60.2z"/>
		<path d="M64,68.3c-0.2-0.2-0.3-0.4-0.3-0.7c0-0.3,0.1-0.5,0.3-0.7c0.2-0.2,0.5-0.3,0.8-0.3c0.3,0,0.6,0.1,0.8,0.3
			c0.2,0.2,0.3,0.4,0.3,0.7c0,0.3-0.1,0.6-0.3,0.8c-0.2,0.2-0.5,0.3-0.8,0.3C64.5,68.6,64.2,68.5,64,68.3z M63.9,69.5h1.9v6.5h-1.9
			V69.5z"/>
	</g>
	<g>
		<path d="M125.2,67.5h1.9v6.8h4.2v1.6h-6.2V67.5z"/>
		<path d="M137.3,70.1c0.5,0.5,0.8,1.2,0.8,2.2v3.7h-1.8v-0.8c-0.4,0.6-1,0.9-2,0.9c-0.5,0-0.9-0.1-1.3-0.3s-0.6-0.4-0.8-0.7
			s-0.3-0.6-0.3-1c0-0.6,0.2-1.1,0.7-1.4c0.5-0.3,1.1-0.5,2.1-0.5h1.5c0-0.4-0.1-0.7-0.4-0.9c-0.2-0.2-0.6-0.3-1.1-0.3
			c-0.3,0-0.7,0.1-1,0.2c-0.3,0.1-0.6,0.3-0.8,0.4l-0.7-1.3c0.4-0.2,0.8-0.4,1.3-0.6c0.5-0.1,1-0.2,1.5-0.2
			C136,69.4,136.8,69.6,137.3,70.1z M135.7,74.5c0.2-0.1,0.4-0.4,0.5-0.7v-0.7h-1.3c-0.8,0-1.2,0.3-1.2,0.8c0,0.2,0.1,0.4,0.3,0.6
			s0.4,0.2,0.8,0.2C135.2,74.8,135.4,74.7,135.7,74.5z"/>
	</g>
	<g>
		<path d="M210.4,75.9l-1.6-2.3h-0.1H207v2.3H205v-8.4h3.6c0.7,0,1.4,0.1,1.9,0.4c0.5,0.2,1,0.6,1.3,1.1s0.4,1,0.4,1.6
			s-0.1,1.2-0.4,1.6c-0.3,0.5-0.7,0.8-1.3,1l1.9,2.7H210.4z M209.9,69.5c-0.3-0.3-0.7-0.4-1.3-0.4H207V72h1.6c0.6,0,1-0.1,1.3-0.4
			c0.3-0.3,0.5-0.6,0.5-1.1C210.3,70.1,210.2,69.7,209.9,69.5z"/>
		<path d="M220,73.2h-4.9c0.1,0.4,0.3,0.7,0.6,0.9c0.3,0.2,0.7,0.3,1.2,0.3c0.3,0,0.6,0,0.9-0.1c0.3-0.1,0.5-0.3,0.7-0.5l1,1.1
			c-0.6,0.7-1.5,1-2.7,1c-0.7,0-1.4-0.1-1.9-0.4c-0.6-0.3-1-0.7-1.3-1.2s-0.5-1.1-0.5-1.7c0-0.6,0.2-1.2,0.5-1.7
			c0.3-0.5,0.7-0.9,1.2-1.2s1.1-0.4,1.8-0.4c0.6,0,1.2,0.1,1.7,0.4c0.5,0.3,0.9,0.7,1.2,1.2c0.3,0.5,0.4,1.1,0.4,1.8
			C220,72.7,220,72.9,220,73.2z M215.6,71.1c-0.3,0.2-0.5,0.6-0.5,1h3.2c-0.1-0.4-0.2-0.7-0.5-1s-0.6-0.4-1.1-0.4
			C216.2,70.8,215.9,70.9,215.6,71.1z"/>
	</g>
	<g>
		<path d="M275.6,75.8c-0.6-0.2-1.1-0.4-1.5-0.7l0.7-1.5c0.4,0.3,0.8,0.5,1.3,0.6s1,0.2,1.5,0.2c0.6,0,1-0.1,1.2-0.2
			c0.3-0.2,0.4-0.4,0.4-0.7c0-0.2-0.1-0.4-0.2-0.5c-0.2-0.1-0.4-0.2-0.6-0.3s-0.6-0.2-1-0.3c-0.6-0.2-1.2-0.3-1.6-0.5
			c-0.4-0.2-0.8-0.4-1-0.7c-0.3-0.3-0.4-0.8-0.4-1.3c0-0.5,0.1-0.9,0.4-1.3c0.3-0.4,0.7-0.7,1.2-0.9c0.5-0.2,1.2-0.3,2-0.3
			c0.5,0,1.1,0.1,1.6,0.2c0.5,0.1,1,0.3,1.3,0.6l-0.6,1.5c-0.8-0.4-1.6-0.7-2.3-0.7c-0.5,0-0.9,0.1-1.2,0.3s-0.4,0.4-0.4,0.7
			c0,0.3,0.2,0.5,0.5,0.6s0.8,0.3,1.4,0.4c0.6,0.2,1.2,0.3,1.6,0.5c0.4,0.2,0.8,0.4,1,0.7s0.4,0.8,0.4,1.3c0,0.5-0.1,0.9-0.4,1.3
			c-0.3,0.4-0.7,0.7-1.2,0.9c-0.5,0.2-1.2,0.3-2,0.3C276.9,76.1,276.2,76,275.6,75.8z"/>
		<path d="M283.5,75.6c-0.5-0.3-1-0.7-1.3-1.2s-0.5-1.1-0.5-1.7c0-0.6,0.2-1.2,0.5-1.7s0.7-0.9,1.3-1.2s1.1-0.4,1.8-0.4
			c0.7,0,1.3,0.1,1.8,0.4s1,0.7,1.3,1.2c0.3,0.5,0.5,1.1,0.5,1.7c0,0.6-0.2,1.2-0.5,1.7c-0.3,0.5-0.7,0.9-1.3,1.2S286,76,285.4,76
			C284.7,76,284.1,75.9,283.5,75.6z M286.5,74c0.3-0.3,0.5-0.8,0.5-1.3s-0.2-1-0.5-1.3c-0.3-0.3-0.7-0.5-1.2-0.5
			c-0.5,0-0.9,0.2-1.2,0.5c-0.3,0.3-0.5,0.8-0.5,1.3s0.2,1,0.5,1.3c0.3,0.3,0.7,0.5,1.2,0.5C285.8,74.5,286.2,74.3,286.5,74z"/>
		<path d="M290.2,67h1.9v8.9h-1.9V67z"/>
	</g>
	<g>
		<path d="M359.1,75.8c-0.6-0.2-1.1-0.4-1.5-0.7l0.7-1.5c0.4,0.3,0.8,0.5,1.3,0.6s1,0.2,1.5,0.2c0.6,0,1-0.1,1.2-0.2
			c0.3-0.2,0.4-0.4,0.4-0.7c0-0.2-0.1-0.4-0.2-0.5c-0.2-0.1-0.4-0.2-0.6-0.3s-0.6-0.2-1-0.3c-0.6-0.2-1.2-0.3-1.6-0.5
			c-0.4-0.2-0.8-0.4-1-0.7c-0.3-0.3-0.4-0.8-0.4-1.3c0-0.5,0.1-0.9,0.4-1.3c0.3-0.4,0.7-0.7,1.2-0.9c0.5-0.2,1.2-0.3,2-0.3
			c0.5,0,1.1,0.1,1.6,0.2c0.5,0.1,1,0.3,1.3,0.6l-0.6,1.5c-0.8-0.4-1.6-0.7-2.3-0.7c-0.5,0-0.9,0.1-1.2,0.3s-0.4,0.4-0.4,0.7
			c0,0.3,0.2,0.5,0.5,0.6s0.8,0.3,1.4,0.4c0.6,0.2,1.2,0.3,1.6,0.5c0.4,0.2,0.8,0.4,1,0.7s0.4,0.8,0.4,1.3c0,0.5-0.1,0.9-0.4,1.3
			c-0.3,0.4-0.7,0.7-1.2,0.9c-0.5,0.2-1.2,0.3-2,0.3C360.4,76.1,359.8,76,359.1,75.8z"/>
		<path d="M365.9,68.3c-0.2-0.2-0.3-0.4-0.3-0.7c0-0.3,0.1-0.5,0.3-0.7c0.2-0.2,0.5-0.3,0.8-0.3s0.6,0.1,0.8,0.3
			c0.2,0.2,0.3,0.4,0.3,0.7c0,0.3-0.1,0.6-0.3,0.8c-0.2,0.2-0.5,0.3-0.8,0.3S366.1,68.5,365.9,68.3z M365.8,69.5h1.9v6.5h-1.9V69.5z
			"/>
	</g>
	<g>
		<path d="M436.4,75.9l0-5L434,75h-0.9l-2.5-4v4.9h-1.8v-8.4h1.6l3.1,5.2l3.1-5.2h1.6l0,8.4H436.4z"/>
		<path d="M440.2,68.3c-0.2-0.2-0.3-0.4-0.3-0.7c0-0.3,0.1-0.5,0.3-0.7c0.2-0.2,0.5-0.3,0.8-0.3s0.6,0.1,0.8,0.3
			c0.2,0.2,0.3,0.4,0.3,0.7c0,0.3-0.1,0.6-0.3,0.8c-0.2,0.2-0.5,0.3-0.8,0.3S440.4,68.5,440.2,68.3z M440.1,69.5h1.9v6.5h-1.9V69.5z
			"/>
	</g>
</g>
<g>
</g>
<g>
</g>
<g>
</g>
<g>
</g>
<g>
</g>
<g>
</g>
</svg>
