<?xml version="1.0" encoding="utf-8"?>
<!-- Generator: Adobe Illustrator 23.0.0, SVG Export Plug-In . SVG Version: 6.00 Build 0)  -->
<svg version="1.1" id="Livello_1" xmlns="http://www.w3.org/2000/svg" xmlns:xlink="http://www.w3.org/1999/xlink" x="0px" y="0px"
	 viewBox="0 0 175.5 130.8" style="enable-background:new 0 0 175.5 130.8;" xml:space="preserve">
<style type="text/css">
	.st0{fill:#FFFFFF;stroke:#000000;}
	.st1{stroke:#000000;}
	.st2{enable-background:new    ;}
	.st3{fill:#E55100;}
	.st4{fill:#FFFFFF;}
</style>
<g id="Pianoforte">
	<rect x="7.2" y="5.4" class="st0" width="23" height="120"/>
	<rect x="30.2" y="5.4" class="st0" width="23" height="120"/>
	<rect x="53.2" y="5.4" class="st0" width="23" height="120"/>
	<rect x="76.2" y="5.4" class="st0" width="23" height="120"/>
	<rect x="99.2" y="5.4" class="st0" width="23" height="120"/>
	<rect x="122.2" y="5.4" class="st0" width="23" height="120"/>
	<rect x="145.2" y="5.4" class="st0" width="23" height="120"/>
	<rect x="21.5" y="5.4" class="st1" width="13" height="80"/>
	<rect x="48.9" y="5.4" class="st1" width="13" height="80"/>
	<rect x="89.5" y="5.4" class="st1" width="13" height="80"/>
	<rect x="115.5" y="5.4" class="st1" width="13" height="80"/>
	<rect x="142" y="5.4" class="st1" width="13" height="80"/>
</g>
<g id="Note">
	<g class="st2">
		<path class="st3" d="M11.3,102.9h3.4c0.9,0,1.7,0.2,2.4,0.5c0.7,0.4,1.2,0.9,1.6,1.5c0.4,0.6,0.6,1.4,0.6,2.2
			c0,0.8-0.2,1.5-0.6,2.2c-0.4,0.6-0.9,1.1-1.6,1.5s-1.5,0.5-2.4,0.5h-3.4V102.9z M14.7,110.5c0.7,0,1.4-0.1,1.9-0.4
			c0.6-0.3,1-0.7,1.3-1.2c0.3-0.5,0.5-1.1,0.5-1.8s-0.2-1.3-0.5-1.8c-0.3-0.5-0.7-0.9-1.3-1.2c-0.6-0.3-1.2-0.4-1.9-0.4h-2.5v6.9
			L14.7,110.5L14.7,110.5z"/>
		<path class="st3" d="M22,111c-0.5-0.3-0.9-0.7-1.2-1.1c-0.3-0.5-0.4-1-0.4-1.7c0-0.6,0.1-1.2,0.4-1.7s0.7-0.9,1.2-1.1
			c0.5-0.3,1-0.4,1.6-0.4s1.2,0.1,1.6,0.4c0.5,0.3,0.9,0.7,1.1,1.1c0.3,0.5,0.4,1,0.4,1.7c0,0.6-0.1,1.2-0.4,1.7s-0.7,0.9-1.1,1.1
			c-0.5,0.3-1,0.4-1.6,0.4S22.5,111.2,22,111z M24.9,110.3c0.4-0.2,0.6-0.5,0.8-0.9c0.2-0.4,0.3-0.8,0.3-1.3s-0.1-0.9-0.3-1.3
			c-0.2-0.4-0.5-0.7-0.8-0.9c-0.4-0.2-0.8-0.3-1.2-0.3c-0.4,0-0.9,0.1-1.2,0.3c-0.4,0.2-0.6,0.5-0.8,0.9c-0.2,0.4-0.3,0.8-0.3,1.3
			s0.1,0.9,0.3,1.3c0.2,0.4,0.5,0.7,0.8,0.9c0.3,0.2,0.8,0.3,1.2,0.3C24.1,110.6,24.5,110.5,24.9,110.3z"/>
	</g>
	<g class="st2">
		<path class="st3" d="M40.8,111.3l-1.9-2.7c-0.2,0-0.4,0-0.7,0h-2.3v2.7H35v-8.4h3.1c1.1,0,1.9,0.3,2.5,0.8
			c0.6,0.5,0.9,1.2,0.9,2.1c0,0.7-0.2,1.2-0.5,1.7s-0.8,0.8-1.4,1l2.1,2.9L40.8,111.3L40.8,111.3z M40.1,107.3
			c0.4-0.4,0.7-0.9,0.7-1.5c0-0.7-0.2-1.2-0.7-1.6s-1.1-0.5-1.9-0.5H36v4.2h2.2C39.1,107.9,39.7,107.7,40.1,107.3z"/>
		<path class="st3" d="M49.1,108.4h-5.3c0,0.7,0.3,1.2,0.8,1.6s1,0.6,1.7,0.6c0.4,0,0.8-0.1,1.1-0.2s0.6-0.3,0.9-0.6l0.5,0.6
			c-0.3,0.3-0.6,0.6-1,0.8s-0.9,0.3-1.4,0.3c-0.6,0-1.2-0.1-1.7-0.4s-0.9-0.7-1.2-1.1c-0.3-0.5-0.4-1-0.4-1.7c0-0.6,0.1-1.2,0.4-1.7
			c0.3-0.5,0.6-0.9,1.1-1.1c0.5-0.3,1-0.4,1.6-0.4s1.1,0.1,1.6,0.4s0.8,0.7,1.1,1.1c0.3,0.5,0.4,1,0.4,1.7L49.1,108.4z M44.5,106.3
			c-0.4,0.4-0.6,0.9-0.7,1.5h4.5c-0.1-0.6-0.3-1.1-0.7-1.5s-0.9-0.6-1.5-0.6C45.4,105.7,44.9,105.9,44.5,106.3z"/>
	</g>
	<g class="st2">
		<path class="st3" d="M67.4,102.9v8.4h-0.9v-6.7l-3.3,5.7h-0.4l-3.3-5.6v6.7h-0.9V103h0.7l3.6,6.2l3.6-6.2L67.4,102.9L67.4,102.9z"
			/>
		<path class="st3" d="M70,103.4c-0.1-0.1-0.2-0.3-0.2-0.4c0-0.2,0.1-0.3,0.2-0.4c0.1-0.1,0.3-0.2,0.4-0.2c0.2,0,0.3,0.1,0.4,0.2
			c0.1,0.1,0.2,0.3,0.2,0.4c0,0.2-0.1,0.3-0.2,0.4c-0.1,0.1-0.3,0.2-0.4,0.2C70.3,103.6,70.1,103.6,70,103.4z M70,105h0.9v6.3H70
			V105z"/>
	</g>
	<g class="st2">
		<path class="st3" d="M82.7,103.7v3.3H87v0.8h-4.3v3.6h-0.9V103h5.8v0.8h-4.9V103.7z"/>
		<path class="st3" d="M93.1,105.6c0.4,0.4,0.7,1,0.7,1.8v3.9H93v-1c-0.2,0.3-0.5,0.6-0.8,0.8c-0.4,0.2-0.8,0.3-1.3,0.3
			c-0.7,0-1.3-0.2-1.7-0.5c-0.4-0.3-0.6-0.8-0.6-1.3s0.2-1,0.6-1.3s1-0.5,1.9-0.5h2v-0.4c0-0.5-0.2-1-0.5-1.2
			c-0.3-0.3-0.7-0.4-1.3-0.4c-0.4,0-0.8,0.1-1.2,0.2c-0.4,0.1-0.7,0.3-0.9,0.5l-0.4-0.6c0.3-0.3,0.7-0.5,1.2-0.6
			c0.4-0.1,0.9-0.2,1.4-0.2C92.1,105,92.7,105.2,93.1,105.6z M92.2,110.4c0.3-0.2,0.6-0.5,0.8-1v-1h-2c-1.1,0-1.6,0.4-1.6,1.1
			c0,0.4,0.1,0.7,0.4,0.9c0.3,0.2,0.7,0.3,1.2,0.3C91.4,110.7,91.8,110.6,92.2,110.4z"/>
	</g>
	<g class="st2">
		<path class="st3" d="M103.5,111.1c-0.6-0.2-1-0.5-1.3-0.8l0.3-0.7c0.3,0.3,0.7,0.5,1.2,0.7s1,0.3,1.6,0.3c0.8,0,1.3-0.1,1.7-0.4
			c0.4-0.3,0.6-0.6,0.6-1.1c0-0.3-0.1-0.6-0.3-0.8c-0.2-0.2-0.5-0.4-0.8-0.5s-0.7-0.2-1.2-0.4c-0.6-0.2-1.1-0.3-1.5-0.5
			c-0.4-0.1-0.7-0.4-1-0.7c-0.3-0.3-0.4-0.7-0.4-1.2c0-0.4,0.1-0.8,0.3-1.2c0.2-0.3,0.6-0.6,1-0.8c0.5-0.2,1-0.3,1.7-0.3
			c0.5,0,1,0.1,1.4,0.2c0.5,0.1,0.9,0.3,1.2,0.5l-0.3,0.7c-0.4-0.2-0.7-0.4-1.1-0.5s-0.8-0.2-1.2-0.2c-0.7,0-1.3,0.1-1.7,0.4
			s-0.6,0.7-0.6,1.1c0,0.3,0.1,0.6,0.3,0.8s0.5,0.4,0.8,0.5s0.7,0.2,1.2,0.4c0.6,0.2,1.1,0.3,1.5,0.4s0.7,0.4,1,0.7
			c0.3,0.3,0.4,0.7,0.4,1.2c0,0.4-0.1,0.8-0.3,1.2c-0.2,0.3-0.6,0.6-1.1,0.8c-0.5,0.2-1.1,0.3-1.7,0.3
			C104.7,111.4,104.1,111.3,103.5,111.1z"/>
		<path class="st3" d="M111.1,111c-0.5-0.3-0.9-0.7-1.2-1.1c-0.3-0.5-0.4-1-0.4-1.7c0-0.6,0.1-1.2,0.4-1.7s0.7-0.9,1.2-1.1
			c0.5-0.3,1-0.4,1.6-0.4s1.2,0.1,1.6,0.4c0.5,0.3,0.9,0.7,1.1,1.1c0.3,0.5,0.4,1,0.4,1.7c0,0.6-0.1,1.2-0.4,1.7s-0.7,0.9-1.1,1.1
			c-0.5,0.3-1,0.4-1.6,0.4C112.2,111.4,111.6,111.2,111.1,111z M114,110.3c0.4-0.2,0.6-0.5,0.8-0.9c0.2-0.4,0.3-0.8,0.3-1.3
			s-0.1-0.9-0.3-1.3c-0.2-0.4-0.5-0.7-0.8-0.9c-0.4-0.2-0.8-0.3-1.2-0.3c-0.4,0-0.9,0.1-1.2,0.3c-0.4,0.2-0.6,0.5-0.8,0.9
			c-0.2,0.4-0.3,0.8-0.3,1.3s0.1,0.9,0.3,1.3c0.2,0.4,0.5,0.7,0.8,0.9c0.4,0.2,0.8,0.3,1.2,0.3C113.2,110.6,113.6,110.5,114,110.3z"
			/>
		<path class="st3" d="M117.7,102.4h0.9v8.9h-0.9V102.4z"/>
	</g>
	<g class="st2">
		<path class="st3" d="M128,102.9h0.9v7.6h4.7v0.8H128V102.9z"/>
		<path class="st3" d="M139,105.6c0.4,0.4,0.7,1,0.7,1.8v3.9h-0.8v-1c-0.2,0.3-0.5,0.6-0.8,0.8c-0.4,0.2-0.8,0.3-1.3,0.3
			c-0.7,0-1.3-0.2-1.7-0.5s-0.6-0.8-0.6-1.3s0.2-1,0.6-1.3s1-0.5,1.9-0.5h2v-0.4c0-0.5-0.2-1-0.5-1.2c-0.3-0.3-0.7-0.4-1.3-0.4
			c-0.4,0-0.8,0.1-1.2,0.2s-0.7,0.3-0.9,0.5l-0.4-0.6c0.3-0.3,0.7-0.5,1.2-0.6c0.4-0.1,0.9-0.2,1.4-0.2
			C137.9,105,138.6,105.2,139,105.6z M138,110.4c0.3-0.2,0.6-0.5,0.8-1v-1h-2c-1.1,0-1.6,0.4-1.6,1.1c0,0.4,0.1,0.7,0.4,0.9
			s0.7,0.3,1.2,0.3C137.3,110.7,137.7,110.6,138,110.4z"/>
	</g>
	<g class="st2">
		<path class="st3" d="M153.3,111.1c-0.6-0.2-1-0.5-1.3-0.8l0.3-0.7c0.3,0.3,0.7,0.5,1.2,0.7s1,0.3,1.6,0.3c0.8,0,1.3-0.1,1.7-0.4
			s0.6-0.6,0.6-1.1c0-0.3-0.1-0.6-0.3-0.8c-0.2-0.2-0.5-0.4-0.8-0.5s-0.7-0.2-1.2-0.4c-0.6-0.2-1.1-0.3-1.5-0.5
			c-0.4-0.1-0.7-0.4-1-0.7c-0.3-0.3-0.4-0.7-0.4-1.2c0-0.4,0.1-0.8,0.3-1.2c0.2-0.3,0.6-0.6,1-0.8c0.5-0.2,1-0.3,1.7-0.3
			c0.5,0,1,0.1,1.4,0.2c0.5,0.1,0.9,0.3,1.2,0.5l-0.3,0.7c-0.4-0.2-0.7-0.4-1.1-0.5c-0.4-0.1-0.8-0.2-1.2-0.2
			c-0.7,0-1.3,0.1-1.7,0.4s-0.6,0.7-0.6,1.1c0,0.3,0.1,0.6,0.3,0.8c0.2,0.2,0.5,0.4,0.8,0.5s0.7,0.2,1.2,0.4
			c0.6,0.2,1.1,0.3,1.5,0.4s0.7,0.4,1,0.7c0.3,0.3,0.4,0.7,0.4,1.2c0,0.4-0.1,0.8-0.3,1.2c-0.2,0.3-0.6,0.6-1.1,0.8
			c-0.5,0.2-1.1,0.3-1.7,0.3C154.5,111.4,153.9,111.3,153.3,111.1z"/>
		<path class="st3" d="M160,103.4c-0.1-0.1-0.2-0.3-0.2-0.4c0-0.2,0.1-0.3,0.2-0.4c0.1-0.1,0.3-0.2,0.4-0.2s0.3,0.1,0.4,0.2
			c0.1,0.1,0.2,0.3,0.2,0.4c0,0.2-0.1,0.3-0.2,0.4s-0.3,0.2-0.4,0.2S160.1,103.6,160,103.4z M160,105h0.9v6.3H160V105z"/>
	</g>
</g>
<g id="Note_tasti_neri">
	<g class="st2">
		<path class="st4" d="M22.2,70.5h1.7c0.4,0,0.8,0.1,1.2,0.3c0.3,0.2,0.6,0.4,0.8,0.7c0.2,0.3,0.3,0.7,0.3,1.1s-0.1,0.8-0.3,1.1
			c-0.2,0.3-0.5,0.6-0.8,0.7c-0.3,0.2-0.7,0.3-1.2,0.3h-1.7V70.5z M23.9,74.3c0.4,0,0.7-0.1,1-0.2s0.5-0.3,0.6-0.6s0.2-0.6,0.2-0.9
			s-0.1-0.6-0.2-0.9s-0.4-0.5-0.6-0.6c-0.3-0.1-0.6-0.2-1-0.2h-1.2v3.4C22.7,74.3,23.9,74.3,23.9,74.3z"/>
		<path class="st4" d="M27.6,74.5c-0.2-0.1-0.4-0.3-0.6-0.6s-0.2-0.5-0.2-0.8s0.1-0.6,0.2-0.8s0.3-0.4,0.6-0.6
			c0.2-0.1,0.5-0.2,0.8-0.2s0.6,0.1,0.8,0.2c0.2,0.1,0.4,0.3,0.6,0.6c0.1,0.2,0.2,0.5,0.2,0.8s-0.1,0.6-0.2,0.8
			c-0.1,0.2-0.3,0.4-0.6,0.6c-0.2,0.1-0.5,0.2-0.8,0.2C28.1,74.7,27.8,74.6,27.6,74.5z M29,74.2c0.2-0.1,0.3-0.2,0.4-0.4
			c0.1-0.2,0.2-0.4,0.2-0.6s-0.1-0.5-0.2-0.6c-0.1-0.2-0.2-0.3-0.4-0.4c-0.2-0.1-0.4-0.2-0.6-0.2s-0.4,0.1-0.6,0.2s-0.3,0.2-0.4,0.4
			c-0.2,0-0.2,0.2-0.2,0.5s0.1,0.5,0.2,0.6s0.2,0.3,0.4,0.4c0.2,0.1,0.4,0.2,0.6,0.2C28.6,74.3,28.8,74.3,29,74.2z"/>
		<path class="st4" d="M33.4,71.9l-0.2,1.3h0.9v0.3h-0.9l-0.1,1.1h-0.3l0.1-1.1h-1.2l-0.1,1.1h-0.3l0.1-1.1h-0.9v-0.3h0.9l0.2-1.3
			h-0.9v-0.3h0.9l0.1-1.1H32l-0.1,1.1h1.2l0.1-1.1h0.3l-0.1,1.1h0.8v0.3H33.4z M33,71.9h-1.2l-0.2,1.3h1.2L33,71.9z"/>
	</g>
	<g class="st2">
		<path class="st4" d="M52.8,74.7l-1-1.3c-0.1,0-0.2,0-0.3,0h-1.1v1.3H50v-4.2h1.6c0.5,0,1,0.1,1.3,0.4s0.5,0.6,0.5,1.1
			c0,0.3-0.1,0.6-0.2,0.8c-0.2,0.2-0.4,0.4-0.7,0.5l1,1.4C53.5,74.7,52.8,74.7,52.8,74.7z M52.5,72.7c0.2-0.2,0.3-0.4,0.3-0.8
			c0-0.3-0.1-0.6-0.3-0.8c-0.2-0.2-0.5-0.3-1-0.3h-1.1v2.1h1.1C52,73,52.3,72.9,52.5,72.7z"/>
		<path class="st4" d="M57,73.2h-2.6c0,0.3,0.1,0.6,0.4,0.8c0.2,0.2,0.5,0.3,0.9,0.3c0.2,0,0.4,0,0.5-0.1c0.2-0.1,0.3-0.2,0.4-0.3
			l0.2,0.3c-0.1,0.2-0.3,0.3-0.5,0.4s-0.4,0.1-0.7,0.1s-0.6-0.1-0.9-0.2c-0.3-0.1-0.4-0.3-0.6-0.6s-0.2-0.5-0.2-0.8s0.1-0.6,0.2-0.8
			c0.1-0.2,0.3-0.4,0.6-0.6c0.2-0.1,0.5-0.2,0.8-0.2s0.6,0.1,0.8,0.2s0.4,0.3,0.5,0.6C56.9,72.5,57,72.8,57,73.2L57,73.2z
			 M54.7,72.1c-0.2,0.2-0.3,0.4-0.4,0.8h2.2c0-0.3-0.1-0.6-0.4-0.8c-0.2-0.2-0.5-0.3-0.8-0.3C55.1,71.8,54.9,71.9,54.7,72.1z"/>
		<path class="st4" d="M60.4,71.9l-0.2,1.3h0.9v0.3h-0.9l-0.1,1.1h-0.3l0.1-1.1h-1.2l-0.1,1.1h-0.3l0.1-1.1h-0.9v-0.3h0.9l0.2-1.3
			h-0.9v-0.3h0.9l0.1-1.1H59l-0.1,1.1h1.2l0.1-1.1h0.3l-0.1,1.1h0.8v0.3H60.4z M60,71.9h-1.2l-0.2,1.3h1.2L60,71.9z"/>
	</g>
	<g class="st2">
		<path class="st4" d="M91.4,70.8v1.7h2.2v0.4h-2.2v1.8H91v-4.2h2.9v0.4h-2.5V70.8z"/>
		<path class="st4" d="M96.6,71.8c0.2,0.2,0.3,0.5,0.3,0.9v2h-0.4v-0.5c-0.1,0.2-0.2,0.3-0.4,0.4c-0.2,0.1-0.4,0.1-0.7,0.1
			c-0.4,0-0.6-0.1-0.8-0.3s-0.3-0.4-0.3-0.7c0-0.3,0.1-0.5,0.3-0.6s0.5-0.2,0.9-0.2h1v-0.2c0-0.3-0.1-0.5-0.2-0.6
			c-0.2-0.1-0.4-0.2-0.7-0.2c-0.2,0-0.4,0-0.6,0.1s-0.3,0.2-0.5,0.3L94.3,72c0.2-0.1,0.4-0.2,0.6-0.3c0.2-0.1,0.5-0.1,0.7-0.1
			C96,71.5,96.4,71.6,96.6,71.8z M96.1,74.2c0.2-0.1,0.3-0.3,0.4-0.5v-0.5h-1c-0.5,0-0.8,0.2-0.8,0.6c0,0.2,0.1,0.3,0.2,0.4
			s0.3,0.2,0.6,0.2C95.7,74.4,95.9,74.3,96.1,74.2z"/>
		<path class="st4" d="M100.6,71.9l-0.2,1.3h0.9v0.3h-0.9l-0.2,1.2h-0.3l0.1-1.1h-1.2l-0.1,1.1h-0.3l0.1-1.1h-0.9v-0.3h0.9l0.2-1.3
			h-0.9v-0.3h0.9l0.1-1.1h0.4l-0.1,1.1h1.2l0.1-1.1h0.3l-0.1,1.1h0.8V72L100.6,71.9L100.6,71.9z M100.3,71.9h-1.2l-0.2,1.3h1.2
			L100.3,71.9z"/>
	</g>
	<g class="st2">
		<path class="st4" d="M116.3,74.5c-0.3-0.1-0.5-0.2-0.7-0.4l0.2-0.3c0.2,0.2,0.4,0.3,0.6,0.4c0.3,0.1,0.5,0.1,0.8,0.1
			c0.4,0,0.7-0.1,0.8-0.2c0.2-0.1,0.3-0.3,0.3-0.5s-0.1-0.3-0.2-0.4s-0.2-0.2-0.4-0.2c-0.1-0.1-0.4-0.1-0.6-0.2
			c-0.3-0.1-0.6-0.2-0.8-0.2c-0.2-0.1-0.3-0.2-0.5-0.3s-0.2-0.4-0.2-0.6s0.1-0.4,0.2-0.6s0.3-0.3,0.5-0.4s0.5-0.2,0.9-0.2
			c0.2,0,0.5,0,0.7,0.1s0.4,0.2,0.6,0.3l-0.2,0.4c-0.2-0.1-0.4-0.2-0.6-0.3c-0.2-0.1-0.4-0.1-0.6-0.1c-0.4,0-0.6,0.1-0.8,0.2
			c-0.2,0.1-0.3,0.3-0.3,0.5s0.1,0.3,0.2,0.4s0.2,0.2,0.4,0.2c0.2,0.1,0.4,0.1,0.6,0.2c0.3,0.1,0.6,0.2,0.7,0.2
			c0.2,0.1,0.4,0.2,0.5,0.3c0.1,0.1,0.2,0.4,0.2,0.6s-0.1,0.4-0.2,0.6s-0.3,0.3-0.5,0.4s-0.5,0.2-0.9,0.2
			C116.9,74.7,116.6,74.6,116.3,74.5z"/>
		<path class="st4" d="M120.1,74.5c-0.2-0.1-0.4-0.3-0.6-0.6c-0.1-0.2-0.2-0.5-0.2-0.8s0.1-0.6,0.2-0.8c0.1-0.2,0.3-0.4,0.6-0.6
			c0.2-0.1,0.5-0.2,0.8-0.2s0.6,0.1,0.8,0.2c0.2,0.1,0.4,0.3,0.6,0.6c0.1,0.2,0.2,0.5,0.2,0.8s-0.1,0.6-0.2,0.8
			c-0.1,0.2-0.3,0.4-0.6,0.6c-0.2,0.1-0.5,0.2-0.8,0.2S120.3,74.6,120.1,74.5z M121.5,74.2c0.2-0.1,0.3-0.2,0.4-0.4
			c0.1-0.2,0.2-0.4,0.2-0.6s0-0.5-0.2-0.6c-0.1-0.2-0.2-0.3-0.4-0.4c-0.2-0.1-0.4-0.2-0.6-0.2s-0.4,0.1-0.6,0.2s-0.3,0.2-0.4,0.4
			c-0.1,0.2-0.2,0.4-0.2,0.6s0.1,0.5,0.2,0.6c0.1,0.2,0.2,0.3,0.4,0.4c0.2,0.1,0.4,0.2,0.6,0.2S121.3,74.3,121.5,74.2z"/>
		<path class="st4" d="M123.4,70.2h0.4v4.5h-0.4V70.2z"/>
		<path class="st4" d="M127.5,71.9l-0.2,1.3h0.9v0.3h-0.9l-0.1,1.1h-0.3l0.1-1.1h-1.2l-0.1,1.1h-0.3l0.1-1.1h-0.9v-0.3h0.9l0.2-1.3
			h-0.9v-0.3h0.9l0.1-1.1h0.3l-0.1,1.1h1.2l0.1-1.1h0.3l-0.1,1.1h0.8v0.3H127.5z M127.2,71.9H126l-0.2,1.3h1.2L127.2,71.9z"/>
	</g>
	<g class="st2">
		<path class="st4" d="M143.5,70.5h0.4v3.8h2.4v0.4h-2.8L143.5,70.5L143.5,70.5z"/>
		<path class="st4" d="M149,71.8c0.2,0.2,0.3,0.5,0.3,0.9v2h-0.4v-0.5c-0.1,0.2-0.2,0.3-0.4,0.4s-0.4,0.1-0.7,0.1
			c-0.4,0-0.6-0.1-0.8-0.3s-0.3-0.4-0.3-0.7c0-0.3,0.1-0.5,0.3-0.6c0.2-0.2,0.5-0.2,0.9-0.2h1v-0.2c0-0.3-0.1-0.5-0.2-0.6
			c-0.2-0.1-0.4-0.2-0.7-0.2c-0.2,0-0.4,0-0.6,0.1c-0.2,0.1-0.3,0.2-0.5,0.3l-0.2-0.3c0.2-0.1,0.4-0.2,0.6-0.3
			c0.2-0.1,0.5-0.1,0.7-0.1C148.5,71.5,148.8,71.6,149,71.8z M148.5,74.2c0.2-0.1,0.3-0.3,0.4-0.5v-0.5h-1c-0.5,0-0.8,0.2-0.8,0.6
			c0,0.2,0.1,0.3,0.2,0.4c0.1,0.1,0.3,0.2,0.6,0.2S148.4,74.3,148.5,74.2z"/>
		<path class="st4" d="M153,71.9l-0.2,1.3h0.9v0.3h-0.9l-0.1,1.1h-0.3l0.1-1.1h-1.2l-0.1,1.1h-0.3l0.1-1.1h-0.9v-0.3h0.9l0.2-1.3
			h-0.9v-0.3h0.9l0.1-1.1h0.3l-0.1,1.1h1.2l0.1-1.1h0.3l-0.1,1.1h0.8v0.3H153z M152.7,71.9h-1.2l-0.2,1.3h1.2L152.7,71.9z"/>
	</g>
</g>
</svg>
