<?xml version="1.0" encoding="utf-8"?>
<!-- Generator: Adobe Illustrator 23.0.1, SVG Export Plug-In . SVG Version: 6.00 Build 0)  -->
<svg version="1.1" xmlns="http://www.w3.org/2000/svg" xmlns:xlink="http://www.w3.org/1999/xlink" x="0px" y="0px"
	 viewBox="0 0 659 95.1" style="enable-background:new 0 0 659 95.1;" xml:space="preserve">
<style type="text/css">
	.st0{fill:none;stroke:#000000;stroke-width:0.6449;stroke-miterlimit:10;}
	.st1{fill:none;stroke:#000000;stroke-width:0.7937;stroke-miterlimit:10;}
	.st2{fill:none;stroke:#000000;stroke-width:0.5953;stroke-miterlimit:10;}
	.st3{fill:none;stroke:#000000;stroke-width:2.4803;stroke-miterlimit:10;}
	.st4{fill:none;stroke:#000000;stroke-width:0.25;stroke-miterlimit:10;}
	.st5{fill:none;stroke:#000000;stroke-width:0.5;stroke-linecap:round;stroke-linejoin:round;}
	.st6{fill:none;stroke:#000000;stroke-width:0.5;stroke-linecap:round;stroke-linejoin:round;stroke-dasharray:0,0.812;}
	
		.st7{fill:none;stroke:#000000;stroke-width:0.5;stroke-linecap:round;stroke-linejoin:round;stroke-miterlimit:10;stroke-dasharray:0,0.8;}
	.st8{display:none;}
</style>
<g id="Livello_1">
	<line class="st0" x1="63.1" y1="40.5" x2="555.9" y2="40.5"/>
	<line class="st0" x1="63.1" y1="45.5" x2="555.9" y2="45.5"/>
	<line class="st0" x1="63.1" y1="50.4" x2="555.9" y2="50.4"/>
	<line class="st0" x1="63.1" y1="55.4" x2="555.9" y2="55.4"/>
	<line class="st0" x1="63.1" y1="60.4" x2="555.9" y2="60.4"/>
	<path d="M73.1,47.2l0.5,2.9c0.1,0.4,0.1,0.4,0.6,0.4c2.9,0,4.8,2.2,4.8,4.8c0,2.2-1.3,3.9-3.3,4.7c-0.3,0.1-0.3,0.1-0.3,0.3
		c0.2,1.2,0.6,3.1,0.6,4.2c0,3.4-2.6,4-3.9,4c-3,0-3.8-1.9-3.8-3.2c0-1.2,0.8-2.3,2.1-2.3c1.2,0,1.9,0.9,1.9,2
		c0,1.2-0.7,1.7-1.3,1.9c-0.5,0.1-0.6,0.2-0.6,0.3c0,0.3,0.5,0.6,1.6,0.6c1.2,0,3.2-0.4,3.2-3.3c0-0.9-0.3-2.7-0.5-4
		c0-0.2-0.1-0.2-0.3-0.2c-0.4,0.1-0.9,0.1-1.4,0.1c-4.9,0-7.2-3.3-7.2-6.7c0-2.1,0.9-4,2.2-5.7c1-1.3,2.4-2.5,3.7-3.5
		c0.2-0.2,0.2-0.2,0.2-0.5c-0.1-0.8-0.3-2.1-0.3-3.3c0-2.1,0.5-4.5,1.9-6.2c0.4-0.4,1-1,1.3-1c0.2,0,0.7,0.6,1,1
		c0.8,1.2,1.3,2.9,1.3,4.6c0,2.2-1,4.6-2.7,6.4c-0.4,0.4-0.8,0.8-1.1,1.1C73.1,46.9,73,46.9,73.1,47.2z M72.8,50.2l-0.4-2.5
		c0-0.2-0.1-0.2-0.3-0.1c-0.9,0.8-1.8,1.5-3,2.8c-1.6,1.9-1.8,3.4-1.8,4.6c0,2.8,2.2,4.7,5.7,4.7c0.4,0,0.8,0,1.1-0.1
		c0.3-0.1,0.3-0.1,0.3-0.3l-1-5.9c0-0.2-0.1-0.2-0.4-0.2c-1.2,0.3-2,1.2-2,2.3c0,0.9,0.6,1.8,1.4,2.1c0.1,0.1,0.3,0.1,0.3,0.3
		c0,0.1-0.1,0.2-0.2,0.2c-0.1,0-0.4-0.1-0.5-0.1c-1.3-0.5-2.3-1.7-2.3-3.5c0-1.7,1.1-3.3,2.9-3.8C72.8,50.6,72.8,50.6,72.8,50.2z
		 M74.1,53.4l1,5.7c0,0.2,0.1,0.2,0.3,0.1c1.1-0.6,1.9-1.6,1.9-2.8c0-1.7-1.3-3.1-2.9-3.2C74.1,53.1,74.1,53.1,74.1,53.4z
		 M74.9,36.7c-1.2,0-2.6,1.9-2.6,5c0,0.6,0,1.3,0.1,1.8c0,0.3,0.1,0.3,0.3,0.2c0.5-0.4,0.9-0.9,1.3-1.2c1.5-1.5,2.2-2.8,2.2-4.2
		C76.1,37.2,75.6,36.7,74.9,36.7z"/>
	<path d="M90.7,45.5c0.4,0,3.4,0.2,3.4,2.8c0,1.6-1.5,1.7-1.5,1.7C92,50,91,49.6,91,48.5c0-0.6,0.5-1.5,1.3-1.5
		c0.3,0,0.4-0.3,0.4-0.4c0-0.2-0.4-0.7-1.4-0.7c-1.1,0-2.6,0.7-2.6,3.9c0,3.3,0.9,4.8,2.5,4.8c0.6,0,2.8-0.6,2.8-3.2
		c0-0.3,0.1-0.4,0.3-0.4c0.1,0,0.3,0,0.3,0.4c0,0.6-0.5,3.7-4,3.7c-1.2,0-2.3-0.4-3-1.3c-0.7-0.8-1.2-1.8-1.3-2.9c0-0.2,0-0.4,0-0.5
		c0-1.9,0.9-4,2.7-4.8C89.4,45.6,90.1,45.5,90.7,45.5z"/>
	<line class="st1" x1="99.3" y1="70.3" x2="110.1" y2="70.3"/>
	<line class="st1" x1="99.3" y1="65.3" x2="110.1" y2="65.3"/>
	<line class="st2" x1="107.4" y1="71.9" x2="107.4" y2="50.4"/>
	<path d="M103.7,75.2c-1.1,0-1.9-0.6-1.9-1.6c0-1.7,1.7-3.3,3.9-3.3c1.1,0,1.9,0.6,1.9,1.6C107.7,73.6,105.5,75.2,103.7,75.2z"/>
	<line class="st1" x1="126.1" y1="70.3" x2="136.9" y2="70.3"/>
	<line class="st1" x1="126.1" y1="65.3" x2="136.9" y2="65.3"/>
	<line class="st2" x1="134.2" y1="71.9" x2="134.2" y2="50.4"/>
	<path d="M130.5,75.2c-1.1,0-1.9-0.6-1.9-1.6c0-1.7,1.7-3.3,3.9-3.3c1.1,0,1.9,0.6,1.9,1.6C134.5,73.6,132.3,75.2,130.5,75.2z"/>
	<line class="st1" x1="152.9" y1="70.3" x2="163.7" y2="70.3"/>
	<line class="st1" x1="152.9" y1="65.3" x2="163.7" y2="65.3"/>
	<line class="st2" x1="160.9" y1="69.4" x2="160.9" y2="50.4"/>
	<path d="M157.3,72.8c-1.1,0-1.9-0.6-1.9-1.6c0-1.7,1.7-3.3,3.9-3.3c1.1,0,1.9,0.6,1.9,1.6C161.2,71.1,159.1,72.8,157.3,72.8z"/>
	<line class="st1" x1="179.7" y1="70.3" x2="190.5" y2="70.3"/>
	<line class="st1" x1="179.7" y1="65.3" x2="190.5" y2="65.3"/>
	<line class="st2" x1="187.7" y1="69.4" x2="187.7" y2="50.4"/>
	<path d="M184.1,72.8c-1.1,0-1.9-0.6-1.9-1.6c0-1.7,1.7-3.3,3.9-3.3c1.1,0,1.9,0.6,1.9,1.6C188,71.1,185.9,72.8,184.1,72.8z"/>
	<line class="st1" x1="209.4" y1="40.5" x2="209.4" y2="60.4"/>
	<line class="st1" x1="214.7" y1="65.3" x2="225.5" y2="65.3"/>
	<line class="st2" x1="222.8" y1="67" x2="222.8" y2="50.4"/>
	<path d="M219.1,70.3c-1.1,0-1.9-0.6-1.9-1.6c0-1.7,1.7-3.3,3.9-3.3c1.1,0,1.9,0.6,1.9,1.6C223.1,68.7,220.9,70.3,219.1,70.3z"/>
	<line class="st1" x1="241.5" y1="65.3" x2="252.3" y2="65.3"/>
	<line class="st2" x1="249.5" y1="67" x2="249.5" y2="50.4"/>
	<path d="M245.9,70.3c-1.1,0-1.9-0.6-1.9-1.6c0-1.7,1.7-3.3,3.9-3.3c1.1,0,1.9,0.6,1.9,1.6C249.8,68.7,247.7,70.3,245.9,70.3z"/>
	<line class="st1" x1="268.3" y1="65.3" x2="279.1" y2="65.3"/>
	<line class="st2" x1="276.3" y1="64.5" x2="276.3" y2="48"/>
	<path d="M272.7,67.8c-1.1,0-1.9-0.6-1.9-1.6c0-1.7,1.7-3.3,3.9-3.3c1.1,0,1.9,0.6,1.9,1.6C276.6,66.2,274.5,67.8,272.7,67.8z"/>
	<line class="st1" x1="295.1" y1="65.3" x2="305.9" y2="65.3"/>
	<line class="st2" x1="303.1" y1="64.5" x2="303.1" y2="48"/>
	<path d="M299.5,67.8c-1.1,0-1.9-0.6-1.9-1.6c0-1.7,1.7-3.3,3.9-3.3c1.1,0,1.9,0.6,1.9,1.6C303.4,66.2,301.3,67.8,299.5,67.8z"/>
	<line class="st1" x1="324.7" y1="40.5" x2="324.7" y2="60.4"/>
	<line class="st2" x1="338.1" y1="62" x2="338.1" y2="45.5"/>
	<path d="M334.5,65.3c-1.1,0-1.9-0.6-1.9-1.6c0-1.7,1.7-3.3,3.9-3.3c1.1,0,1.9,0.6,1.9,1.6C338.4,63.7,336.3,65.3,334.5,65.3z"/>
	<line class="st2" x1="364.9" y1="62" x2="364.9" y2="45.5"/>
	<path d="M361.3,65.3c-1.1,0-1.9-0.6-1.9-1.6c0-1.7,1.7-3.3,3.9-3.3c1.1,0,1.9,0.6,1.9,1.6C365.2,63.7,363.1,65.3,361.3,65.3z"/>
	<line class="st1" x1="383.7" y1="65.3" x2="394.5" y2="65.3"/>
	<line class="st2" x1="391.7" y1="64.5" x2="391.7" y2="48"/>
	<path d="M388.1,67.8c-1.1,0-1.9-0.6-1.9-1.6c0-1.7,1.7-3.3,3.9-3.3c1.1,0,1.9,0.6,1.9,1.6C392,66.2,389.9,67.8,388.1,67.8z"/>
	<line class="st1" x1="410.5" y1="65.3" x2="421.3" y2="65.3"/>
	<line class="st2" x1="418.5" y1="64.5" x2="418.5" y2="48"/>
	<path d="M414.9,67.8c-1.1,0-1.9-0.6-1.9-1.6c0-1.7,1.7-3.3,3.9-3.3c1.1,0,1.9,0.6,1.9,1.6C418.8,66.2,416.6,67.8,414.9,67.8z"/>
	<line class="st1" x1="440.1" y1="40.5" x2="440.1" y2="60.4"/>
	<line class="st1" x1="445.5" y1="65.3" x2="456.3" y2="65.3"/>
	<line class="st2" x1="453.5" y1="67" x2="453.5" y2="50.4"/>
	<path d="M449.9,70.3c-1.1,0-1.9-0.6-1.9-1.6c0-1.7,1.7-3.3,3.9-3.3c1.1,0,1.9,0.6,1.9,1.6C453.8,68.7,451.7,70.3,449.9,70.3z"/>
	<line class="st1" x1="472.3" y1="65.3" x2="483.1" y2="65.3"/>
	<line class="st2" x1="480.3" y1="67" x2="480.3" y2="50.4"/>
	<path d="M476.7,70.3c-1.1,0-1.9-0.6-1.9-1.6c0-1.7,1.7-3.3,3.9-3.3c1.1,0,1.9,0.6,1.9,1.6C480.6,68.7,478.5,70.3,476.7,70.3z"/>
	<line class="st1" x1="499.1" y1="70.3" x2="509.9" y2="70.3"/>
	<line class="st1" x1="499.1" y1="65.3" x2="509.9" y2="65.3"/>
	<line class="st2" x1="507.1" y1="69.4" x2="507.1" y2="50.4"/>
	<path d="M503.5,72.8c-1.1,0-1.9-0.6-1.9-1.6c0-1.7,1.7-3.3,3.9-3.3c1.1,0,1.9,0.6,1.9,1.6C507.4,71.1,505.2,72.8,503.5,72.8z"/>
	<line class="st1" x1="525.9" y1="70.3" x2="536.7" y2="70.3"/>
	<line class="st1" x1="525.9" y1="65.3" x2="536.7" y2="65.3"/>
	<line class="st2" x1="533.9" y1="69.4" x2="533.9" y2="50.4"/>
	<path d="M530.3,72.8c-1.1,0-1.9-0.6-1.9-1.6c0-1.7,1.7-3.3,3.9-3.3c1.1,0,1.9,0.6,1.9,1.6C534.2,71.1,532,72.8,530.3,72.8z"/>
	<line class="st1" x1="63.1" y1="40.5" x2="63.1" y2="60.4"/>
	<line class="st0" x1="553.8" y1="40.5" x2="651.2" y2="40.5"/>
	<line class="st0" x1="553.8" y1="45.5" x2="651.2" y2="45.5"/>
	<line class="st0" x1="553.8" y1="50.4" x2="651.2" y2="50.4"/>
	<line class="st0" x1="553.8" y1="55.4" x2="651.2" y2="55.4"/>
	<line class="st0" x1="553.8" y1="60.4" x2="651.2" y2="60.4"/>
	<line class="st1" x1="554.2" y1="40.7" x2="554.2" y2="60.6"/>
	<line class="st1" x1="570.1" y1="70.3" x2="583.4" y2="70.3"/>
	<line class="st1" x1="570.1" y1="65.3" x2="583.4" y2="65.3"/>
	<path d="M574.7,71.9c0,0.2-0.1,0.3-0.1,0.5c0,0.6,0.3,1.3,0.7,1.8c0.1,0.2,0.3,0.3,0.4,0.4c0.3,0.2,0.6,0.4,0.9,0.5
		c0.2,0.1,0.3,0.1,0.5,0.1c0.2,0,0.4,0,0.6-0.1c0.5-0.1,0.8-0.5,0.9-1c0-0.1,0-0.2,0-0.4c0-1.2-1.1-2.7-2.5-2.7
		C575.7,71.1,575,71.2,574.7,71.9z M576.8,70.7c1.8,0,4.1,1,4.1,2.4c0,1.4-1,2.5-4.3,2.5c-3,0-4.1-1.2-4.1-2.5
		C572.5,71.8,574.2,70.7,576.8,70.7z"/>
	<line class="st1" x1="647.7" y1="40.5" x2="647.7" y2="60.4"/>
	<line class="st3" x1="649.9" y1="40.5" x2="649.9" y2="60.4"/>
</g>
<g id="Sopra">
	<g>
		<path d="M97.6,14.4c-0.6-0.2-1-0.5-1.3-0.8l0.3-0.7c0.3,0.3,0.7,0.6,1.2,0.7s1,0.3,1.6,0.3c0.8,0,1.3-0.1,1.7-0.4
			c0.4-0.3,0.6-0.6,0.6-1.1c0-0.3-0.1-0.6-0.3-0.8c-0.2-0.2-0.5-0.4-0.8-0.5s-0.7-0.2-1.2-0.4c-0.6-0.2-1.1-0.3-1.5-0.5
			c-0.4-0.1-0.7-0.4-1-0.7c-0.3-0.3-0.4-0.7-0.4-1.2c0-0.4,0.1-0.8,0.3-1.2c0.2-0.3,0.6-0.6,1-0.8c0.5-0.2,1-0.3,1.7-0.3
			c0.5,0,1,0.1,1.4,0.2s0.9,0.3,1.2,0.5l-0.3,0.7c-0.4-0.2-0.7-0.4-1.1-0.5c-0.4-0.1-0.8-0.2-1.2-0.2c-0.7,0-1.3,0.1-1.7,0.4
			c-0.4,0.3-0.6,0.6-0.6,1.1c0,0.3,0.1,0.6,0.3,0.8c0.2,0.2,0.5,0.4,0.8,0.5c0.3,0.1,0.7,0.2,1.2,0.4c0.6,0.2,1.1,0.3,1.5,0.5
			c0.4,0.1,0.7,0.4,1,0.7s0.4,0.7,0.4,1.2c0,0.4-0.1,0.8-0.3,1.2s-0.6,0.6-1.1,0.8s-1.1,0.3-1.7,0.3C98.7,14.7,98.1,14.6,97.6,14.4z
			"/>
		<path d="M105.2,14.3c-0.5-0.3-0.9-0.7-1.2-1.1c-0.3-0.5-0.4-1-0.4-1.7c0-0.6,0.1-1.2,0.4-1.7c0.3-0.5,0.7-0.9,1.2-1.1
			c0.5-0.3,1-0.4,1.6-0.4s1.2,0.1,1.6,0.4c0.5,0.3,0.9,0.7,1.1,1.1c0.3,0.5,0.4,1,0.4,1.7c0,0.6-0.1,1.2-0.4,1.7
			c-0.3,0.5-0.7,0.9-1.1,1.1c-0.5,0.3-1,0.4-1.6,0.4S105.7,14.6,105.2,14.3z M108,13.7c0.4-0.2,0.6-0.5,0.8-0.9
			c0.2-0.4,0.3-0.8,0.3-1.3c0-0.5-0.1-0.9-0.3-1.3c-0.2-0.4-0.5-0.7-0.8-0.9S107.3,9,106.8,9c-0.4,0-0.9,0.1-1.2,0.3
			s-0.6,0.5-0.8,0.9c-0.2,0.4-0.3,0.8-0.3,1.3c0,0.5,0.1,0.9,0.3,1.3c0.2,0.4,0.5,0.7,0.8,0.9s0.8,0.3,1.2,0.3
			C107.3,14,107.7,13.9,108,13.7z"/>
		<path d="M111.8,5.8h0.9v8.9h-0.9V5.8z"/>
	</g>
	<g>
		<path d="M124.3,14.4c-0.6-0.2-1-0.5-1.3-0.8l0.3-0.7c0.3,0.3,0.7,0.6,1.2,0.7s1,0.3,1.6,0.3c0.8,0,1.3-0.1,1.7-0.4
			c0.4-0.3,0.6-0.6,0.6-1.1c0-0.3-0.1-0.6-0.3-0.8c-0.2-0.2-0.5-0.4-0.8-0.5s-0.7-0.2-1.2-0.4c-0.6-0.2-1.1-0.3-1.5-0.5
			c-0.4-0.1-0.7-0.4-1-0.7c-0.3-0.3-0.4-0.7-0.4-1.2c0-0.4,0.1-0.8,0.3-1.2c0.2-0.3,0.6-0.6,1-0.8c0.5-0.2,1-0.3,1.7-0.3
			c0.5,0,1,0.1,1.4,0.2s0.9,0.3,1.2,0.5l-0.3,0.7c-0.4-0.2-0.7-0.4-1.1-0.5c-0.4-0.1-0.8-0.2-1.2-0.2c-0.7,0-1.3,0.1-1.7,0.4
			c-0.4,0.3-0.6,0.6-0.6,1.1c0,0.3,0.1,0.6,0.3,0.8c0.2,0.2,0.5,0.4,0.8,0.5c0.3,0.1,0.7,0.2,1.2,0.4c0.6,0.2,1.1,0.3,1.5,0.5
			c0.4,0.1,0.7,0.4,1,0.7s0.4,0.7,0.4,1.2c0,0.4-0.1,0.8-0.3,1.2s-0.6,0.6-1.1,0.8s-1.1,0.3-1.7,0.3
			C125.5,14.7,124.9,14.6,124.3,14.4z"/>
		<path d="M132,14.3c-0.5-0.3-0.9-0.7-1.2-1.1c-0.3-0.5-0.4-1-0.4-1.7c0-0.6,0.1-1.2,0.4-1.7c0.3-0.5,0.7-0.9,1.2-1.1
			c0.5-0.3,1-0.4,1.6-0.4s1.2,0.1,1.6,0.4c0.5,0.3,0.9,0.7,1.1,1.1c0.3,0.5,0.4,1,0.4,1.7c0,0.6-0.1,1.2-0.4,1.7
			c-0.3,0.5-0.7,0.9-1.1,1.1c-0.5,0.3-1,0.4-1.6,0.4S132.4,14.6,132,14.3z M134.8,13.7c0.4-0.2,0.6-0.5,0.8-0.9
			c0.2-0.4,0.3-0.8,0.3-1.3c0-0.5-0.1-0.9-0.3-1.3c-0.2-0.4-0.5-0.7-0.8-0.9S134.1,9,133.6,9c-0.4,0-0.9,0.1-1.2,0.3
			s-0.6,0.5-0.8,0.9c-0.2,0.4-0.3,0.8-0.3,1.3c0,0.5,0.1,0.9,0.3,1.3c0.2,0.4,0.5,0.7,0.8,0.9s0.8,0.3,1.2,0.3
			C134.1,14,134.5,13.9,134.8,13.7z"/>
		<path d="M138.5,5.8h0.9v8.9h-0.9V5.8z"/>
	</g>
	<g>
		<path d="M569.5,14.4c-0.6-0.2-1-0.5-1.3-0.8l0.3-0.7c0.3,0.3,0.7,0.6,1.2,0.7s1,0.3,1.6,0.3c0.8,0,1.3-0.1,1.7-0.4
			c0.4-0.3,0.6-0.6,0.6-1.1c0-0.3-0.1-0.6-0.3-0.8c-0.2-0.2-0.5-0.4-0.8-0.5s-0.7-0.2-1.2-0.4c-0.6-0.2-1.1-0.3-1.5-0.5
			c-0.4-0.1-0.7-0.4-1-0.7c-0.3-0.3-0.4-0.7-0.4-1.2c0-0.4,0.1-0.8,0.3-1.2c0.2-0.3,0.6-0.6,1-0.8c0.5-0.2,1-0.3,1.7-0.3
			c0.5,0,1,0.1,1.4,0.2s0.9,0.3,1.2,0.5l-0.3,0.7c-0.4-0.2-0.7-0.4-1.1-0.5c-0.4-0.1-0.8-0.2-1.2-0.2c-0.7,0-1.3,0.1-1.7,0.4
			c-0.4,0.3-0.6,0.6-0.6,1.1c0,0.3,0.1,0.6,0.3,0.8c0.2,0.2,0.5,0.4,0.8,0.5c0.3,0.1,0.7,0.2,1.2,0.4c0.6,0.2,1.1,0.3,1.5,0.5
			s0.7,0.4,1,0.7c0.3,0.3,0.4,0.7,0.4,1.2c0,0.4-0.1,0.8-0.3,1.2c-0.2,0.3-0.6,0.6-1.1,0.8c-0.5,0.2-1.1,0.3-1.7,0.3
			C570.7,14.7,570.1,14.6,569.5,14.4z"/>
		<path d="M577.2,14.3c-0.5-0.3-0.9-0.7-1.2-1.1c-0.3-0.5-0.4-1-0.4-1.7c0-0.6,0.1-1.2,0.4-1.7c0.3-0.5,0.7-0.9,1.2-1.1
			c0.5-0.3,1-0.4,1.6-0.4c0.6,0,1.2,0.1,1.6,0.4c0.5,0.3,0.9,0.7,1.1,1.1c0.3,0.5,0.4,1,0.4,1.7c0,0.6-0.1,1.2-0.4,1.7
			c-0.3,0.5-0.7,0.9-1.1,1.1s-1,0.4-1.6,0.4C578.2,14.7,577.7,14.6,577.2,14.3z M580,13.7c0.4-0.2,0.6-0.5,0.8-0.9
			c0.2-0.4,0.3-0.8,0.3-1.3c0-0.5-0.1-0.9-0.3-1.3c-0.2-0.4-0.5-0.7-0.8-0.9c-0.4-0.2-0.8-0.3-1.2-0.3c-0.4,0-0.9,0.1-1.2,0.3
			c-0.4,0.2-0.6,0.5-0.8,0.9c-0.2,0.4-0.3,0.8-0.3,1.3c0,0.5,0.1,0.9,0.3,1.3c0.2,0.4,0.5,0.7,0.8,0.9c0.4,0.2,0.8,0.3,1.2,0.3
			C579.3,14,579.7,13.9,580,13.7z"/>
		<path d="M583.8,5.8h0.9v8.9h-0.9V5.8z"/>
	</g>
	<g>
		<path d="M152.6,6.3h0.9v7.6h4.7v0.8h-5.6V6.3z"/>
		<path d="M163.6,8.9c0.4,0.4,0.7,1,0.7,1.8v3.9h-0.8v-1c-0.2,0.3-0.5,0.6-0.8,0.8s-0.8,0.3-1.3,0.3c-0.7,0-1.3-0.2-1.7-0.5
			c-0.4-0.3-0.6-0.8-0.6-1.3c0-0.5,0.2-1,0.6-1.3c0.4-0.3,1-0.5,1.9-0.5h2v-0.4c0-0.5-0.2-1-0.5-1.2c-0.3-0.3-0.7-0.4-1.3-0.4
			c-0.4,0-0.8,0.1-1.2,0.2c-0.4,0.1-0.7,0.3-0.9,0.5l-0.4-0.6c0.3-0.3,0.7-0.5,1.2-0.6c0.4-0.1,0.9-0.2,1.4-0.2
			C162.5,8.3,163.2,8.5,163.6,8.9z M162.6,13.7c0.3-0.2,0.6-0.5,0.8-1v-1h-2c-1.1,0-1.6,0.4-1.6,1.1c0,0.4,0.1,0.7,0.4,0.9
			c0.3,0.2,0.7,0.3,1.2,0.3C161.9,14,162.3,13.9,162.6,13.7z"/>
	</g>
	<g>
		<path d="M179.4,6.3h0.9v7.6h4.7v0.8h-5.6V6.3z"/>
		<path d="M190.4,8.9c0.4,0.4,0.7,1,0.7,1.8v3.9h-0.8v-1c-0.2,0.3-0.5,0.6-0.8,0.8s-0.8,0.3-1.3,0.3c-0.7,0-1.3-0.2-1.7-0.5
			c-0.4-0.3-0.6-0.8-0.6-1.3c0-0.5,0.2-1,0.6-1.3c0.4-0.3,1-0.5,1.9-0.5h2v-0.4c0-0.5-0.2-1-0.5-1.2C189.4,9.2,189,9,188.4,9
			c-0.4,0-0.8,0.1-1.2,0.2c-0.4,0.1-0.7,0.3-0.9,0.5l-0.4-0.6c0.3-0.3,0.7-0.5,1.2-0.6c0.4-0.1,0.9-0.2,1.4-0.2
			C189.3,8.3,190,8.5,190.4,8.9z M189.4,13.7c0.3-0.2,0.6-0.5,0.8-1v-1h-2c-1.1,0-1.6,0.4-1.6,1.1c0,0.4,0.1,0.7,0.4,0.9
			c0.3,0.2,0.7,0.3,1.2,0.3C188.7,14,189.1,13.9,189.4,13.7z"/>
	</g>
	<g>
		<path d="M216.7,14.4c-0.6-0.2-1-0.5-1.3-0.8l0.3-0.7c0.3,0.3,0.7,0.6,1.2,0.7s1,0.3,1.6,0.3c0.8,0,1.3-0.1,1.7-0.4
			c0.4-0.3,0.6-0.6,0.6-1.1c0-0.3-0.1-0.6-0.3-0.8c-0.2-0.2-0.5-0.4-0.8-0.5s-0.7-0.2-1.2-0.4c-0.6-0.2-1.1-0.3-1.5-0.5
			c-0.4-0.1-0.7-0.4-1-0.7c-0.3-0.3-0.4-0.7-0.4-1.2c0-0.4,0.1-0.8,0.3-1.2c0.2-0.3,0.6-0.6,1-0.8c0.5-0.2,1-0.3,1.7-0.3
			c0.5,0,1,0.1,1.4,0.2s0.9,0.3,1.2,0.5L221,7.6c-0.4-0.2-0.7-0.4-1.1-0.5c-0.4-0.1-0.8-0.2-1.2-0.2c-0.7,0-1.3,0.1-1.7,0.4
			c-0.4,0.3-0.6,0.6-0.6,1.1c0,0.3,0.1,0.6,0.3,0.8c0.2,0.2,0.5,0.4,0.8,0.5c0.3,0.1,0.7,0.2,1.2,0.4c0.6,0.2,1.1,0.3,1.5,0.5
			c0.4,0.1,0.7,0.4,1,0.7s0.4,0.7,0.4,1.2c0,0.4-0.1,0.8-0.3,1.2s-0.6,0.6-1.1,0.8s-1.1,0.3-1.7,0.3
			C217.9,14.7,217.3,14.6,216.7,14.4z"/>
		<path d="M223.4,6.8c-0.1-0.1-0.2-0.3-0.2-0.4c0-0.2,0.1-0.3,0.2-0.4c0.1-0.1,0.3-0.2,0.4-0.2c0.2,0,0.3,0.1,0.4,0.2
			c0.1,0.1,0.2,0.3,0.2,0.4c0,0.2-0.1,0.3-0.2,0.4S224,7,223.8,7C223.6,7,223.5,6.9,223.4,6.8z M223.4,8.3h0.9v6.3h-0.9V8.3z"/>
	</g>
	<g>
		<path d="M243.5,14.4c-0.6-0.2-1-0.5-1.3-0.8l0.3-0.7c0.3,0.3,0.7,0.6,1.2,0.7s1,0.3,1.6,0.3c0.8,0,1.3-0.1,1.7-0.4
			c0.4-0.3,0.6-0.6,0.6-1.1c0-0.3-0.1-0.6-0.3-0.8c-0.2-0.2-0.5-0.4-0.8-0.5s-0.7-0.2-1.2-0.4c-0.6-0.2-1.1-0.3-1.5-0.5
			c-0.4-0.1-0.7-0.4-1-0.7c-0.3-0.3-0.4-0.7-0.4-1.2c0-0.4,0.1-0.8,0.3-1.2c0.2-0.3,0.6-0.6,1-0.8c0.5-0.2,1-0.3,1.7-0.3
			c0.5,0,1,0.1,1.4,0.2s0.9,0.3,1.2,0.5l-0.3,0.7c-0.4-0.2-0.7-0.4-1.1-0.5c-0.4-0.1-0.8-0.2-1.2-0.2c-0.7,0-1.3,0.1-1.7,0.4
			c-0.4,0.3-0.6,0.6-0.6,1.1c0,0.3,0.1,0.6,0.3,0.8c0.2,0.2,0.5,0.4,0.8,0.5c0.3,0.1,0.7,0.2,1.2,0.4c0.6,0.2,1.1,0.3,1.5,0.5
			c0.4,0.1,0.7,0.4,1,0.7s0.4,0.7,0.4,1.2c0,0.4-0.1,0.8-0.3,1.2s-0.6,0.6-1.1,0.8s-1.1,0.3-1.7,0.3
			C244.7,14.7,244.1,14.6,243.5,14.4z"/>
		<path d="M250.2,6.8C250,6.7,250,6.5,250,6.4c0-0.2,0.1-0.3,0.2-0.4c0.1-0.1,0.3-0.2,0.4-0.2c0.2,0,0.3,0.1,0.4,0.2
			c0.1,0.1,0.2,0.3,0.2,0.4c0,0.2-0.1,0.3-0.2,0.4S250.8,7,250.6,7C250.4,7,250.3,6.9,250.2,6.8z M250.2,8.3h0.9v6.3h-0.9V8.3z"/>
	</g>
	<g>
		<path d="M266.4,6.3h3.4c0.9,0,1.7,0.2,2.4,0.5c0.7,0.4,1.2,0.9,1.6,1.5c0.4,0.6,0.6,1.4,0.6,2.2c0,0.8-0.2,1.5-0.6,2.2
			c-0.4,0.6-0.9,1.1-1.6,1.5c-0.7,0.4-1.5,0.5-2.4,0.5h-3.4V6.3z M269.7,13.9c0.7,0,1.4-0.1,1.9-0.4c0.6-0.3,1-0.7,1.3-1.2
			c0.3-0.5,0.5-1.1,0.5-1.8c0-0.7-0.2-1.3-0.5-1.8c-0.3-0.5-0.7-0.9-1.3-1.2c-0.6-0.3-1.2-0.4-1.9-0.4h-2.5v6.9H269.7z"/>
		<path d="M277,14.3c-0.5-0.3-0.9-0.7-1.2-1.1c-0.3-0.5-0.4-1-0.4-1.7c0-0.6,0.1-1.2,0.4-1.7c0.3-0.5,0.7-0.9,1.2-1.1
			c0.5-0.3,1-0.4,1.6-0.4s1.2,0.1,1.6,0.4c0.5,0.3,0.9,0.7,1.1,1.1c0.3,0.5,0.4,1,0.4,1.7c0,0.6-0.1,1.2-0.4,1.7
			c-0.3,0.5-0.7,0.9-1.1,1.1c-0.5,0.3-1,0.4-1.6,0.4S277.5,14.6,277,14.3z M279.9,13.7c0.4-0.2,0.6-0.5,0.8-0.9
			c0.2-0.4,0.3-0.8,0.3-1.3c0-0.5-0.1-0.9-0.3-1.3c-0.2-0.4-0.5-0.7-0.8-0.9S279.1,9,278.7,9c-0.4,0-0.9,0.1-1.2,0.3
			s-0.6,0.5-0.8,0.9c-0.2,0.4-0.3,0.8-0.3,1.3c0,0.5,0.1,0.9,0.3,1.3c0.2,0.4,0.5,0.7,0.8,0.9s0.8,0.3,1.2,0.3
			C279.1,14,279.5,13.9,279.9,13.7z"/>
	</g>
	<g>
		<path d="M293.1,6.3h3.4c0.9,0,1.7,0.2,2.4,0.5c0.7,0.4,1.2,0.9,1.6,1.5c0.4,0.6,0.6,1.4,0.6,2.2c0,0.8-0.2,1.5-0.6,2.2
			c-0.4,0.6-0.9,1.1-1.6,1.5c-0.7,0.4-1.5,0.5-2.4,0.5h-3.4V6.3z M296.5,13.9c0.7,0,1.4-0.1,1.9-0.4c0.6-0.3,1-0.7,1.3-1.2
			c0.3-0.5,0.5-1.1,0.5-1.8c0-0.7-0.2-1.3-0.5-1.8c-0.3-0.5-0.7-0.9-1.3-1.2c-0.6-0.3-1.2-0.4-1.9-0.4H294v6.9H296.5z"/>
		<path d="M303.8,14.3c-0.5-0.3-0.9-0.7-1.2-1.1c-0.3-0.5-0.4-1-0.4-1.7c0-0.6,0.1-1.2,0.4-1.7c0.3-0.5,0.7-0.9,1.2-1.1
			c0.5-0.3,1-0.4,1.6-0.4s1.2,0.1,1.6,0.4c0.5,0.3,0.9,0.7,1.1,1.1c0.3,0.5,0.4,1,0.4,1.7c0,0.6-0.1,1.2-0.4,1.7
			c-0.3,0.5-0.7,0.9-1.1,1.1s-1,0.4-1.6,0.4S304.3,14.6,303.8,14.3z M306.7,13.7c0.4-0.2,0.6-0.5,0.8-0.9c0.2-0.4,0.3-0.8,0.3-1.3
			c0-0.5-0.1-0.9-0.3-1.3c-0.2-0.4-0.5-0.7-0.8-0.9c-0.4-0.2-0.8-0.3-1.2-0.3c-0.4,0-0.9,0.1-1.2,0.3s-0.6,0.5-0.8,0.9
			c-0.2,0.4-0.3,0.8-0.3,1.3c0,0.5,0.1,0.9,0.3,1.3c0.2,0.4,0.5,0.7,0.8,0.9s0.8,0.3,1.2,0.3C305.9,14,306.3,13.9,306.7,13.7z"/>
	</g>
	<g>
		<path d="M334.7,14.7l-1.9-2.7c-0.2,0-0.4,0-0.7,0h-2.3v2.7h-0.9V6.3h3.1c1.1,0,1.9,0.3,2.5,0.8c0.6,0.5,0.9,1.2,0.9,2.1
			c0,0.7-0.2,1.2-0.5,1.7s-0.8,0.8-1.4,1l2.1,2.9H334.7z M333.9,10.7c0.4-0.4,0.7-0.9,0.7-1.5c0-0.7-0.2-1.2-0.7-1.6
			C333.5,7.2,332.9,7,332,7h-2.2v4.2h2.2C332.9,11.2,333.5,11.1,333.9,10.7z"/>
		<path d="M342.9,11.8h-5.3c0,0.7,0.3,1.2,0.8,1.6c0.5,0.4,1,0.6,1.7,0.6c0.4,0,0.8-0.1,1.1-0.2c0.3-0.1,0.6-0.3,0.9-0.6l0.5,0.6
			c-0.3,0.3-0.6,0.6-1,0.8c-0.4,0.2-0.9,0.3-1.4,0.3c-0.6,0-1.2-0.1-1.7-0.4s-0.9-0.7-1.2-1.1c-0.3-0.5-0.4-1-0.4-1.7
			c0-0.6,0.1-1.2,0.4-1.7c0.3-0.5,0.6-0.9,1.1-1.1c0.5-0.3,1-0.4,1.6-0.4c0.6,0,1.1,0.1,1.6,0.4c0.5,0.3,0.8,0.7,1.1,1.1
			c0.3,0.5,0.4,1,0.4,1.7L342.9,11.8z M338.3,9.6c-0.4,0.4-0.6,0.9-0.7,1.5h4.5c-0.1-0.6-0.3-1.1-0.7-1.5C341,9.2,340.5,9,339.9,9
			C339.3,9,338.7,9.2,338.3,9.6z"/>
	</g>
	<g>
		<path d="M361.4,14.7l-1.9-2.7c-0.2,0-0.4,0-0.7,0h-2.3v2.7h-0.9V6.3h3.1c1.1,0,1.9,0.3,2.5,0.8c0.6,0.5,0.9,1.2,0.9,2.1
			c0,0.7-0.2,1.2-0.5,1.7s-0.8,0.8-1.4,1l2.1,2.9H361.4z M360.7,10.7c0.4-0.4,0.7-0.9,0.7-1.5c0-0.7-0.2-1.2-0.7-1.6
			c-0.4-0.4-1.1-0.5-1.9-0.5h-2.2v4.2h2.2C359.7,11.2,360.3,11.1,360.7,10.7z"/>
		<path d="M369.7,11.8h-5.3c0,0.7,0.3,1.2,0.8,1.6c0.5,0.4,1,0.6,1.7,0.6c0.4,0,0.8-0.1,1.1-0.2c0.3-0.1,0.6-0.3,0.9-0.6l0.5,0.6
			c-0.3,0.3-0.6,0.6-1,0.8c-0.4,0.2-0.9,0.3-1.4,0.3c-0.6,0-1.2-0.1-1.7-0.4s-0.9-0.7-1.2-1.1c-0.3-0.5-0.4-1-0.4-1.7
			c0-0.6,0.1-1.2,0.4-1.7c0.3-0.5,0.6-0.9,1.1-1.1c0.5-0.3,1-0.4,1.6-0.4s1.1,0.1,1.6,0.4c0.5,0.3,0.8,0.7,1.1,1.1s0.4,1,0.4,1.7
			L369.7,11.8z M365.1,9.6c-0.4,0.4-0.6,0.9-0.7,1.5h4.5c-0.1-0.6-0.3-1.1-0.7-1.5S367.3,9,366.6,9C366,9,365.5,9.2,365.1,9.6z"/>
	</g>
	<g>
		<path d="M381.7,6.3h3.4c0.9,0,1.7,0.2,2.4,0.5c0.7,0.4,1.2,0.9,1.6,1.5c0.4,0.6,0.6,1.4,0.6,2.2c0,0.8-0.2,1.5-0.6,2.2
			c-0.4,0.6-0.9,1.1-1.6,1.5c-0.7,0.4-1.5,0.5-2.4,0.5h-3.4V6.3z M385.1,13.9c0.7,0,1.4-0.1,1.9-0.4s1-0.7,1.3-1.2
			c0.3-0.5,0.5-1.1,0.5-1.8c0-0.7-0.2-1.3-0.5-1.8c-0.3-0.5-0.7-0.9-1.3-1.2S385.8,7,385.1,7h-2.5v6.9H385.1z"/>
		<path d="M392.4,14.3c-0.5-0.3-0.9-0.7-1.2-1.1c-0.3-0.5-0.4-1-0.4-1.7c0-0.6,0.1-1.2,0.4-1.7c0.3-0.5,0.7-0.9,1.2-1.1
			c0.5-0.3,1-0.4,1.6-0.4c0.6,0,1.2,0.1,1.6,0.4c0.5,0.3,0.9,0.7,1.1,1.1c0.3,0.5,0.4,1,0.4,1.7c0,0.6-0.1,1.2-0.4,1.7
			c-0.3,0.5-0.7,0.9-1.1,1.1s-1,0.4-1.6,0.4C393.4,14.7,392.9,14.6,392.4,14.3z M395.3,13.7c0.4-0.2,0.6-0.5,0.8-0.9
			c0.2-0.4,0.3-0.8,0.3-1.3c0-0.5-0.1-0.9-0.3-1.3c-0.2-0.4-0.5-0.7-0.8-0.9C394.9,9.1,394.5,9,394,9c-0.4,0-0.9,0.1-1.2,0.3
			c-0.4,0.2-0.6,0.5-0.8,0.9c-0.2,0.4-0.3,0.8-0.3,1.3c0,0.5,0.1,0.9,0.3,1.3c0.2,0.4,0.5,0.7,0.8,0.9c0.4,0.2,0.8,0.3,1.2,0.3
			C394.5,14,394.9,13.9,395.3,13.7z"/>
	</g>
	<g>
		<path d="M408.5,6.3h3.4c0.9,0,1.7,0.2,2.4,0.5c0.7,0.4,1.2,0.9,1.6,1.5c0.4,0.6,0.6,1.4,0.6,2.2c0,0.8-0.2,1.5-0.6,2.2
			c-0.4,0.6-0.9,1.1-1.6,1.5c-0.7,0.4-1.5,0.5-2.4,0.5h-3.4V6.3z M411.9,13.9c0.7,0,1.4-0.1,1.9-0.4s1-0.7,1.3-1.2
			c0.3-0.5,0.5-1.1,0.5-1.8c0-0.7-0.2-1.3-0.5-1.8c-0.3-0.5-0.7-0.9-1.3-1.2S412.6,7,411.9,7h-2.5v6.9H411.9z"/>
		<path d="M419.2,14.3c-0.5-0.3-0.9-0.7-1.2-1.1c-0.3-0.5-0.4-1-0.4-1.7c0-0.6,0.1-1.2,0.4-1.7c0.3-0.5,0.7-0.9,1.2-1.1
			c0.5-0.3,1-0.4,1.6-0.4c0.6,0,1.2,0.1,1.6,0.4c0.5,0.3,0.9,0.7,1.1,1.1c0.3,0.5,0.4,1,0.4,1.7c0,0.6-0.1,1.2-0.4,1.7
			c-0.3,0.5-0.7,0.9-1.1,1.1s-1,0.4-1.6,0.4C420.2,14.7,419.7,14.6,419.2,14.3z M422,13.7c0.4-0.2,0.6-0.5,0.8-0.9
			c0.2-0.4,0.3-0.8,0.3-1.3c0-0.5-0.1-0.9-0.3-1.3c-0.2-0.4-0.5-0.7-0.8-0.9c-0.4-0.2-0.8-0.3-1.2-0.3c-0.4,0-0.9,0.1-1.2,0.3
			c-0.4,0.2-0.6,0.5-0.8,0.9c-0.2,0.4-0.3,0.8-0.3,1.3c0,0.5,0.1,0.9,0.3,1.3c0.2,0.4,0.5,0.7,0.8,0.9c0.4,0.2,0.8,0.3,1.2,0.3
			C421.3,14,421.7,13.9,422,13.7z"/>
	</g>
	<g>
		<path d="M447.5,14.4c-0.6-0.2-1-0.5-1.3-0.8l0.3-0.7c0.3,0.3,0.7,0.6,1.2,0.7s1,0.3,1.6,0.3c0.8,0,1.3-0.1,1.7-0.4
			c0.4-0.3,0.6-0.6,0.6-1.1c0-0.3-0.1-0.6-0.3-0.8c-0.2-0.2-0.5-0.4-0.8-0.5c-0.3-0.1-0.7-0.2-1.2-0.4c-0.6-0.2-1.1-0.3-1.5-0.5
			c-0.4-0.1-0.7-0.4-1-0.7c-0.3-0.3-0.4-0.7-0.4-1.2c0-0.4,0.1-0.8,0.3-1.2c0.2-0.3,0.6-0.6,1-0.8c0.5-0.2,1-0.3,1.7-0.3
			c0.5,0,1,0.1,1.4,0.2s0.9,0.3,1.2,0.5l-0.3,0.7c-0.4-0.2-0.7-0.4-1.1-0.5c-0.4-0.1-0.8-0.2-1.2-0.2c-0.7,0-1.3,0.1-1.7,0.4
			c-0.4,0.3-0.6,0.6-0.6,1.1c0,0.3,0.1,0.6,0.3,0.8c0.2,0.2,0.5,0.4,0.8,0.5c0.3,0.1,0.7,0.2,1.2,0.4c0.6,0.2,1.1,0.3,1.5,0.5
			c0.4,0.1,0.7,0.4,1,0.7c0.3,0.3,0.4,0.7,0.4,1.2c0,0.4-0.1,0.8-0.3,1.2s-0.6,0.6-1.1,0.8c-0.5,0.2-1.1,0.3-1.7,0.3
			C448.7,14.7,448.1,14.6,447.5,14.4z"/>
		<path d="M454.2,6.8C454,6.7,454,6.5,454,6.4c0-0.2,0.1-0.3,0.2-0.4c0.1-0.1,0.3-0.2,0.4-0.2s0.3,0.1,0.4,0.2
			c0.1,0.1,0.2,0.3,0.2,0.4c0,0.2-0.1,0.3-0.2,0.4S454.8,7,454.6,7S454.3,6.9,454.2,6.8z M454.2,8.3h0.9v6.3h-0.9V8.3z"/>
	</g>
	<g>
		<path d="M474.3,14.4c-0.6-0.2-1-0.5-1.3-0.8l0.3-0.7c0.3,0.3,0.7,0.6,1.2,0.7s1,0.3,1.6,0.3c0.8,0,1.3-0.1,1.7-0.4
			c0.4-0.3,0.6-0.6,0.6-1.1c0-0.3-0.1-0.6-0.3-0.8c-0.2-0.2-0.5-0.4-0.8-0.5s-0.7-0.2-1.2-0.4c-0.6-0.2-1.1-0.3-1.5-0.5
			s-0.7-0.4-1-0.7c-0.3-0.3-0.4-0.7-0.4-1.2c0-0.4,0.1-0.8,0.3-1.2c0.2-0.3,0.6-0.6,1-0.8c0.5-0.2,1-0.3,1.7-0.3
			c0.5,0,1,0.1,1.4,0.2s0.9,0.3,1.2,0.5l-0.3,0.7c-0.4-0.2-0.7-0.4-1.1-0.5c-0.4-0.1-0.8-0.2-1.2-0.2c-0.7,0-1.3,0.1-1.7,0.4
			C474.2,7.7,474,8,474,8.5c0,0.3,0.1,0.6,0.3,0.8c0.2,0.2,0.5,0.4,0.8,0.5s0.7,0.2,1.2,0.4c0.6,0.2,1.1,0.3,1.5,0.5
			c0.4,0.1,0.7,0.4,1,0.7c0.3,0.3,0.4,0.7,0.4,1.2c0,0.4-0.1,0.8-0.3,1.2c-0.2,0.3-0.6,0.6-1,0.8c-0.5,0.2-1.1,0.3-1.7,0.3
			C475.4,14.7,474.8,14.6,474.3,14.4z"/>
		<path d="M480.9,6.8c-0.1-0.1-0.2-0.3-0.2-0.4c0-0.2,0.1-0.3,0.2-0.4s0.3-0.2,0.4-0.2c0.2,0,0.3,0.1,0.4,0.2
			c0.1,0.1,0.2,0.3,0.2,0.4c0,0.2-0.1,0.3-0.2,0.4S481.6,7,481.4,7C481.2,7,481.1,6.9,480.9,6.8z M481,8.3h0.9v6.3H481V8.3z"/>
	</g>
	<g>
		<path d="M498.8,6.3h0.9v7.6h4.7v0.8h-5.6V6.3z"/>
		<path d="M509.8,8.9c0.4,0.4,0.7,1,0.7,1.8v3.9h-0.8v-1c-0.2,0.3-0.5,0.6-0.8,0.8s-0.8,0.3-1.3,0.3c-0.7,0-1.3-0.2-1.7-0.5
			c-0.4-0.3-0.6-0.8-0.6-1.3c0-0.5,0.2-1,0.6-1.3c0.4-0.3,1-0.5,1.9-0.5h2v-0.4c0-0.5-0.2-1-0.5-1.2c-0.3-0.3-0.7-0.4-1.3-0.4
			c-0.4,0-0.8,0.1-1.2,0.2c-0.4,0.1-0.7,0.3-0.9,0.5l-0.4-0.6c0.3-0.3,0.7-0.5,1.2-0.6c0.4-0.1,0.9-0.2,1.4-0.2
			C508.7,8.3,509.3,8.5,509.8,8.9z M508.8,13.7c0.3-0.2,0.6-0.5,0.8-1v-1h-2c-1.1,0-1.6,0.4-1.6,1.1c0,0.4,0.1,0.7,0.4,0.9
			c0.3,0.2,0.7,0.3,1.2,0.3C508.1,14,508.5,13.9,508.8,13.7z"/>
	</g>
	<g>
		<path d="M525.5,6.3h0.9v7.6h4.7v0.8h-5.6V6.3z"/>
		<path d="M536.6,8.9c0.4,0.4,0.7,1,0.7,1.8v3.9h-0.8v-1c-0.2,0.3-0.5,0.6-0.8,0.8s-0.8,0.3-1.3,0.3c-0.7,0-1.3-0.2-1.7-0.5
			c-0.4-0.3-0.6-0.8-0.6-1.3c0-0.5,0.2-1,0.6-1.3c0.4-0.3,1-0.5,1.9-0.5h2v-0.4c0-0.5-0.2-1-0.5-1.2c-0.3-0.3-0.7-0.4-1.3-0.4
			c-0.4,0-0.8,0.1-1.2,0.2c-0.4,0.1-0.7,0.3-0.9,0.5l-0.4-0.6c0.3-0.3,0.7-0.5,1.2-0.6c0.4-0.1,0.9-0.2,1.4-0.2
			C535.5,8.3,536.1,8.5,536.6,8.9z M535.6,13.7c0.3-0.2,0.6-0.5,0.8-1v-1h-2c-1.1,0-1.6,0.4-1.6,1.1c0,0.4,0.1,0.7,0.4,0.9
			c0.3,0.2,0.7,0.3,1.2,0.3C534.8,14,535.3,13.9,535.6,13.7z"/>
	</g>
</g>
<g id="Sopra-Spartito">
	<g>
		<path d="M104.3,27.3c-0.1-0.1-0.2-0.3-0.2-0.4c0-0.2,0.1-0.3,0.2-0.4c0.1-0.1,0.3-0.2,0.4-0.2c0.2,0,0.3,0.1,0.4,0.2
			c0.1,0.1,0.2,0.3,0.2,0.4c0,0.2-0.1,0.3-0.2,0.4s-0.3,0.2-0.4,0.2C104.6,27.5,104.4,27.4,104.3,27.3z M104.3,28.8h0.9v6.3h-0.9
			V28.8z"/>
	</g>
	<g>
		<path d="M136.1,29.5c0.5,0.5,0.7,1.1,0.7,2v3.7h-0.9v-3.6c0-0.7-0.2-1.2-0.5-1.5c-0.3-0.3-0.8-0.5-1.3-0.5c-0.7,0-1.2,0.2-1.5,0.6
			s-0.6,1-0.6,1.7v3.3h-0.9v-3.6c0-0.7-0.2-1.2-0.5-1.5c-0.3-0.3-0.8-0.5-1.4-0.5c-0.6,0-1.2,0.2-1.5,0.6s-0.6,1-0.6,1.7v3.3h-0.9
			v-6.3h0.8V30c0.2-0.4,0.5-0.7,0.9-0.9s0.9-0.3,1.4-0.3c0.5,0,1,0.1,1.4,0.3s0.7,0.6,0.9,1c0.2-0.4,0.6-0.7,1-1s0.9-0.4,1.5-0.4
			C135,28.8,135.6,29,136.1,29.5z"/>
	</g>
	<g>
		<path d="M157.9,27.3c-0.1-0.1-0.2-0.3-0.2-0.4c0-0.2,0.1-0.3,0.2-0.4c0.1-0.1,0.3-0.2,0.4-0.2c0.2,0,0.3,0.1,0.4,0.2
			c0.1,0.1,0.2,0.3,0.2,0.4c0,0.2-0.1,0.3-0.2,0.4s-0.3,0.2-0.4,0.2C158.1,27.5,158,27.4,157.9,27.3z M157.9,28.8h0.9v6.3h-0.9V28.8
			z"/>
	</g>
	<g>
		<path d="M159.3,24.9l-1-2.5l-1,2.5h-0.4l1.2-2.9h0.4l1.2,2.9H159.3z"/>
	</g>
	<g>
		<path d="M189.7,29.5c0.5,0.5,0.7,1.1,0.7,2v3.7h-0.9v-3.6c0-0.7-0.2-1.2-0.5-1.5c-0.3-0.3-0.8-0.5-1.3-0.5c-0.7,0-1.2,0.2-1.5,0.6
			s-0.6,1-0.6,1.7v3.3h-0.9v-3.6c0-0.7-0.2-1.2-0.5-1.5c-0.3-0.3-0.8-0.5-1.4-0.5c-0.6,0-1.2,0.2-1.5,0.6s-0.6,1-0.6,1.7v3.3h-0.9
			v-6.3h0.8V30c0.2-0.4,0.5-0.7,0.9-0.9s0.9-0.3,1.4-0.3c0.5,0,1,0.1,1.4,0.3s0.7,0.6,0.9,1c0.2-0.4,0.6-0.7,1-1s0.9-0.4,1.5-0.4
			C188.6,28.8,189.2,29,189.7,29.5z"/>
	</g>
	<g>
		<path d="M186.1,24.9l-1-2.5l-1,2.5h-0.4l1.2-2.9h0.4l1.2,2.9H186.1z"/>
	</g>
	<g>
		<path d="M219.7,27.3c-0.1-0.1-0.2-0.3-0.2-0.4c0-0.2,0.1-0.3,0.2-0.4c0.1-0.1,0.3-0.2,0.4-0.2c0.2,0,0.3,0.1,0.4,0.2
			c0.1,0.1,0.2,0.3,0.2,0.4c0,0.2-0.1,0.3-0.2,0.4s-0.3,0.2-0.4,0.2C220,27.5,219.8,27.4,219.7,27.3z M219.7,28.8h0.9v6.3h-0.9V28.8
			z"/>
	</g>
	<g>
		<path d="M221.1,24.9l-1-2.5l-1,2.5h-0.4l1.2-2.9h0.4l1.2,2.9H221.1z"/>
	</g>
	<g>
		<path d="M251.5,29.5c0.5,0.5,0.7,1.1,0.7,2v3.7h-0.9v-3.6c0-0.7-0.2-1.2-0.5-1.5c-0.3-0.3-0.8-0.5-1.3-0.5c-0.7,0-1.2,0.2-1.5,0.6
			s-0.6,1-0.6,1.7v3.3h-0.9v-3.6c0-0.7-0.2-1.2-0.5-1.5c-0.3-0.3-0.8-0.5-1.4-0.5c-0.6,0-1.2,0.2-1.5,0.6s-0.6,1-0.6,1.7v3.3h-0.9
			v-6.3h0.8V30c0.2-0.4,0.5-0.7,0.9-0.9s0.9-0.3,1.4-0.3c0.5,0,1,0.1,1.4,0.3s0.7,0.6,0.9,1c0.2-0.4,0.6-0.7,1-1s0.9-0.4,1.5-0.4
			C250.4,28.8,251,29,251.5,29.5z"/>
	</g>
	<g>
		<path d="M247.9,24.9l-1-2.5l-1,2.5h-0.4l1.2-2.9h0.4l1.2,2.9H247.9z"/>
	</g>
	<g>
		<path d="M273.3,27.3c-0.1-0.1-0.2-0.3-0.2-0.4c0-0.2,0.1-0.3,0.2-0.4c0.1-0.1,0.3-0.2,0.4-0.2c0.2,0,0.3,0.1,0.4,0.2
			c0.1,0.1,0.2,0.3,0.2,0.4c0,0.2-0.1,0.3-0.2,0.4s-0.3,0.2-0.4,0.2C273.5,27.5,273.4,27.4,273.3,27.3z M273.3,28.8h0.9v6.3h-0.9
			V28.8z"/>
	</g>
	<g>
		<path d="M274.7,24.9l-1-2.5l-1,2.5h-0.4l1.2-2.9h0.4l1.2,2.9H274.7z"/>
	</g>
	<g>
		<path d="M305,29.5c0.5,0.5,0.7,1.1,0.7,2v3.7h-0.9v-3.6c0-0.7-0.2-1.2-0.5-1.5c-0.3-0.3-0.8-0.5-1.3-0.5c-0.7,0-1.2,0.2-1.5,0.6
			s-0.6,1-0.6,1.7v3.3h-0.9v-3.6c0-0.7-0.2-1.2-0.5-1.5c-0.3-0.3-0.8-0.5-1.3-0.5c-0.6,0-1.2,0.2-1.5,0.6s-0.6,1-0.6,1.7v3.3h-0.9
			v-6.3h0.8V30c0.2-0.4,0.5-0.7,0.9-0.9c0.4-0.2,0.9-0.3,1.4-0.3c0.5,0,1,0.1,1.4,0.3c0.4,0.2,0.7,0.6,0.9,1c0.2-0.4,0.6-0.7,1-1
			c0.4-0.2,0.9-0.4,1.5-0.4C304,28.8,304.6,29,305,29.5z"/>
	</g>
	<g>
		<path d="M301.5,24.9l-1-2.5l-1,2.5h-0.4l1.2-2.9h0.4l1.2,2.9H301.5z"/>
	</g>
	<g>
		<path d="M335.1,27.3c-0.1-0.1-0.2-0.3-0.2-0.4c0-0.2,0.1-0.3,0.2-0.4s0.3-0.2,0.4-0.2c0.2,0,0.3,0.1,0.4,0.2
			c0.1,0.1,0.2,0.3,0.2,0.4c0,0.2-0.1,0.3-0.2,0.4s-0.3,0.2-0.4,0.2C335.3,27.5,335.2,27.4,335.1,27.3z M335.1,28.8h0.9v6.3h-0.9
			V28.8z"/>
	</g>
	<g>
		<path d="M336.5,24.9l-1-2.5l-1,2.5h-0.4l1.2-2.9h0.4l1.2,2.9H336.5z"/>
	</g>
	<g>
		<path d="M366.9,29.5c0.5,0.5,0.7,1.1,0.7,2v3.7h-0.9v-3.6c0-0.7-0.2-1.2-0.5-1.5c-0.3-0.3-0.8-0.5-1.3-0.5c-0.7,0-1.2,0.2-1.5,0.6
			s-0.6,1-0.6,1.7v3.3h-0.9v-3.6c0-0.7-0.2-1.2-0.5-1.5c-0.3-0.3-0.8-0.5-1.4-0.5c-0.6,0-1.2,0.2-1.5,0.6s-0.6,1-0.6,1.7v3.3h-0.9
			v-6.3h0.8V30c0.2-0.4,0.5-0.7,0.9-0.9c0.4-0.2,0.9-0.3,1.4-0.3c0.5,0,1,0.1,1.4,0.3c0.4,0.2,0.7,0.6,0.9,1c0.2-0.4,0.6-0.7,1-1
			c0.4-0.2,0.9-0.4,1.5-0.4C365.8,28.8,366.4,29,366.9,29.5z"/>
	</g>
	<g>
		<path d="M363.3,24.9l-1-2.5l-1,2.5h-0.4l1.2-2.9h0.4l1.2,2.9H363.3z"/>
	</g>
	<g>
		<path d="M388.6,27.3c-0.1-0.1-0.2-0.3-0.2-0.4c0-0.2,0.1-0.3,0.2-0.4s0.3-0.2,0.4-0.2c0.2,0,0.3,0.1,0.4,0.2
			c0.1,0.1,0.2,0.3,0.2,0.4c0,0.2-0.1,0.3-0.2,0.4s-0.3,0.2-0.4,0.2C388.9,27.5,388.8,27.4,388.6,27.3z M388.7,28.8h0.9v6.3h-0.9
			V28.8z"/>
	</g>
	<g>
		<path d="M390.1,24.9l-1-2.5l-1,2.5h-0.4l1.2-2.9h0.4l1.2,2.9H390.1z"/>
	</g>
	<g>
		<path d="M420.4,29.5c0.5,0.5,0.7,1.1,0.7,2v3.7h-0.9v-3.6c0-0.7-0.2-1.2-0.5-1.5c-0.3-0.3-0.8-0.5-1.3-0.5c-0.7,0-1.2,0.2-1.5,0.6
			s-0.6,1-0.6,1.7v3.3h-0.9v-3.6c0-0.7-0.2-1.2-0.5-1.5c-0.3-0.3-0.8-0.5-1.4-0.5c-0.6,0-1.2,0.2-1.5,0.6s-0.6,1-0.6,1.7v3.3h-0.9
			v-6.3h0.8V30c0.2-0.4,0.5-0.7,0.9-0.9c0.4-0.2,0.9-0.3,1.4-0.3c0.5,0,1,0.1,1.4,0.3c0.4,0.2,0.7,0.6,0.9,1c0.2-0.4,0.6-0.7,1-1
			c0.4-0.2,0.9-0.4,1.5-0.4C419.4,28.8,420,29,420.4,29.5z"/>
	</g>
	<g>
		<path d="M416.9,24.9l-1-2.5l-1,2.5h-0.4l1.2-2.9h0.4l1.2,2.9H416.9z"/>
	</g>
	<g>
		<path d="M450.5,27.3c-0.1-0.1-0.2-0.3-0.2-0.4c0-0.2,0.1-0.3,0.2-0.4c0.1-0.1,0.3-0.2,0.4-0.2s0.3,0.1,0.4,0.2
			c0.1,0.1,0.2,0.3,0.2,0.4c0,0.2-0.1,0.3-0.2,0.4s-0.3,0.2-0.4,0.2S450.6,27.4,450.5,27.3z M450.5,28.8h0.9v6.3h-0.9V28.8z"/>
	</g>
	<g>
		<path d="M451.9,24.9l-1-2.5l-1,2.5h-0.4l1.2-2.9h0.4l1.2,2.9H451.9z"/>
	</g>
	<g>
		<path d="M482.2,29.5c0.5,0.5,0.7,1.1,0.7,2v3.7h-0.9v-3.6c0-0.7-0.2-1.2-0.5-1.5c-0.3-0.3-0.8-0.5-1.3-0.5c-0.7,0-1.2,0.2-1.5,0.6
			s-0.6,1-0.6,1.7v3.3h-0.9v-3.6c0-0.7-0.2-1.2-0.5-1.5c-0.3-0.3-0.8-0.5-1.4-0.5c-0.6,0-1.2,0.2-1.5,0.6s-0.6,1-0.6,1.7v3.3h-0.9
			v-6.3h0.8V30c0.2-0.4,0.5-0.7,0.9-0.9c0.4-0.2,0.9-0.3,1.4-0.3c0.5,0,1,0.1,1.4,0.3c0.4,0.2,0.7,0.6,0.9,1c0.2-0.4,0.6-0.7,1-1
			c0.4-0.2,0.9-0.4,1.5-0.4C481.2,28.8,481.8,29,482.2,29.5z"/>
	</g>
	<g>
		<path d="M478.7,24.9l-1-2.5l-1,2.5h-0.4l1.2-2.9h0.4l1.2,2.9H478.7z"/>
	</g>
	<g>
		<path d="M504,27.3c-0.1-0.1-0.2-0.3-0.2-0.4c0-0.2,0.1-0.3,0.2-0.4c0.1-0.1,0.3-0.2,0.4-0.2s0.3,0.1,0.4,0.2
			c0.1,0.1,0.2,0.3,0.2,0.4c0,0.2-0.1,0.3-0.2,0.4s-0.3,0.2-0.4,0.2S504.2,27.4,504,27.3z M504,28.8h0.9v6.3H504V28.8z"/>
	</g>
	<g>
		<path d="M505.5,24.9l-1-2.5l-1,2.5H503l1.2-2.9h0.4l1.2,2.9H505.5z"/>
	</g>
	<g>
		<path d="M535.8,29.5c0.5,0.5,0.7,1.1,0.7,2v3.7h-0.9v-3.6c0-0.7-0.2-1.2-0.5-1.5c-0.3-0.3-0.8-0.5-1.3-0.5c-0.7,0-1.2,0.2-1.5,0.6
			s-0.6,1-0.6,1.7v3.3h-0.9v-3.6c0-0.7-0.2-1.2-0.5-1.5c-0.3-0.3-0.8-0.5-1.4-0.5c-0.6,0-1.2,0.2-1.5,0.6s-0.6,1-0.6,1.7v3.3h-0.9
			v-6.3h0.8V30c0.2-0.4,0.5-0.7,0.9-0.9c0.4-0.2,0.9-0.3,1.4-0.3c0.5,0,1,0.1,1.4,0.3c0.4,0.2,0.7,0.6,0.9,1c0.2-0.4,0.6-0.7,1-1
			c0.4-0.2,0.9-0.4,1.5-0.4C534.8,28.8,535.4,29,535.8,29.5z"/>
	</g>
	<g>
		<path d="M532.3,24.9l-1-2.5l-1,2.5h-0.4l1.2-2.9h0.4l1.2,2.9H532.3z"/>
	</g>
	<g>
		<path d="M576.3,27.3c-0.1-0.1-0.2-0.3-0.2-0.4c0-0.2,0.1-0.3,0.2-0.4s0.3-0.2,0.4-0.2c0.2,0,0.3,0.1,0.4,0.2
			c0.1,0.1,0.2,0.3,0.2,0.4c0,0.2-0.1,0.3-0.2,0.4s-0.3,0.2-0.4,0.2C576.6,27.5,576.4,27.4,576.3,27.3z M576.3,28.8h0.9v6.3h-0.9
			V28.8z"/>
	</g>
</g>
<g id="Cerchi-inferiori">
	<g>
		<path d="M105.7,80.4c0.2,0.1,0.4,0.3,0.6,0.5s0.2,0.5,0.2,0.8c0,0.3-0.1,0.6-0.2,0.8c-0.1,0.2-0.3,0.4-0.6,0.5s-0.5,0.2-0.9,0.2
			c-0.6,0-1.1-0.2-1.5-0.6c-0.3-0.4-0.5-1-0.5-1.8c0-0.5,0.1-1,0.3-1.4s0.4-0.7,0.8-0.9c0.3-0.2,0.7-0.3,1.2-0.3
			c0.5,0,0.9,0.1,1.2,0.3l-0.2,0.4c-0.2-0.2-0.6-0.2-1-0.2c-0.5,0-1,0.2-1.3,0.5c-0.3,0.3-0.5,0.8-0.5,1.5c0,0.1,0,0.3,0,0.4
			c0.1-0.3,0.3-0.5,0.6-0.6s0.6-0.2,0.9-0.2C105.2,80.2,105.5,80.3,105.7,80.4z M105.7,82.5c0.2-0.2,0.3-0.5,0.3-0.8
			c0-0.3-0.1-0.6-0.3-0.8c-0.2-0.2-0.5-0.3-0.9-0.3c-0.2,0-0.5,0-0.7,0.1c-0.2,0.1-0.3,0.2-0.4,0.4s-0.2,0.3-0.2,0.5
			c0,0.2,0,0.4,0.2,0.5c0.1,0.2,0.2,0.3,0.4,0.4c0.2,0.1,0.4,0.1,0.7,0.1C105.2,82.8,105.4,82.7,105.7,82.5z"/>
		<circle class="st4" cx="104.7" cy="80.7" r="3.4"/>
	</g>
	<g>
		<g>
			<path d="M159.5,78.7c0.3,0.3,0.5,0.6,0.5,1.1c0,0.3-0.1,0.5-0.2,0.8c-0.1,0.2-0.3,0.4-0.6,0.5s-0.6,0.2-1,0.2
				c-0.4,0-0.7-0.1-1-0.2s-0.6-0.3-0.8-0.5l0.2-0.4c0.2,0.2,0.4,0.3,0.6,0.4s0.6,0.2,0.9,0.2c0.4,0,0.7-0.1,0.9-0.3
				c0.2-0.2,0.3-0.4,0.3-0.7c0-0.3-0.1-0.6-0.4-0.8c-0.3-0.2-0.7-0.3-1.3-0.3h-1l0.3-2.5h2.7v0.4h-2.2l-0.2,1.6h0.6
				C158.7,78.3,159.2,78.5,159.5,78.7z"/>
		</g>
		<circle class="st4" cx="158.3" cy="78.7" r="3.4"/>
	</g>
	<g>
		<g>
			<path d="M337.5,72.3h-1v1.3H336v-1.3h-2.8v-0.4l2.6-3.2h0.6l-2.5,3.2h2.1v-1.1h0.5v1.1h1V72.3z"/>
		</g>
		<circle class="st4" cx="335.5" cy="71.2" r="3.4"/>
	</g>
	<g>
		<g>
			<path d="M390.3,73.6c0.3,0.3,0.5,0.6,0.5,1.1c0,0.3-0.1,0.5-0.2,0.8c-0.1,0.2-0.3,0.4-0.6,0.5c-0.3,0.1-0.6,0.2-1,0.2
				c-0.4,0-0.7-0.1-1-0.2c-0.3-0.1-0.6-0.3-0.8-0.5l0.2-0.4c0.2,0.2,0.4,0.3,0.6,0.4c0.3,0.1,0.6,0.2,0.9,0.2c0.4,0,0.7-0.1,0.9-0.3
				c0.2-0.2,0.3-0.4,0.3-0.7c0-0.3-0.1-0.6-0.4-0.8c-0.3-0.2-0.7-0.3-1.3-0.3h-1l0.3-2.5h2.7v0.4h-2.2l-0.2,1.6h0.6
				C389.5,73.2,390,73.4,390.3,73.6z"/>
		</g>
		<circle class="st4" cx="389.1" cy="73.6" r="3.4"/>
	</g>
	<g>
		<path d="M577.7,80.9c0.2,0.1,0.4,0.3,0.6,0.5s0.2,0.5,0.2,0.8c0,0.3-0.1,0.6-0.2,0.8c-0.1,0.2-0.3,0.4-0.6,0.5s-0.5,0.2-0.9,0.2
			c-0.6,0-1.1-0.2-1.5-0.6c-0.3-0.4-0.5-1-0.5-1.8c0-0.5,0.1-1,0.3-1.4s0.4-0.7,0.8-0.9c0.3-0.2,0.7-0.3,1.2-0.3
			c0.5,0,0.9,0.1,1.2,0.3l-0.2,0.4c-0.2-0.2-0.6-0.2-1-0.2c-0.5,0-1,0.2-1.3,0.5c-0.3,0.3-0.5,0.8-0.5,1.5c0,0.1,0,0.3,0,0.4
			c0.1-0.3,0.3-0.5,0.6-0.6s0.6-0.2,0.9-0.2C577.2,80.7,577.4,80.8,577.7,80.9z M577.7,83c0.2-0.2,0.3-0.5,0.3-0.8
			c0-0.3-0.1-0.6-0.3-0.8c-0.2-0.2-0.5-0.3-0.9-0.3c-0.2,0-0.5,0-0.7,0.1c-0.2,0.1-0.3,0.2-0.4,0.4s-0.2,0.3-0.2,0.5
			c0,0.2,0,0.4,0.2,0.5c0.1,0.2,0.2,0.3,0.4,0.4c0.2,0.1,0.4,0.1,0.7,0.1C577.1,83.3,577.4,83.2,577.7,83z"/>
		<circle class="st4" cx="576.7" cy="81.2" r="3.4"/>
	</g>
</g>
<g id="Collegamenti">
	<g>
		<g>
			<line class="st5" x1="108.6" y1="80.7" x2="108.6" y2="80.7"/>
			<line class="st6" x1="109.4" y1="80.6" x2="134" y2="78.3"/>
			<line class="st5" x1="134.5" y1="78.2" x2="134.5" y2="78.2"/>
		</g>
	</g>
	<line class="st7" x1="163" y1="78.7" x2="303.4" y2="71.2"/>
	<line class="st7" x1="339.6" y1="71.3" x2="364.9" y2="71.2"/>
	<line class="st7" x1="393.1" y1="73.6" x2="533.9" y2="77.4"/>
</g>
<g id="Numeri-inferiori">
	<g>
		<path d="M106,89c0.3,0.2,0.4,0.6,0.4,1c0,0.3-0.1,0.5-0.2,0.7c-0.1,0.2-0.3,0.4-0.6,0.5c-0.3,0.1-0.6,0.2-1,0.2
			c-0.4,0-0.7-0.1-1-0.2c-0.3-0.1-0.6-0.3-0.8-0.5l0.2-0.4c0.2,0.2,0.4,0.3,0.7,0.4s0.6,0.2,0.9,0.2c0.4,0,0.7-0.1,0.9-0.3
			c0.2-0.2,0.3-0.4,0.3-0.7c0-0.3-0.1-0.5-0.3-0.7c-0.2-0.2-0.6-0.3-1-0.3h-0.4v-0.4l1.4-1.7H103v-0.4h3.1v0.4l-1.4,1.7
			C105.3,88.6,105.7,88.7,106,89z"/>
	</g>
	<g>
		<path d="M132.8,83c0.3,0.2,0.4,0.6,0.4,1c0,0.3-0.1,0.5-0.2,0.7c-0.1,0.2-0.3,0.4-0.6,0.5c-0.3,0.1-0.6,0.2-1,0.2
			c-0.4,0-0.7-0.1-1-0.2c-0.3-0.1-0.6-0.3-0.8-0.5l0.2-0.4c0.2,0.2,0.4,0.3,0.7,0.4s0.6,0.2,0.9,0.2c0.4,0,0.7-0.1,0.9-0.3
			c0.2-0.2,0.3-0.4,0.3-0.7c0-0.3-0.1-0.5-0.3-0.7c-0.2-0.2-0.6-0.3-1-0.3H131v-0.4l1.4-1.7h-2.5v-0.4h3.1v0.4l-1.4,1.7
			C132.1,82.6,132.5,82.7,132.8,83z"/>
	</g>
	<g>
		<path d="M157.3,89.1c-0.3-0.2-0.5-0.5-0.7-0.9c-0.2-0.4-0.2-0.8-0.2-1.3c0-0.5,0.1-1,0.2-1.3c0.2-0.4,0.4-0.7,0.7-0.9
			c0.3-0.2,0.6-0.3,1-0.3s0.7,0.1,1,0.3s0.5,0.5,0.7,0.9s0.3,0.8,0.3,1.3c0,0.5-0.1,1-0.3,1.3c-0.2,0.4-0.4,0.7-0.7,0.9
			s-0.6,0.3-1,0.3S157.6,89.3,157.3,89.1z M159.1,88.7c0.2-0.2,0.4-0.4,0.5-0.7c0.1-0.3,0.2-0.7,0.2-1.1c0-0.4-0.1-0.8-0.2-1.1
			c-0.1-0.3-0.3-0.5-0.5-0.7c-0.2-0.2-0.5-0.2-0.8-0.2s-0.5,0.1-0.8,0.2c-0.2,0.2-0.4,0.4-0.5,0.7c-0.1,0.3-0.2,0.7-0.2,1.1
			c0,0.4,0.1,0.8,0.2,1.1c0.1,0.3,0.3,0.5,0.5,0.7c0.2,0.2,0.5,0.2,0.8,0.2S158.8,88.9,159.1,88.7z"/>
	</g>
	<g>
		<path d="M184.1,85.1c-0.3-0.2-0.5-0.5-0.7-0.9c-0.2-0.4-0.2-0.8-0.2-1.3c0-0.5,0.1-1,0.2-1.3c0.2-0.4,0.4-0.7,0.7-0.9
			c0.3-0.2,0.6-0.3,1-0.3s0.7,0.1,1,0.3s0.5,0.5,0.7,0.9s0.3,0.8,0.3,1.3c0,0.5-0.1,1-0.3,1.3c-0.2,0.4-0.4,0.7-0.7,0.9
			s-0.6,0.3-1,0.3S184.4,85.3,184.1,85.1z M185.9,84.7c0.2-0.2,0.4-0.4,0.5-0.7c0.1-0.3,0.2-0.7,0.2-1.1c0-0.4-0.1-0.8-0.2-1.1
			c-0.1-0.3-0.3-0.5-0.5-0.7c-0.2-0.2-0.5-0.2-0.8-0.2s-0.5,0.1-0.8,0.2c-0.2,0.2-0.4,0.4-0.5,0.7c-0.1,0.3-0.2,0.7-0.2,1.1
			c0,0.4,0.1,0.8,0.2,1.1c0.1,0.3,0.3,0.5,0.5,0.7c0.2,0.2,0.5,0.2,0.8,0.2S185.6,84.9,185.9,84.7z"/>
	</g>
	<g>
		<path d="M221.8,82.9v0.4h-3.4V83l2-2c0.3-0.3,0.4-0.5,0.5-0.7c0.1-0.2,0.1-0.4,0.1-0.6c0-0.3-0.1-0.5-0.3-0.7
			c-0.2-0.2-0.5-0.2-0.9-0.2c-0.6,0-1,0.2-1.3,0.5l-0.4-0.3c0.2-0.2,0.4-0.4,0.7-0.5c0.3-0.1,0.6-0.2,1-0.2c0.5,0,0.9,0.1,1.2,0.4
			c0.3,0.2,0.4,0.6,0.4,1c0,0.3-0.1,0.5-0.2,0.7c-0.1,0.2-0.3,0.5-0.6,0.8l-1.7,1.6H221.8z"/>
	</g>
	<g>
		<path d="M248.6,82.9v0.4h-3.4V83l2-2c0.3-0.3,0.4-0.5,0.5-0.7c0.1-0.2,0.1-0.4,0.1-0.6c0-0.3-0.1-0.5-0.3-0.7
			c-0.2-0.2-0.5-0.2-0.9-0.2c-0.6,0-1,0.2-1.3,0.5l-0.4-0.3c0.2-0.2,0.4-0.4,0.7-0.5c0.3-0.1,0.6-0.2,1-0.2c0.5,0,0.9,0.1,1.2,0.4
			c0.3,0.2,0.4,0.6,0.4,1c0,0.3-0.1,0.5-0.2,0.7c-0.1,0.2-0.3,0.5-0.6,0.8l-1.7,1.6H248.6z"/>
	</g>
	<g>
		<path d="M274.9,79c0.3,0.2,0.4,0.6,0.4,1c0,0.3-0.1,0.5-0.2,0.7c-0.1,0.2-0.3,0.4-0.6,0.5c-0.3,0.1-0.6,0.2-1,0.2
			c-0.4,0-0.7-0.1-1-0.2c-0.3-0.1-0.6-0.3-0.8-0.5l0.2-0.4c0.2,0.2,0.4,0.3,0.7,0.4s0.6,0.2,0.9,0.2c0.4,0,0.7-0.1,0.9-0.3
			c0.2-0.2,0.3-0.4,0.3-0.7c0-0.3-0.1-0.5-0.3-0.7c-0.2-0.2-0.6-0.3-1-0.3h-0.4v-0.4l1.4-1.7H272v-0.4h3.1v0.4l-1.4,1.7
			C274.3,78.6,274.7,78.7,274.9,79z"/>
	</g>
	<g>
		<path d="M301.7,78c0.3,0.2,0.4,0.6,0.4,1c0,0.3-0.1,0.5-0.2,0.7c-0.1,0.2-0.3,0.4-0.6,0.5c-0.3,0.1-0.6,0.2-1,0.2
			c-0.4,0-0.7-0.1-1-0.2c-0.3-0.1-0.6-0.3-0.8-0.5l0.2-0.4c0.2,0.2,0.4,0.3,0.7,0.4s0.6,0.2,0.9,0.2c0.4,0,0.7-0.1,0.9-0.3
			c0.2-0.2,0.3-0.4,0.3-0.7c0-0.3-0.1-0.5-0.3-0.7c-0.2-0.2-0.6-0.3-1-0.3h-0.4v-0.4l1.4-1.7h-2.5v-0.4h3.1v0.4l-1.4,1.7
			C301.1,77.6,301.4,77.7,301.7,78z"/>
	</g>
	<g>
		<path d="M334.5,82.1c-0.3-0.2-0.5-0.5-0.7-0.9c-0.2-0.4-0.2-0.8-0.2-1.3c0-0.5,0.1-1,0.2-1.3s0.4-0.7,0.7-0.9
			c0.3-0.2,0.6-0.3,1-0.3s0.7,0.1,1,0.3c0.3,0.2,0.5,0.5,0.7,0.9s0.3,0.8,0.3,1.3c0,0.5-0.1,1-0.3,1.3c-0.2,0.4-0.4,0.7-0.7,0.9
			c-0.3,0.2-0.6,0.3-1,0.3S334.8,82.3,334.5,82.1z M336.3,81.7c0.2-0.2,0.4-0.4,0.5-0.7c0.1-0.3,0.2-0.7,0.2-1.1
			c0-0.4-0.1-0.8-0.2-1.1c-0.1-0.3-0.3-0.5-0.5-0.7c-0.2-0.2-0.5-0.2-0.8-0.2c-0.3,0-0.5,0.1-0.8,0.2c-0.2,0.2-0.4,0.4-0.5,0.7
			c-0.1,0.3-0.2,0.7-0.2,1.1c0,0.4,0.1,0.8,0.2,1.1c0.1,0.3,0.3,0.5,0.5,0.7c0.2,0.2,0.5,0.2,0.8,0.2
			C335.8,81.9,336,81.9,336.3,81.7z"/>
	</g>
	<g>
		<path d="M361.3,80.1c-0.3-0.2-0.5-0.5-0.7-0.9c-0.2-0.4-0.2-0.8-0.2-1.3c0-0.5,0.1-1,0.2-1.3s0.4-0.7,0.7-0.9
			c0.3-0.2,0.6-0.3,1-0.3s0.7,0.1,1,0.3c0.3,0.2,0.5,0.5,0.7,0.9s0.3,0.8,0.3,1.3c0,0.5-0.1,1-0.3,1.3c-0.2,0.4-0.4,0.7-0.7,0.9
			c-0.3,0.2-0.6,0.3-1,0.3S361.6,80.3,361.3,80.1z M363.1,79.7c0.2-0.2,0.4-0.4,0.5-0.7c0.1-0.3,0.2-0.7,0.2-1.1
			c0-0.4-0.1-0.8-0.2-1.1c-0.1-0.3-0.3-0.5-0.5-0.7c-0.2-0.2-0.5-0.2-0.8-0.2c-0.3,0-0.5,0.1-0.8,0.2c-0.2,0.2-0.4,0.4-0.5,0.7
			c-0.1,0.3-0.2,0.7-0.2,1.1c0,0.4,0.1,0.8,0.2,1.1c0.1,0.3,0.3,0.5,0.5,0.7c0.2,0.2,0.5,0.2,0.8,0.2
			C362.6,79.9,362.8,79.9,363.1,79.7z"/>
	</g>
	<g>
		<path d="M390.3,81c0.3,0.2,0.4,0.6,0.4,1c0,0.3-0.1,0.5-0.2,0.7c-0.1,0.2-0.3,0.4-0.6,0.5s-0.6,0.2-1,0.2c-0.4,0-0.7-0.1-1-0.2
			s-0.6-0.3-0.8-0.5l0.2-0.4c0.2,0.2,0.4,0.3,0.7,0.4s0.6,0.2,0.9,0.2c0.4,0,0.7-0.1,0.9-0.3c0.2-0.2,0.3-0.4,0.3-0.7
			c0-0.3-0.1-0.5-0.3-0.7c-0.2-0.2-0.6-0.3-1-0.3h-0.3v-0.4l1.4-1.7h-2.5v-0.4h3.2v0.4l-1.4,1.7C389.7,80.6,390,80.7,390.3,81z"/>
	</g>
	<g>
		<path d="M417.1,81c0.3,0.2,0.4,0.6,0.4,1c0,0.3-0.1,0.5-0.2,0.7c-0.1,0.2-0.3,0.4-0.6,0.5s-0.6,0.2-1,0.2c-0.4,0-0.7-0.1-1-0.2
			s-0.6-0.3-0.8-0.5l0.2-0.4c0.2,0.2,0.4,0.3,0.7,0.4s0.6,0.2,0.9,0.2c0.4,0,0.7-0.1,0.9-0.3c0.2-0.2,0.3-0.4,0.3-0.7
			c0-0.3-0.1-0.5-0.3-0.7c-0.2-0.2-0.6-0.3-1-0.3h-0.3v-0.4l1.4-1.7h-2.5v-0.4h3.2v0.4l-1.4,1.7C416.4,80.6,416.8,80.7,417.1,81z"/>
	</g>
	<g>
		<path d="M452.6,83.9v0.4h-3.4V84l2-2c0.3-0.3,0.4-0.5,0.5-0.7c0.1-0.2,0.1-0.4,0.1-0.6c0-0.3-0.1-0.5-0.3-0.7
			c-0.2-0.2-0.5-0.2-0.9-0.2c-0.6,0-1,0.2-1.3,0.5l-0.4-0.3c0.2-0.2,0.4-0.4,0.7-0.5c0.3-0.1,0.6-0.2,1-0.2c0.5,0,0.9,0.1,1.2,0.4
			c0.3,0.2,0.4,0.6,0.4,1c0,0.3-0.1,0.5-0.2,0.7c-0.1,0.2-0.3,0.5-0.6,0.8l-1.7,1.6H452.6z"/>
	</g>
	<g>
		<path d="M479.4,84.9v0.4H476V85l2-2c0.3-0.3,0.4-0.5,0.5-0.7c0.1-0.2,0.1-0.4,0.1-0.6c0-0.3-0.1-0.5-0.3-0.7
			c-0.2-0.2-0.5-0.2-0.9-0.2c-0.6,0-1,0.2-1.3,0.5l-0.4-0.3c0.2-0.2,0.4-0.4,0.7-0.5c0.3-0.1,0.6-0.2,1-0.2c0.5,0,0.9,0.1,1.2,0.4
			c0.3,0.2,0.4,0.6,0.4,1c0,0.3-0.1,0.5-0.2,0.7c-0.1,0.2-0.3,0.5-0.6,0.8l-1.7,1.6H479.4z"/>
	</g>
	<g>
		<path d="M503.5,86.1c-0.3-0.2-0.5-0.5-0.7-0.9c-0.2-0.4-0.2-0.8-0.2-1.3c0-0.5,0.1-1,0.2-1.3s0.4-0.7,0.7-0.9
			c0.3-0.2,0.6-0.3,1-0.3s0.7,0.1,1,0.3c0.3,0.2,0.5,0.5,0.7,0.9s0.3,0.8,0.3,1.3c0,0.5-0.1,1-0.3,1.3c-0.2,0.4-0.4,0.7-0.7,0.9
			c-0.3,0.2-0.6,0.3-1,0.3S503.8,86.3,503.5,86.1z M505.2,85.7c0.2-0.2,0.4-0.4,0.5-0.7c0.1-0.3,0.2-0.7,0.2-1.1
			c0-0.4-0.1-0.8-0.2-1.1c-0.1-0.3-0.3-0.5-0.5-0.7c-0.2-0.2-0.5-0.2-0.8-0.2c-0.3,0-0.5,0.1-0.8,0.2c-0.2,0.2-0.4,0.4-0.5,0.7
			c-0.1,0.3-0.2,0.7-0.2,1.1c0,0.4,0.1,0.8,0.2,1.1c0.1,0.3,0.3,0.5,0.5,0.7c0.2,0.2,0.5,0.2,0.8,0.2
			C504.8,85.9,505,85.9,505.2,85.7z"/>
	</g>
	<g>
		<path d="M530.3,86.1c-0.3-0.2-0.5-0.5-0.7-0.9c-0.2-0.4-0.2-0.8-0.2-1.3c0-0.5,0.1-1,0.2-1.3c0.2-0.4,0.4-0.7,0.7-0.9
			s0.6-0.3,1-0.3s0.7,0.1,1,0.3c0.3,0.2,0.5,0.5,0.7,0.9s0.3,0.8,0.3,1.3c0,0.5-0.1,1-0.3,1.3c-0.2,0.4-0.4,0.7-0.7,0.9
			c-0.3,0.2-0.6,0.3-1,0.3S530.5,86.3,530.3,86.1z M532,85.7c0.2-0.2,0.4-0.4,0.5-0.7c0.1-0.3,0.2-0.7,0.2-1.1
			c0-0.4-0.1-0.8-0.2-1.1c-0.1-0.3-0.3-0.5-0.5-0.7c-0.2-0.2-0.5-0.2-0.8-0.2c-0.3,0-0.5,0.1-0.8,0.2c-0.2,0.2-0.4,0.4-0.5,0.7
			c-0.1,0.3-0.2,0.7-0.2,1.1c0,0.4,0.1,0.8,0.2,1.1c0.1,0.3,0.3,0.5,0.5,0.7c0.2,0.2,0.5,0.2,0.8,0.2
			C531.5,85.9,531.8,85.9,532,85.7z"/>
	</g>
	<g>
		<path d="M578,90c0.3,0.2,0.4,0.6,0.4,1c0,0.3-0.1,0.5-0.2,0.7c-0.1,0.2-0.3,0.4-0.6,0.5s-0.6,0.2-1,0.2c-0.4,0-0.7-0.1-1-0.2
			s-0.6-0.3-0.8-0.5l0.2-0.4c0.2,0.2,0.4,0.3,0.7,0.4s0.6,0.2,0.9,0.2c0.4,0,0.7-0.1,0.9-0.3c0.2-0.2,0.3-0.4,0.3-0.7
			c0-0.3-0.1-0.5-0.3-0.7c-0.2-0.2-0.6-0.3-1-0.3h-0.3v-0.4l1.4-1.7H575v-0.4h3.2v0.4l-1.4,1.7C577.3,89.6,577.7,89.7,578,90z"/>
	</g>
</g>
<g id="Lezione">
	<g>
		<path d="M2.1,39.6h1.2v7.4h4.5v1H2.1V39.6z"/>
		<path d="M15.3,46.9v1H9.2v-8.4h5.9v1h-4.7v2.6h4.2v1h-4.2v2.7H15.3z"/>
		<path d="M23.6,46.9v1h-7v-0.8l5.3-6.5h-5.2v-1h6.8v0.8l-5.3,6.5H23.6z"/>
		<path d="M25.2,39.6h1.2V48h-1.2V39.6z"/>
		<path d="M30.4,47.5c-0.7-0.4-1.2-0.9-1.6-1.5c-0.4-0.7-0.6-1.4-0.6-2.2c0-0.8,0.2-1.5,0.6-2.2c0.4-0.7,0.9-1.2,1.6-1.5
			c0.7-0.4,1.4-0.6,2.3-0.6c0.8,0,1.6,0.2,2.3,0.6c0.7,0.4,1.2,0.9,1.6,1.5c0.4,0.7,0.6,1.4,0.6,2.2c0,0.8-0.2,1.6-0.6,2.2
			c-0.4,0.7-0.9,1.2-1.6,1.5c-0.7,0.4-1.4,0.6-2.3,0.6C31.8,48.1,31.1,47.9,30.4,47.5z M34.3,46.6c0.5-0.3,0.9-0.7,1.2-1.2
			c0.3-0.5,0.4-1,0.4-1.7c0-0.6-0.1-1.2-0.4-1.6c-0.3-0.5-0.7-0.9-1.2-1.2c-0.5-0.3-1-0.4-1.7-0.4c-0.6,0-1.2,0.1-1.7,0.4
			c-0.5,0.3-0.9,0.7-1.2,1.2c-0.3,0.5-0.4,1-0.4,1.6c0,0.6,0.1,1.2,0.4,1.7c0.3,0.5,0.7,0.9,1.2,1.2c0.5,0.3,1.1,0.4,1.7,0.4
			C33.3,47,33.9,46.8,34.3,46.6z"/>
		<path d="M46.2,39.6V48h-1l-5-6.3V48H39v-8.4h1l5,6.3v-6.3H46.2z"/>
		<path d="M54.8,46.9v1h-6.1v-8.4h5.9v1h-4.7v2.6h4.2v1h-4.2v2.7H54.8z"/>
		<path d="M26.6,61.3v1h-6v-0.8l3.4-3.3c0.4-0.4,0.7-0.7,0.8-1s0.2-0.6,0.2-0.9c0-0.4-0.2-0.8-0.5-1s-0.8-0.4-1.3-0.4
			c-0.9,0-1.6,0.3-2.1,0.9l-0.8-0.7c0.3-0.4,0.8-0.7,1.3-0.9c0.5-0.2,1.1-0.3,1.8-0.3c0.9,0,1.6,0.2,2.1,0.6c0.5,0.4,0.8,1,0.8,1.7
			c0,0.4-0.1,0.9-0.3,1.3c-0.2,0.4-0.6,0.9-1.1,1.4l-2.6,2.5H26.6z"/>
		<path d="M33.7,54v0.8l-3.4,7.6H29l3.3-7.4h-3.8v1.5h-1.2V54H33.7z"/>
		<path d="M34.3,62.2c-0.2-0.2-0.2-0.4-0.2-0.6c0-0.2,0.1-0.4,0.2-0.6c0.2-0.2,0.4-0.2,0.6-0.2c0.2,0,0.4,0.1,0.6,0.2
			c0.2,0.2,0.2,0.3,0.2,0.6c0,0.2-0.1,0.4-0.2,0.6c-0.2,0.2-0.3,0.2-0.6,0.2C34.7,62.4,34.5,62.4,34.3,62.2z"/>
	</g>
	<g>
		<path d="M37.4,52.8c0.3,0.3,0.4,0.6,0.4,1.1v2.2h-0.6v-0.5c-0.1,0.2-0.3,0.3-0.5,0.4c-0.2,0.1-0.5,0.1-0.7,0.1
			c-0.4,0-0.7-0.1-1-0.3c-0.3-0.2-0.4-0.5-0.4-0.8s0.1-0.6,0.4-0.8s0.6-0.3,1.1-0.3h1.1v-0.1c0-0.3-0.1-0.5-0.3-0.7
			c-0.2-0.2-0.4-0.2-0.7-0.2c-0.2,0-0.4,0-0.6,0.1c-0.2,0.1-0.4,0.2-0.5,0.3l-0.3-0.5c0.2-0.2,0.4-0.3,0.7-0.4s0.5-0.1,0.8-0.1
			C36.8,52.4,37.2,52.5,37.4,52.8z M36.8,55.5c0.2-0.1,0.3-0.3,0.4-0.5v-0.5h-1c-0.6,0-0.9,0.2-0.9,0.6c0,0.2,0.1,0.3,0.2,0.4
			c0.1,0.1,0.3,0.2,0.6,0.2S36.6,55.6,36.8,55.5z"/>
	</g>
</g>
<g id="Guide" class="st8">
</g>
</svg>
