<?xml version="1.0" encoding="utf-8"?>
<!-- Generator: Adobe Illustrator 23.0.1, SVG Export Plug-In . SVG Version: 6.00 Build 0)  -->
<svg version="1.1" xmlns="http://www.w3.org/2000/svg" xmlns:xlink="http://www.w3.org/1999/xlink" x="0px" y="0px"
	 viewBox="0 0 841 409" style="enable-background:new 0 0 841 409;" xml:space="preserve">
<style type="text/css">
	.st0{fill:#E55100;}
	.st1{fill:#FF131A;}
	.st2{display:none;}
	.st3{fill:#FF0000;}
</style>
<g id="SX">
	<path class="st0" d="M377.1,168c-5.1,22.9-34.2,110.1-42.2,133.1c-6.6,17.6-21.2,50.5-51,67.8c-44.7,25.9-87.7,20.2-125.1-17.8
		l-3.1-2.8C111.5,306.5,76.2,271.9,47.7,244c-3.1-2.8-6.5-8.5-6.2-13.3c1-3.6,3.1-7.9,6.5-9.9c2.3-1.3,8.7-3.5,15,2
		c10.1,9.5,17.7,17.3,35.8,32.8l13.2,12.2c7.6,7.8,17.1,8.4,24,4.5c3.4-2,6.2-5.1,7.7-10.6c1.4-5.4-0.7-11.8-5.2-16.9
		c-1.3-2.3-8.9-10.1-18.5-21.4c-17.9-20.3-42.8-50.2-63.3-75c-4.9-3.3-6.9-6.7-6-10.3c1-3.6,3.7-6.8,7.2-8.7c1.1-0.7,9.2-5.3,15,2
		c10.9,13.6,48.1,59.3,62.9,76.8l3.8,3.9c8.3,9,17.1,8.4,21.7,5.8c8-4.6,10.4-13.7,5.8-21.7l-2-3.4c-8.6-14.9-44.5-76.8-64.4-111.1
		c-6-10.3,1.4-16.1,4.8-18.1c3.4-2,7.5-2.8,11.2-1.9c1.8,0.5,4.3,2.1,5.6,4.4c13.3,22.9,53.8,92.8,65,112.3
		c7.3,12.6,18.6,13.7,25.5,9.7c6.9-4,10.4-13.7,7.6-21.2c-0.7-1.1-3.5-8.7-7.7-18.5c-9.2-23.8-25.3-64.9-30.8-77
		c-4.2-9.8,3.2-15.6,5.5-16.9c3.4-2,7.5-2.8,10-1.2c3.6,1,4.9,3.3,6.9,6.7c7,17.4,54.8,139.6,55.5,140.7
		c6.3,16.2,16.2,22.7,23.5,24.7c15.1,5,33.2-0.9,40.6-14.4c2.6-6.1,7.8-18.3,17.1-49.7c5.5-16.9,19.4-22,30-14.3
		C373,150.4,378.8,157.8,377.1,168z M381.5,133.3c-13-9.3-28.5-9.5-41.1-2.2c-9.2,5.3-16.3,14.1-19.7,26.7
		c-7.4,24.2-12.9,41.1-16.2,46.1c-2.1,4.3-9.6,7.1-15.7,4.5c-4.3-2.1-8.1-6-10.9-13.6c-1.5-5.2-47.4-124-54.4-141.4
		C220,44.7,213.1,38,205.2,35c-9-2.4-17.9-1.9-25.9,2.8c-11.5,6.6-20.6,22.6-14.7,40.7c4.2,9.8,16.2,41.1,25.3,64.9
		c-16.6-28.6-40.5-69.9-49.8-85.9c-4-6.9-10.3-12.4-17.5-14.3c-9-2.4-17.2-0.7-25.3,3.9c-13.7,8-22.2,25.1-12.1,45.2
		c11.3,19.5,27.9,48.1,41.8,72.2c-14.7-17.5-30.8-37.3-36.6-44.6c-9.1-13.1-25.9-15.6-40.8-7c-9.8,4.2-17,12.9-17.6,22.4
		c-1.4,5.4-1.4,16.1,8.2,27.4c16,19.8,35.9,43.5,52.4,61.4c-7.4-4.9-11.9-9.9-18.2-15.5c-9.6-11.3-25.7-12.7-38.3-5.4
		c-9.2,5.3-14.5,14.5-16.3,24.7c-1.7,10.2,3.1,21.2,12.5,29.5C61,285.3,97,321,140.4,361.7l3.1,2.8c44.8,42.9,98,50.3,149.6,20.5
		c34.4-19.9,51.9-53,60.5-77.9c6.1-15.8,37.1-110.2,42.7-134.9C399.5,156.5,393.8,141.4,381.5,133.3z"/>
	<g>
		<path d="M21,199.1h-4.5v5.9h-2.3v-5.9H1.6v-1.7l11.9-14.8H16L4.6,197.1h9.7v-5.2h2.2v5.2H21V199.1z"/>
	</g>
	<g>
		<path d="M41,96.1c1.2,1.1,1.8,2.6,1.8,4.5c0,1.3-0.3,2.4-0.9,3.4c-0.6,1-1.5,1.8-2.8,2.4c-1.2,0.6-2.7,0.9-4.4,0.9
			c-1.6,0-3.2-0.3-4.6-0.8c-1.4-0.5-2.6-1.2-3.5-2.1l1.1-1.8c0.7,0.8,1.7,1.4,3,1.9s2.6,0.7,4,0.7c1.8,0,3.3-0.4,4.3-1.2
			c1-0.8,1.5-1.9,1.5-3.3c0-1.4-0.5-2.5-1.5-3.3c-1-0.8-2.5-1.2-4.5-1.2h-1.6v-1.7l6.2-7.8H27.5v-2h14.4v1.6l-6.3,8
			C38,94.3,39.7,95,41,96.1z"/>
	</g>
	<g>
		<path d="M101.3,37v2H85.6v-1.6l9.3-9.1c1.2-1.2,2-2.1,2.4-3c0.4-0.8,0.6-1.7,0.6-2.5c0-1.3-0.5-2.4-1.4-3.1
			c-0.9-0.7-2.2-1.1-3.9-1.1c-2.6,0-4.7,0.8-6.1,2.5l-1.6-1.4c0.9-1,2-1.8,3.3-2.4c1.4-0.6,2.9-0.8,4.6-0.8c2.3,0,4.1,0.5,5.4,1.6
			c1.3,1.1,2,2.6,2,4.4c0,1.2-0.3,2.3-0.8,3.3s-1.5,2.3-2.9,3.7L89,37H101.3z"/>
	</g>
	<g>
		<path d="M182.2,4.6V27h-2.3V6.6h-5.3v-2H182.2z"/>
	</g>
	<g>
		<path class="st1" d="M378,113l-7.2-9.9l-7.2,9.9h-2.7l8.5-11.5l-8-10.9h2.7l6.8,9.2l6.7-9.2h2.6l-7.9,10.8l8.5,11.6H378z"/>
	</g>
</g>
<g id="Guide" class="st2">
</g>
<g id="DX">
	<path class="st0" d="M469.9,147c10.6-7.7,24.5-2.6,30,14.3c9.3,31.4,14.5,43.6,17.1,49.7c7.5,13.5,25.5,19.4,40.6,14.4
		c7.2-1.9,17.1-8.4,23.5-24.7c0.7-1.1,48.5-123.4,55.5-140.7c2-3.4,3.3-5.7,6.9-6.7c2.5-1.6,6.6-0.8,10,1.2
		c2.3,1.3,9.6,7.1,5.5,16.9c-5.5,12.1-21.7,53.2-30.8,77c-4.2,9.8-7,17.4-7.7,18.5c-2.8,7.5,0.7,17.2,7.6,21.2
		c6.9,4,18.2,2.9,25.5-9.7c11.3-19.5,51.8-89.4,65-112.3c1.3-2.3,3.8-3.9,5.6-4.4c3.6-1,7.7-0.1,11.2,1.9c3.4,2,10.8,7.8,4.8,18.1
		c-19.9,34.4-55.7,96.2-64.4,111.1l-2,3.4c-4.6,8-2.2,17.1,5.8,21.7c4.6,2.7,13.4,3.2,21.7-5.8l3.8-3.9
		c14.7-17.5,51.9-63.3,62.9-76.8c5.8-7.4,13.8-2.7,15-2c3.4,2,6.2,5.1,7.2,8.7c1,3.6-1,7.1-6,10.3c-20.5,24.8-45.5,54.8-63.3,75
		c-9.6,11.3-17.2,19.1-18.5,21.4c-4.5,5.1-6.6,11.5-5.2,16.9c1.4,5.4,4.2,8.6,7.7,10.6c6.9,4,16.4,3.4,24-4.5l13.2-12.2
		c18.2-15.5,25.8-23.3,35.8-32.8c6.3-5.5,12.7-3.4,15-2c3.4,2,5.5,6.3,6.5,9.9c0.3,4.8-3,10.5-6.2,13.3
		c-28.4,27.9-63.8,62.5-107.9,104.3l-3.1,2.8c-37.3,38-80.4,43.7-125.1,17.8c-29.8-17.3-44.4-50.2-51-67.8
		c-8.1-23-37.1-110.2-42.2-133.1C462.1,157.8,467.9,150.4,469.9,147z M444.6,172.1c5.6,24.7,36.6,119.1,42.7,134.9
		c8.6,24.8,26.1,58,60.5,77.9c51.6,29.9,104.8,22.5,149.6-20.5l3.1-2.8c43.4-40.6,79.4-76.4,107.9-104.3
		c9.4-8.3,14.2-19.3,12.5-29.5c-1.7-10.2-7.1-19.4-16.3-24.7c-12.6-7.3-28.7-5.9-38.3,5.4c-6.3,5.5-10.7,10.6-18.2,15.5
		c16.5-18,36.4-41.7,52.4-61.4c9.6-11.3,9.7-22,8.2-27.4c-0.6-9.5-7.8-18.3-17.6-22.4c-14.9-8.6-31.7-6.1-40.8,7
		c-5.8,7.4-21.8,27.1-36.6,44.6c13.9-24.1,30.5-52.7,41.8-72.2c10.1-20.1,1.7-37.3-12.1-45.2c-8-4.6-16.2-6.3-25.3-3.9
		c-7.2,1.9-13.5,7.5-17.5,14.3c-9.3,16-33.2,57.3-49.8,85.9c9.2-23.8,21.2-55.1,25.3-64.9c5.9-18-3.2-34-14.7-40.7
		c-8-4.6-16.9-5.2-25.9-2.8c-7.9,3.1-14.8,9.8-18.3,18.5c-7,17.4-52.9,136.2-54.4,141.4c-2.8,7.5-6.6,11.5-10.9,13.6
		c-6.1,2.6-13.6-0.2-15.7-4.5c-3.3-4.9-8.7-21.9-16.2-46.1c-3.4-12.7-10.5-21.4-19.7-26.7c-12.6-7.3-28-7.1-41.1,2.2
		C447.1,141.4,441.4,156.5,444.6,172.1z"/>
	<g>
		<path class="st3" d="M836,205l-7.2-9.9l-7.2,9.9h-2.7l8.5-11.5l-8-10.9h2.7l6.8,9.2l6.7-9.2h2.6l-7.9,10.8l8.5,11.6H836z"/>
	</g>
	<g>
		<path d="M813.4,90.7c1.2,1.1,1.8,2.7,1.8,4.9V106H813v-2.6c-0.5,0.9-1.3,1.6-2.3,2c-1,0.5-2.2,0.7-3.5,0.7c-1.9,0-3.4-0.4-4.5-1.3
			s-1.7-2.1-1.7-3.6c0-1.4,0.5-2.6,1.6-3.5c1-0.9,2.7-1.3,4.9-1.3h5.3v-1c0-1.5-0.4-2.6-1.2-3.3s-2-1.1-3.6-1.1
			c-1.1,0-2.1,0.2-3.1,0.5c-1,0.4-1.8,0.8-2.5,1.5l-1-1.7c0.9-0.7,1.9-1.3,3.1-1.7c1.2-0.4,2.5-0.6,3.8-0.6
			C810.6,89,812.3,89.6,813.4,90.7z M810.9,103.5c0.9-0.6,1.6-1.4,2-2.5v-2.8h-5.3c-2.9,0-4.3,1-4.3,3c0,1,0.4,1.8,1.1,2.3
			c0.7,0.6,1.8,0.8,3.1,0.8C808.9,104.4,810,104.1,810.9,103.5z"/>
	</g>
	<g>
		<path d="M773.5,23.9c1.2,1.2,1.8,3,1.8,5.4V39H773v-9.5c0-1.7-0.4-3.1-1.3-4c-0.8-0.9-2-1.4-3.6-1.4c-1.8,0-3.1,0.5-4.1,1.6
			c-1,1.1-1.5,2.6-1.5,4.5V39h-2.3v-9.5c0-1.7-0.4-3.1-1.3-4c-0.8-0.9-2-1.4-3.6-1.4c-1.7,0-3.1,0.5-4.1,1.6c-1,1.1-1.5,2.6-1.5,4.5
			V39h-2.3V22.2h2.2v3.1c0.6-1,1.4-1.8,2.5-2.4c1.1-0.6,2.3-0.8,3.7-0.8c1.4,0,2.6,0.3,3.7,0.9c1,0.6,1.8,1.5,2.3,2.7
			c0.6-1.1,1.5-2,2.7-2.6c1.2-0.6,2.5-0.9,4-0.9C770.6,22,772.3,22.6,773.5,23.9z"/>
	</g>
	<g>
		<path d="M662.5,6c-0.3-0.3-0.5-0.7-0.5-1.2c0-0.4,0.2-0.8,0.5-1.1c0.3-0.3,0.7-0.5,1.2-0.5s0.9,0.2,1.2,0.5s0.5,0.7,0.5,1.1
			c0,0.5-0.2,0.9-0.5,1.2c-0.3,0.3-0.7,0.5-1.2,0.5S662.8,6.3,662.5,6z M662.5,10.2h2.3V27h-2.3V10.2z"/>
	</g>
	<g>
		<path d="M479.5,97.1c1.3,0.7,2.3,1.7,3,3c0.7,1.3,1.1,2.8,1.1,4.4c0,1.7-0.4,3.2-1.1,4.5c-0.7,1.3-1.7,2.3-3,3
			c-1.3,0.7-2.7,1.1-4.3,1.1c-1.4,0-2.6-0.3-3.7-0.8c-1.1-0.6-2-1.4-2.7-2.5v9.4h-2.3v-23h2.2v3.3c0.7-1.1,1.6-2,2.7-2.6
			c1.1-0.6,2.4-0.9,3.8-0.9C476.8,96,478.2,96.4,479.5,97.1z M478.2,110.3c1-0.5,1.7-1.3,2.3-2.3c0.5-1,0.8-2.1,0.8-3.4
			s-0.3-2.4-0.8-3.4c-0.5-1-1.3-1.8-2.3-2.3c-1-0.6-2-0.8-3.2-0.8c-1.2,0-2.3,0.3-3.2,0.8c-0.9,0.6-1.7,1.3-2.2,2.3
			c-0.5,1-0.8,2.1-0.8,3.4s0.3,2.4,0.8,3.4c0.5,1,1.3,1.8,2.2,2.3s2,0.8,3.2,0.8C476.2,111.1,477.3,110.9,478.2,110.3z"/>
	</g>
	<g>
	</g>
	<g>
	</g>
	<g>
	</g>
	<g>
	</g>
	<g>
	</g>
	<g>
	</g>
	<g>
	</g>
	<g>
	</g>
	<g>
	</g>
	<g>
	</g>
	<g>
	</g>
	<g>
	</g>
	<g>
	</g>
	<g>
	</g>
	<g>
	</g>
</g>
</svg>
