<?xml version="1.0" encoding="utf-8"?>
<!-- Generator: Adobe Illustrator 23.0.1, SVG Export Plug-In . SVG Version: 6.00 Build 0)  -->
<svg version="1.1" id="Livello_1" xmlns="http://www.w3.org/2000/svg" xmlns:xlink="http://www.w3.org/1999/xlink" x="0px" y="0px"
	 viewBox="0 0 137 137" style="enable-background:new 0 0 137 137;" xml:space="preserve">
<style type="text/css">
	.st0{fill:#E55100;stroke:#E55100;stroke-width:4;stroke-miterlimit:10;}
	.st1{fill:#FFFFFF;}
</style>
<g>
	<circle class="st0" cx="68.5" cy="68.5" r="65.5"/>
</g>
<g>
	<g>
		<path class="st1" d="M56.7,88.7c-3.5-2-6.2-4.8-8.2-8.6c-2-3.8-3-8.3-3-13.4s1-9.7,3-13.4c2-3.8,4.7-6.7,8.2-8.7
			c3.5-2,7.4-3,11.9-3c4.4,0,8.4,1,11.8,2.9c3.5,2,6.2,4.8,8.2,8.6c2,3.8,3,8.3,3,13.4s-1,9.7-3,13.4c-2,3.8-4.7,6.7-8.2,8.7
			c-3.5,2-7.4,3-11.8,3C64.1,91.6,60.2,90.6,56.7,88.7z M79.4,80.5c2.7-3.2,4.1-7.9,4-14c0-6.1-1.4-10.8-4.1-14
			c-2.7-3.2-6.4-4.8-10.9-4.8c-4.6,0-8.2,1.6-10.9,4.9c-2.7,3.2-4.1,7.9-4,14c0,6.1,1.4,10.8,4.1,14s6.4,4.8,11,4.8
			C73.1,85.4,76.7,83.7,79.4,80.5z"/>
	</g>
</g>
<g>
</g>
<g>
</g>
<g>
</g>
<g>
</g>
<g>
</g>
<g>
</g>
<g>
</g>
<g>
</g>
<g>
</g>
<g>
</g>
<g>
</g>
</svg>
