<?xml version="1.0" encoding="utf-8"?>
<!-- Generator: Adobe Illustrator 23.0.0, SVG Export Plug-In . SVG Version: 6.00 Build 0)  -->
<svg version="1.1" id="Livello_1" xmlns="http://www.w3.org/2000/svg" xmlns:xlink="http://www.w3.org/1999/xlink" x="0px" y="0px"
	 viewBox="0 0 1323.1 830.3" style="enable-background:new 0 0 1323.1 830.3;" xml:space="preserve">
<style type="text/css">
	.st0{display:none;}
	.st1{display:inline;fill:#E55100;stroke:#E55100;stroke-width:4;stroke-miterlimit:10;}
	.st2{display:inline;}
	.st3{fill:#FFFFFF;}
	.st4{fill:#E55100;stroke:#E55100;stroke-width:4;stroke-miterlimit:10;}
	.st5{fill:none;stroke:#000000;stroke-width:6;stroke-miterlimit:10;}
	.st6{fill:none;stroke:#000000;stroke-width:4;stroke-miterlimit:10;}
	.st7{fill:none;stroke:#000000;stroke-width:3;stroke-miterlimit:10;}
	.st8{fill:none;stroke:#000000;stroke-miterlimit:10;}
</style>
<g id="Corda_da_non_suonare" class="st0">
	<circle class="st1" cx="932.8" cy="-218.1" r="65.5"/>
	<g class="st2">
		<path class="st3" d="M947.3-200.6l-14.6-17.3l-14.3,17.4h-8l18.1-21.6l-17-20.4h7.9l13.6,16.1l13.3-16.2h7.5l-17,20.3l18.4,21.7
			H947.3z"/>
	</g>
</g>
<g id="Corda_da_non_suonare_2" class="st0">
	<circle class="st1" cx="338.8" cy="-219.1" r="65.5"/>
	<g class="st2">
		<path class="st3" d="M353.3-201.6l-14.6-17.3l-14.3,17.4h-8l18.1-21.6l-17-20.4h7.9l13.6,16.1l13.3-16.2h7.5l-17,20.3l18.4,21.7
			H353.3z"/>
	</g>
</g>
<g id="Dito_4" class="st0">
	<circle class="st1" cx="539.3" cy="935.9" r="65.5"/>
	<g class="st2">
		<path class="st3" d="M561.6,943.1h-9.2v10.3h-6.7v-10.3l-26.9,0.1V939l24.7-27.5h7.5l-23.7,26.6h18.6V929h6.5v9.1h9.2L561.6,943.1
			z"/>
	</g>
</g>
<g id="Dito_3" class="st0">
	<g class="st2">
		<circle class="st4" cx="737.3" cy="648.9" r="65.5"/>
	</g>
	<g class="st2">
		<g>
			<path class="st3" d="M750.2,645.9c2.5,2.1,3.8,4.9,3.8,8.2c0,2.4-0.7,4.6-2.1,6.5c-1.4,1.9-3.4,3.5-6.2,4.6
				c-2.7,1.1-6.1,1.7-10.1,1.7c-3.5,0-6.8-0.4-10-1.3s-5.8-2.1-7.8-3.7l3.2-4.7c1.7,1.4,3.8,2.4,6.4,3.3c2.6,0.8,5.3,1.2,8.2,1.2
				c3.6,0,6.4-0.7,8.4-2s3-3.1,3-5.5c0-2.3-1-4.1-3-5.4c-2-1.3-5-1.9-9-1.9h-3.9v-4.2l12.1-13l-23.3,0.1v-5.2l32-0.1v4.1l-12.6,13.6
				C744.1,642.5,747.7,643.8,750.2,645.9z"/>
		</g>
	</g>
</g>
<g id="Dito_2" class="st0">
	<g class="st2">
		<circle class="st4" cx="542.8" cy="349.9" r="65.5"/>
	</g>
	<g class="st2">
		<g>
			<path class="st3" d="M560.3,362.2v5.2l-34.8,0.1v-4.1l19.7-16.6c2.4-2,4-3.7,4.8-5.2s1.2-2.9,1.2-4.4c0-2.2-0.9-3.9-2.7-5.1
				c-1.8-1.2-4.3-1.8-7.7-1.8c-5.4,0-9.5,1.5-12.4,4.6l-4.7-3.5c1.9-2,4.4-3.6,7.4-4.7c3.1-1.1,6.5-1.7,10.3-1.7
				c5.1,0,9.1,1,12.1,3.1s4.5,4.9,4.5,8.5c0,2.2-0.5,4.4-1.6,6.4s-3.2,4.3-6.3,6.9l-14.6,12.4L560.3,362.2z"/>
		</g>
	</g>
</g>
<g id="Dito_1" class="st0">
	<g class="st2">
		<circle class="st4" cx="938.8" cy="52.9" r="65.5"/>
	</g>
	<g class="st2">
		<g>
			<path class="st3" d="M944.3,28.5l0.1,42h-6.9l-0.1-36.8h-10.9v-5.2H944.3z"/>
		</g>
	</g>
</g>
<g id="Vuota" class="st0">
	<g class="st2">
		<circle class="st4" cx="537" cy="-218.1" r="65.5"/>
	</g>
	<g class="st2">
		<g>
			<path class="st3" d="M525.2-197.9c-3.5-2-6.2-4.8-8.2-8.6c-2-3.8-3-8.3-3-13.4c0-5.1,1-9.7,3-13.4c2-3.8,4.7-6.7,8.2-8.7
				c3.5-2,7.4-3,11.9-3c4.4,0,8.4,1,11.8,2.9c3.5,2,6.2,4.8,8.2,8.6s3,8.3,3,13.4c0,5.1-1,9.7-3,13.4c-2,3.8-4.7,6.7-8.2,8.7
				s-7.4,3-11.8,3C532.6-195,528.7-196,525.2-197.9z M547.9-206.1c2.7-3.2,4.1-7.9,4-14c0-6.1-1.4-10.8-4.1-14s-6.4-4.8-10.9-4.8
				c-4.6,0-8.2,1.6-10.9,4.9c-2.7,3.2-4.1,7.9-4,14c0,6.1,1.4,10.8,4.1,14s6.4,4.8,11,4.8C541.6-201.2,545.2-202.9,547.9-206.1z"/>
		</g>
	</g>
</g>
<g>
	<g id="CAPOTASTO">
		<g>
			<rect x="222.1" y="113.7" width="22" height="603"/>
			<path d="M222.6,716.2h21v-602h-21V716.2 M221.6,717.2v-604h23v604H221.6L221.6,717.2z"/>
		</g>
		<g>
			<line class="st5" x1="243.6" y1="116.2" x2="1144.4" y2="116.2"/>
		</g>
		<line class="st6" x1="243.6" y1="316.2" x2="1144.4" y2="316.2"/>
		<line class="st7" x1="243.6" y1="516.7" x2="1145.1" y2="516.7"/>
		<line class="st7" x1="243.6" y1="715.7" x2="1145.1" y2="715.7"/>
		<line class="st8" x1="545.6" y1="116.2" x2="545.1" y2="715.7"/>
		<line class="st8" x1="845.1" y1="115.7" x2="845.1" y2="715.7"/>
		<line class="st8" x1="1145.1" y1="115.7" x2="1145.1" y2="715.7"/>
	</g>
	<g id="Note">
		<g>
			<path d="M1232.4,92.5V138l-4.6,0v-36.4l-17.9,30.6h-2.3l-17.9-30.4V138l-4.6,0V92.5h4l19.8,33.7l19.6-33.7L1232.4,92.5
				L1232.4,92.5z"/>
			<path d="M1246.2,95.4c-0.6-0.7-1-1.4-1-2.3s0.3-1.6,1-2.3c0.6-0.7,1.5-1,2.4-1c1,0,1.8,0.3,2.4,0.9s1,1.4,1,2.2
				c0,1-0.3,1.8-1,2.4c-0.7,0.6-1.5,1-2.4,1C1247.6,96.3,1246.8,96,1246.2,95.4z M1246.2,103.8h4.6V138h-4.6V103.8z"/>
		</g>
		<g>
			<path d="M1188.4,293.8h4.8v41.3l25.5,0v4.2l-30.3,0V293.8z"/>
			<path d="M1248.1,308.2c2.4,2.2,3.6,5.5,3.6,9.9v21.2h-4.4V334c-1,1.8-2.6,3.2-4.6,4.2s-4.4,1.5-7.2,1.5c-3.8,0-6.8-0.9-9.1-2.7
				c-2.3-1.8-3.4-4.2-3.4-7.2c0-2.9,1-5.2,3.2-7c2.1-1.8,5.4-2.7,10-2.7h10.9V318c0-2.9-0.8-5.2-2.5-6.7c-1.6-1.5-4.1-2.3-7.2-2.3
				c-2.2,0-4.2,0.4-6.2,1.1s-3.7,1.7-5.1,3l-2.1-3.4c1.7-1.5,3.8-2.6,6.2-3.4s5-1.2,7.7-1.2C1242.3,304.8,1245.7,306,1248.1,308.2z
				 M1242.9,334.2c1.9-1.2,3.3-2.9,4.2-5.2v-5.6h-10.7c-5.9,0-8.8,2-8.8,6.1c0,2,0.8,3.6,2.3,4.7s3.6,1.7,6.4,1.7
				C1238.8,336,1241,335.4,1242.9,334.2z"/>
		</g>
		<g>
			<path d="M1214.2,541.6l-10.4-14.6c-1.2,0.1-2.4,0.2-3.6,0.2H1188v14.4h-4.8v-45.5h17c5.8,0,10.4,1.4,13.6,4.2
				c3.3,2.8,4.9,6.6,4.9,11.4c0,3.6-0.9,6.6-2.7,9c-1.8,2.4-4.4,4.2-7.7,5.3l11.1,15.6H1214.2z M1210.4,520.1c2.4-2,3.6-4.8,3.6-8.4
				c0-3.7-1.2-6.5-3.6-8.5s-5.8-3-10.3-3H1188V523h12.1C1204.5,523.1,1208,522.1,1210.4,520.1z"/>
			<path d="M1258.9,525.9h-28.6c0.3,3.6,1.6,6.4,4.1,8.6s5.6,3.3,9.4,3.3c2.1,0,4.1-0.4,5.9-1.1c1.8-0.8,3.3-1.9,4.6-3.3l2.6,3
				c-1.5,1.8-3.4,3.2-5.7,4.2c-2.3,1-4.8,1.4-7.5,1.4c-3.5,0-6.6-0.7-9.3-2.2c-2.7-1.5-4.8-3.6-6.3-6.2s-2.3-5.6-2.3-9
				s0.7-6.3,2.2-9c1.5-2.6,3.4-4.7,6-6.2c2.5-1.5,5.4-2.2,8.5-2.2c3.2,0,6,0.7,8.5,2.2s4.5,3.5,5.9,6.1s2.1,5.6,2.1,9L1258.9,525.9z
				 M1234.1,514.3c-2.2,2.1-3.5,4.8-3.8,8.2h24.2c-0.3-3.4-1.6-6.1-3.8-8.2c-2.2-2.1-5-3.2-8.4-3.2
				C1239.1,511.1,1236.4,512.2,1234.1,514.3z"/>
		</g>
		<g>
			<path d="M1180.7,737c-3.1-1.1-5.5-2.5-7.2-4.3l1.9-3.7c1.6,1.6,3.8,3,6.6,4c2.7,1,5.5,1.5,8.5,1.5c4.1,0,7.1-0.7,9.2-2.2
				c2-1.5,3.1-3.4,3.1-5.8c0-1.8-0.6-3.3-1.7-4.4c-1.1-1.1-2.5-1.9-4.1-2.5s-3.8-1.2-6.7-1.9c-3.4-0.9-6.2-1.7-8.2-2.5
				s-3.8-2-5.2-3.7c-1.5-1.6-2.2-3.9-2.2-6.7c0-2.3,0.6-4.4,1.8-6.3c1.2-1.9,3.1-3.4,5.6-4.5s5.6-1.7,9.4-1.7c2.6,0,5.1,0.4,7.6,1.1
				s4.6,1.7,6.5,3l-1.6,3.8c-1.9-1.3-3.9-2.2-6.1-2.8c-2.2-0.6-4.3-0.9-6.4-0.9c-4,0-7,0.8-9,2.3s-3,3.5-3,5.9
				c0,1.8,0.6,3.3,1.7,4.4s2.5,2,4.2,2.5c1.7,0.6,3.9,1.2,6.7,1.9c3.3,0.8,6,1.6,8.1,2.4s3.8,2,5.2,3.6s2.1,3.8,2.1,6.6
				c0,2.3-0.6,4.4-1.9,6.3c-1.2,1.9-3.1,3.4-5.7,4.5c-2.6,1.1-5.7,1.7-9.4,1.7C1187,738.6,1183.8,738.1,1180.7,737z"/>
			<path d="M1221.9,736.3c-2.6-1.5-4.7-3.6-6.2-6.2s-2.3-5.6-2.3-9s0.8-6.3,2.3-9c1.5-2.6,3.6-4.7,6.2-6.2s5.6-2.2,8.9-2.2
				s6.3,0.7,8.9,2.2s4.7,3.5,6.2,6.2c1.5,2.6,2.2,5.6,2.2,9s-0.7,6.3-2.2,9c-1.5,2.6-3.6,4.7-6.2,6.2c-2.6,1.5-5.6,2.2-8.9,2.2
				C1227.6,738.6,1224.6,737.8,1221.9,736.3z M1237.4,732.8c1.9-1.1,3.4-2.7,4.5-4.7s1.6-4.4,1.6-7s-0.5-4.9-1.6-7
				c-1.1-2-2.6-3.6-4.5-4.7s-4.1-1.7-6.5-1.7s-4.6,0.6-6.5,1.7s-3.4,2.7-4.5,4.7s-1.7,4.4-1.7,7s0.6,4.9,1.7,7
				c1.1,2,2.6,3.6,4.5,4.7s4.1,1.7,6.5,1.7C1233.3,734.5,1235.4,733.9,1237.4,732.8z"/>
			<path d="M1257.6,690h4.6v48.2h-4.6V690z"/>
		</g>
	</g>
	<g>
		<g>
			<circle class="st4" cx="126.5" cy="116.2" r="65.5"/>
		</g>
		<g>
			<g>
				<path class="st3" d="M114.7,136.4c-3.5-2-6.2-4.8-8.2-8.6c-2-3.8-3-8.3-3-13.4s1-9.7,3-13.4c2-3.8,4.7-6.7,8.2-8.7s7.4-3,11.9-3
					c4.4,0,8.4,1,11.8,2.9c3.5,2,6.2,4.8,8.2,8.6c2,3.8,3,8.3,3,13.4s-1,9.7-3,13.4c-2,3.8-4.7,6.7-8.2,8.7s-7.4,3-11.8,3
					C122.1,139.3,118.2,138.3,114.7,136.4z M137.4,128.2c2.7-3.2,4.1-7.9,4-14c0-6.1-1.4-10.8-4.1-14c-2.7-3.2-6.4-4.8-10.9-4.8
					c-4.6,0-8.2,1.6-10.9,4.9c-2.7,3.2-4.1,7.9-4,14c0,6.1,1.4,10.8,4.1,14s6.4,4.8,11,4.8C131.1,133.1,134.7,131.4,137.4,128.2z"/>
			</g>
		</g>
	</g>
	<g>
		<g>
			<circle class="st4" cx="126.5" cy="316.5" r="65.5"/>
		</g>
		<g>
			<g>
				<path class="st3" d="M114.7,336.7c-3.5-2-6.2-4.8-8.2-8.6c-2-3.8-3-8.3-3-13.4s1-9.7,3-13.4c2-3.8,4.7-6.7,8.2-8.7s7.4-3,11.9-3
					c4.4,0,8.4,1,11.8,2.9c3.5,2,6.2,4.8,8.2,8.6c2,3.8,3,8.3,3,13.4s-1,9.7-3,13.4c-2,3.8-4.7,6.7-8.2,8.7s-7.4,3-11.8,3
					C122.1,339.6,118.2,338.6,114.7,336.7z M137.4,328.5c2.7-3.2,4.1-7.9,4-14c0-6.1-1.4-10.8-4.1-14c-2.7-3.2-6.4-4.8-10.9-4.8
					c-4.6,0-8.2,1.6-10.9,4.9c-2.7,3.2-4.1,7.9-4,14c0,6.1,1.4,10.8,4.1,14c2.7,3.2,6.4,4.8,11,4.8
					C131.1,333.4,134.7,331.7,137.4,328.5z"/>
			</g>
		</g>
	</g>
	<g>
		<g>
			<circle class="st4" cx="126.5" cy="518.9" r="65.5"/>
		</g>
		<g>
			<g>
				<path class="st3" d="M114.7,539.1c-3.5-2-6.2-4.8-8.2-8.6s-3-8.3-3-13.4c0-5.1,1-9.7,3-13.4c2-3.8,4.7-6.7,8.2-8.7s7.4-3,11.9-3
					c4.4,0,8.4,1,11.8,2.9c3.5,2,6.2,4.8,8.2,8.6s3,8.3,3,13.4c0,5.1-1,9.7-3,13.4c-2,3.8-4.7,6.7-8.2,8.7s-7.4,3-11.8,3
					C122.1,542,118.2,541,114.7,539.1z M137.4,530.9c2.7-3.2,4.1-7.9,4-14c0-6.1-1.4-10.8-4.1-14c-2.7-3.2-6.4-4.8-10.9-4.8
					c-4.6,0-8.2,1.6-10.9,4.9c-2.7,3.2-4.1,7.9-4,14c0,6.1,1.4,10.8,4.1,14s6.4,4.8,11,4.8C131.1,535.8,134.7,534.1,137.4,530.9z"/>
			</g>
		</g>
	</g>
	<g>
		<g>
			<circle class="st4" cx="126.5" cy="714.1" r="65.5"/>
		</g>
		<g>
			<g>
				<path class="st3" d="M114.7,734.3c-3.5-2-6.2-4.8-8.2-8.6s-3-8.3-3-13.4c0-5.1,1-9.7,3-13.4c2-3.8,4.7-6.7,8.2-8.7s7.4-3,11.9-3
					c4.4,0,8.4,1,11.8,2.9c3.5,2,6.2,4.8,8.2,8.6s3,8.3,3,13.4c0,5.1-1,9.7-3,13.4c-2,3.8-4.7,6.7-8.2,8.7s-7.4,3-11.8,3
					C122.1,737.2,118.2,736.2,114.7,734.3z M137.4,726.1c2.7-3.2,4.1-7.9,4-14c0-6.1-1.4-10.8-4.1-14s-6.4-4.8-10.9-4.8
					c-4.6,0-8.2,1.6-10.9,4.9c-2.7,3.2-4.1,7.9-4,14c0,6.1,1.4,10.8,4.1,14c2.7,3.2,6.4,4.8,11,4.8
					C131.1,731,134.7,729.3,137.4,726.1z"/>
			</g>
		</g>
	</g>
</g>
</svg>
