<?xml version="1.0" encoding="utf-8"?>
<!-- Generator: Adobe Illustrator 23.0.1, SVG Export Plug-In . SVG Version: 6.00 Build 0)  -->
<svg version="1.1" xmlns="http://www.w3.org/2000/svg" xmlns:xlink="http://www.w3.org/1999/xlink" x="0px" y="0px"
	 viewBox="0 0 406 96" style="enable-background:new 0 0 406 96;" xml:space="preserve">
<style type="text/css">
	.st0{fill:none;stroke:#000000;stroke-width:0.6449;stroke-miterlimit:10;}
	.st1{fill:none;stroke:#000000;stroke-width:0.7937;stroke-miterlimit:10;}
	.st2{fill:none;stroke:#000000;stroke-width:0.5953;stroke-miterlimit:10;}
	.st3{fill:none;stroke:#000000;stroke-width:2.4803;stroke-miterlimit:10;}
	.st4{display:none;}
</style>
<g id="Livello_1">
	<g>
		<line class="st0" x1="19.2" y1="30.5" x2="387.6" y2="30.5"/>
		<line class="st0" x1="19.2" y1="35.4" x2="387.6" y2="35.4"/>
		<line class="st0" x1="19.2" y1="40.4" x2="387.6" y2="40.4"/>
		<line class="st0" x1="19.2" y1="45.4" x2="387.6" y2="45.4"/>
		<line class="st0" x1="19.2" y1="50.3" x2="387.6" y2="50.3"/>
		<path d="M26.3,30.8v8.7c0,0.2,0.1,0.1,0.2,0.1c0.5-0.1,1.3-0.7,1.8-2.9c0.1-0.3,0.2-0.5,0.4-0.5c0.2,0,0.3,0.2,0.4,0.5
			c0.3,0.9,0.7,1.8,2.1,1.8c1.3,0,1.6-1.3,1.6-3.9c0-2.6-0.5-3.6-2.1-3.6c-0.4,0-0.8,0.1-1.2,0.2c-0.3,0.1-0.5,0.2-0.5,0.4
			c0,0.1,0.3,0.2,0.5,0.3c0.4,0.1,0.8,0.5,0.8,1.3c0,0.9-0.6,1.4-1.3,1.4c-0.9,0-1.5-0.6-1.5-1.6c0-1.3,1.1-2.5,3.5-2.5
			c3.3,0,4.7,2.3,4.7,4.3c0,2.7-1.5,4.6-4.1,4.6c-0.6,0-1-0.1-1.2-0.2c-0.2-0.1-0.4-0.1-0.6,0c-0.3,0.2-0.7,0.8-0.7,1.2
			c0,0.4,0.4,1,0.7,1.2c0.2,0.1,0.4,0.1,0.6,0c0.3-0.1,0.6-0.2,1.2-0.2c2.6,0,4.1,1.9,4.1,4.6c0,2.1-1.4,4.3-4.7,4.3
			c-2.4,0-3.5-1.3-3.5-2.5c0-1.1,0.7-1.6,1.5-1.6c0.8,0,1.3,0.5,1.3,1.4c0,0.8-0.4,1.2-0.8,1.3C29.3,49,29,49.1,29,49.2
			s0.2,0.3,0.5,0.4c0.3,0.1,0.7,0.2,1.2,0.2c1.6,0,2.1-1.2,2.1-3.8s-0.4-3.9-1.6-3.9c-1.4,0-1.9,1-2.1,1.8c-0.1,0.3-0.2,0.5-0.4,0.5
			c-0.2,0-0.3-0.2-0.4-0.5c-0.4-2.2-1.3-2.8-1.8-2.9c-0.1,0-0.2,0-0.2,0.1V50c0,0.3-0.1,0.4-0.4,0.4l0,0c-0.3,0-0.4-0.1-0.4-0.4
			V30.8c0-0.3,0.1-0.4,0.4-0.4l0,0C26.1,30.4,26.3,30.6,26.3,30.8z M22.1,30.4h1.7c0.3,0,0.4,0.1,0.4,0.4V50c0,0.3-0.1,0.4-0.4,0.4
			h-1.7c-0.3,0-0.4-0.1-0.4-0.4V30.8C21.7,30.6,21.8,30.4,22.1,30.4z"/>
		<path d="M47.3,35.4c0.4,0,3.4,0.2,3.4,2.8c0,1.6-1.5,1.7-1.5,1.7c-0.6,0-1.5-0.4-1.5-1.5c0-0.6,0.5-1.5,1.3-1.5
			c0.3,0,0.4-0.3,0.4-0.4c0-0.2-0.4-0.7-1.4-0.7c-1.1,0-2.6,0.7-2.6,3.9c0,3.3,0.9,4.8,2.5,4.8c0.6,0,2.8-0.6,2.8-3.2
			c0-0.3,0.1-0.4,0.3-0.4c0.1,0,0.3,0,0.3,0.4c0,0.6-0.5,3.7-4,3.7c-1.2,0-2.3-0.4-3-1.3c-0.7-0.8-1.2-1.8-1.3-2.9
			c0-0.2,0-0.4,0-0.5c0-1.9,0.9-4,2.7-4.8C46.1,35.6,46.7,35.4,47.3,35.4z"/>
		<line class="st1" x1="56" y1="55.3" x2="66.8" y2="55.3"/>
		<line class="st2" x1="64" y1="54.5" x2="64" y2="37.9"/>
		<path d="M60.4,57.8c-1.1,0-1.9-0.6-1.9-1.6c0-1.7,1.7-3.3,3.9-3.3c1.1,0,1.9,0.6,1.9,1.6C64.3,56.1,62.2,57.8,60.4,57.8z"/>
		<line class="st2" x1="103.5" y1="52" x2="103.5" y2="35.4"/>
		<path d="M99.9,55.3c-1.1,0-1.9-0.6-1.9-1.6c0-1.7,1.7-3.3,3.9-3.3c1.1,0,1.9,0.6,1.9,1.6C103.8,53.7,101.6,55.3,99.9,55.3z"/>
		<line class="st2" x1="142.9" y1="49.5" x2="142.9" y2="33"/>
		<path d="M139.3,52.8c-1.1,0-1.9-0.6-1.9-1.6c0-1.7,1.7-3.3,3.9-3.3c1.1,0,1.9,0.6,1.9,1.6C143.2,51.2,141.1,52.8,139.3,52.8z"/>
		<line class="st2" x1="182.4" y1="47" x2="182.4" y2="30.5"/>
		<path d="M178.8,50.3c-1.1,0-1.9-0.6-1.9-1.6c0-1.7,1.7-3.3,3.9-3.3c1.1,0,1.9,0.6,1.9,1.6C182.7,48.7,180.5,50.3,178.8,50.3z"/>
		<line class="st1" x1="216.7" y1="30.5" x2="216.7" y2="50.3"/>
		<line class="st2" x1="230.1" y1="44.5" x2="230.1" y2="28"/>
		<path d="M226.4,47.8c-1.1,0-1.9-0.6-1.9-1.6c0-1.7,1.7-3.3,3.9-3.3c1.1,0,1.9,0.6,1.9,1.6C230.4,46.2,228.2,47.8,226.4,47.8z"/>
		<line class="st2" x1="269.5" y1="42.1" x2="269.5" y2="25.5"/>
		<path d="M265.9,45.4c-1.1,0-1.9-0.6-1.9-1.6c0-1.7,1.7-3.3,3.9-3.3c1.1,0,1.9,0.6,1.9,1.6C269.8,43.7,267.7,45.4,265.9,45.4z"/>
		<line class="st2" x1="303.7" y1="41.2" x2="303.7" y2="57.8"/>
		<path d="M305.4,42.9c-1.1,0-1.9-0.6-1.9-1.6c0-1.7,1.7-3.3,3.9-3.3c1.1,0,1.9,0.6,1.9,1.6C309.3,41.3,307.1,42.9,305.4,42.9z"/>
		<line class="st2" x1="343.2" y1="38.8" x2="343.2" y2="55.3"/>
		<path d="M344.8,40.4c-1.1,0-1.9-0.6-1.9-1.6c0-1.7,1.7-3.3,3.9-3.3c1.1,0,1.9,0.6,1.9,1.6C348.7,38.8,346.6,40.4,344.8,40.4z"/>
		<line class="st1" x1="382.7" y1="30.5" x2="382.7" y2="50.3"/>
		<line class="st3" x1="386.3" y1="30.5" x2="386.3" y2="50.3"/>
		<line class="st1" x1="19.2" y1="30.5" x2="19.2" y2="50.3"/>
	</g>
	<g id="Note">
		<g>
			<path d="M60.2,71l-1.8-2.6c-0.2,0-0.4,0-0.5,0h-2.1V71h-1.2v-8.4h3.3c1.1,0,1.9,0.3,2.6,0.8c0.6,0.5,0.9,1.2,0.9,2.1
				c0,0.6-0.2,1.2-0.5,1.7s-0.8,0.8-1.4,1l2,2.8C61.5,71,60.2,71,60.2,71z M59.6,67c0.4-0.3,0.6-0.8,0.6-1.4s-0.2-1.1-0.6-1.4
				c-0.4-0.3-1-0.5-1.7-0.5h-2v3.8h2C58.6,67.5,59.2,67.3,59.6,67z"/>
			<path d="M68.9,68.2h-5.2c0.1,0.6,0.3,1,0.7,1.4c0.4,0.3,0.9,0.5,1.6,0.5c0.8,0,1.4-0.3,1.8-0.8l0.6,0.7c-0.3,0.3-0.6,0.6-1.1,0.8
				s-0.9,0.3-1.4,0.3c-0.7,0-1.3-0.1-1.8-0.4c-0.5-0.3-0.9-0.7-1.2-1.2c-0.2-0.5-0.3-1-0.3-1.7c0-0.6,0.1-1.2,0.4-1.7
				s0.7-0.9,1.1-1.2c0.5-0.3,1-0.4,1.6-0.4s1.1,0.1,1.6,0.4s0.8,0.7,1.1,1.2c0.3,0.5,0.4,1.1,0.4,1.7C68.9,68,68.9,68.1,68.9,68.2z
				 M64.4,66.1c-0.4,0.3-0.6,0.8-0.7,1.3h4.1c-0.1-0.5-0.3-1-0.7-1.3s-0.8-0.5-1.4-0.5C65.2,65.6,64.8,65.7,64.4,66.1z"/>
		</g>
		<g>
			<path d="M102.5,71v-6.1l-3,5.1h-0.6l-3-5.1V71h-1.2v-8.4h1l3.5,5.9l3.5-5.9h1V71H102.5z"/>
			<path d="M106,63.2c-0.1-0.1-0.2-0.3-0.2-0.5s0.1-0.4,0.2-0.5s0.3-0.2,0.6-0.2s0.4,0.1,0.6,0.2c0.1,0.1,0.2,0.3,0.2,0.5
				s-0.1,0.4-0.2,0.5s-0.3,0.2-0.6,0.2S106.2,63.4,106,63.2z M106,64.7h1.2V71H106V64.7z"/>
		</g>
		<g>
			<path d="M135.5,63.7v2.9h4.2v1h-4.2V71h-1.2v-8.4h5.9v1h-4.7V63.7z"/>
			<path d="M145.8,65.3c0.5,0.4,0.7,1.1,0.7,1.9V71h-1.1v-0.8c-0.2,0.3-0.5,0.5-0.8,0.7c-0.4,0.2-0.8,0.2-1.3,0.2
				c-0.7,0-1.3-0.2-1.7-0.5c-0.4-0.3-0.6-0.8-0.6-1.4c0-0.6,0.2-1,0.6-1.3c0.4-0.3,1.1-0.5,1.9-0.5h1.8v-0.2c0-0.5-0.1-0.9-0.4-1.1
				c-0.3-0.3-0.7-0.4-1.3-0.4c-0.4,0-0.7,0.1-1.1,0.2c-0.4,0.1-0.7,0.3-0.9,0.5l-0.5-0.9c0.3-0.3,0.7-0.5,1.2-0.6s0.9-0.2,1.5-0.2
				C144.7,64.6,145.4,64.8,145.8,65.3z M144.7,69.9c0.3-0.2,0.6-0.5,0.7-0.8v-0.9h-1.8c-1,0-1.5,0.3-1.5,1c0,0.3,0.1,0.6,0.4,0.8
				c0.2,0.2,0.6,0.3,1,0.3C143.9,70.3,144.4,70.1,144.7,69.9z"/>
		</g>
		<g>
			<path d="M172.4,70.8c-0.6-0.2-1-0.4-1.4-0.8l0.4-0.9c0.3,0.3,0.7,0.5,1.2,0.7c0.5,0.2,1,0.3,1.5,0.3c0.7,0,1.2-0.1,1.6-0.4
				c0.3-0.2,0.5-0.6,0.5-0.9c0-0.3-0.1-0.5-0.3-0.7c-0.2-0.2-0.4-0.3-0.7-0.4c-0.3-0.1-0.7-0.2-1.2-0.3c-0.6-0.2-1.1-0.3-1.5-0.5
				s-0.7-0.4-1-0.7c-0.3-0.3-0.4-0.7-0.4-1.3c0-0.4,0.1-0.9,0.4-1.2c0.2-0.4,0.6-0.6,1.1-0.9s1.1-0.3,1.8-0.3c0.5,0,1,0.1,1.5,0.2
				s0.9,0.3,1.2,0.6l-0.4,1c-0.4-0.2-0.7-0.4-1.1-0.5s-0.8-0.2-1.2-0.2c-0.7,0-1.2,0.1-1.5,0.4c-0.3,0.2-0.5,0.6-0.5,1
				c0,0.3,0.1,0.5,0.3,0.7c0.2,0.2,0.4,0.3,0.7,0.4c0.3,0.1,0.7,0.2,1.2,0.3c0.6,0.2,1.1,0.3,1.5,0.5s0.7,0.4,1,0.7
				c0.3,0.3,0.4,0.7,0.4,1.3c0,0.4-0.1,0.8-0.4,1.2c-0.2,0.4-0.6,0.7-1.1,0.9c-0.5,0.2-1.1,0.3-1.8,0.3
				C173.6,71.1,173,71,172.4,70.8z"/>
			<path d="M180.1,70.7c-0.5-0.3-0.9-0.7-1.2-1.2s-0.4-1-0.4-1.7c0-0.7,0.1-1.2,0.4-1.7c0.3-0.5,0.7-0.9,1.2-1.2
				c0.5-0.3,1.1-0.4,1.7-0.4s1.2,0.1,1.7,0.4s0.9,0.7,1.2,1.2s0.4,1,0.4,1.7c0,0.7-0.1,1.2-0.4,1.7c-0.3,0.5-0.7,0.9-1.2,1.2
				c-0.5,0.3-1.1,0.4-1.7,0.4S180.6,71,180.1,70.7z M182.9,69.8c0.3-0.2,0.6-0.5,0.8-0.8s0.3-0.7,0.3-1.2s-0.1-0.8-0.3-1.2
				s-0.4-0.6-0.8-0.8c-0.3-0.2-0.7-0.3-1.1-0.3c-0.4,0-0.8,0.1-1.1,0.3c-0.3,0.2-0.6,0.4-0.8,0.8c-0.2,0.3-0.3,0.7-0.3,1.2
				s0.1,0.8,0.3,1.2c0.2,0.3,0.4,0.6,0.8,0.8c0.3,0.2,0.7,0.3,1.1,0.3S182.6,70,182.9,69.8z"/>
			<path d="M186.7,62.1h1.2V71h-1.2V62.1z"/>
		</g>
		<g>
			<path d="M221.5,62.6h1.2V70h4.5v1h-5.7V62.6z"/>
			<path d="M232.9,65.3c0.5,0.4,0.7,1.1,0.7,1.9V71h-1.1v-0.8c-0.2,0.3-0.5,0.5-0.8,0.7c-0.4,0.2-0.8,0.2-1.3,0.2
				c-0.7,0-1.3-0.2-1.7-0.5c-0.4-0.3-0.6-0.8-0.6-1.4c0-0.6,0.2-1,0.6-1.3c0.4-0.3,1.1-0.5,1.9-0.5h1.8v-0.2c0-0.5-0.1-0.9-0.4-1.1
				c-0.3-0.3-0.7-0.4-1.3-0.4c-0.4,0-0.7,0.1-1.1,0.2c-0.4,0.1-0.7,0.3-0.9,0.5l-0.5-0.9c0.3-0.3,0.7-0.5,1.2-0.6s0.9-0.2,1.5-0.2
				C231.7,64.6,232.4,64.8,232.9,65.3z M231.7,69.9c0.3-0.2,0.6-0.5,0.7-0.8v-0.9h-1.8c-1,0-1.5,0.3-1.5,1c0,0.3,0.1,0.6,0.4,0.8
				c0.2,0.2,0.6,0.3,1,0.3C231,70.2,231.4,70.1,231.7,69.9z"/>
		</g>
		<g>
			<path d="M263.4,70.8c-0.6-0.2-1-0.4-1.4-0.8l0.4-0.9c0.3,0.3,0.7,0.5,1.2,0.7c0.5,0.2,1,0.3,1.5,0.3c0.7,0,1.2-0.1,1.6-0.4
				c0.4-0.3,0.5-0.6,0.5-0.9c0-0.3-0.1-0.5-0.3-0.7c-0.2-0.2-0.4-0.3-0.7-0.4c-0.3-0.1-0.7-0.2-1.2-0.3c-0.6-0.2-1.1-0.3-1.5-0.5
				s-0.7-0.4-1-0.7c-0.3-0.3-0.4-0.7-0.4-1.3c0-0.4,0.1-0.9,0.4-1.2c0.2-0.4,0.6-0.6,1.1-0.9c0.5-0.2,1.1-0.3,1.8-0.3
				c0.5,0,1,0.1,1.5,0.2c0.5,0.1,0.9,0.3,1.2,0.6l-0.4,1c-0.4-0.2-0.7-0.4-1.1-0.5c-0.4-0.1-0.8-0.2-1.2-0.2c-0.7,0-1.2,0.1-1.5,0.4
				c-0.3,0.3-0.5,0.6-0.5,1c0,0.3,0.1,0.5,0.3,0.7c0.2,0.2,0.4,0.3,0.7,0.4c0.3,0.1,0.7,0.2,1.2,0.3c0.6,0.2,1.1,0.3,1.5,0.5
				s0.7,0.4,1,0.7c0.3,0.3,0.4,0.7,0.4,1.3c0,0.4-0.1,0.8-0.4,1.2c-0.2,0.4-0.6,0.7-1.1,0.9c-0.5,0.2-1.1,0.3-1.8,0.3
				C264.6,71.1,264,71,263.4,70.8z"/>
			<path d="M270.1,63.2c-0.1-0.1-0.2-0.3-0.2-0.5s0.1-0.4,0.2-0.5s0.3-0.2,0.6-0.2c0.2,0,0.4,0.1,0.6,0.2c0.1,0.1,0.2,0.3,0.2,0.5
				s-0.1,0.4-0.2,0.5c-0.1,0.1-0.3,0.2-0.6,0.2C270.4,63.4,270.2,63.4,270.1,63.2z M270,64.7h1.2V71H270V64.7z"/>
		</g>
		<g>
			<path d="M298.8,62.6h3.5c0.9,0,1.7,0.2,2.4,0.5c0.7,0.4,1.2,0.8,1.6,1.5c0.4,0.6,0.6,1.4,0.6,2.2c0,0.8-0.2,1.6-0.6,2.2
				c-0.4,0.6-0.9,1.1-1.6,1.5s-1.5,0.5-2.4,0.5h-3.5V62.6z M302.3,70c0.7,0,1.3-0.1,1.8-0.4c0.5-0.3,0.9-0.6,1.2-1.1s0.4-1,0.4-1.7
				c0-0.7-0.1-1.2-0.4-1.6c-0.3-0.5-0.7-0.8-1.2-1.1c-0.5-0.3-1.1-0.4-1.8-0.4H300V70H302.3z"/>
			<path d="M309.6,70.7c-0.5-0.3-0.9-0.7-1.2-1.2c-0.3-0.5-0.4-1.1-0.4-1.7c0-0.6,0.1-1.2,0.4-1.7s0.7-0.9,1.2-1.2
				c0.5-0.3,1.1-0.4,1.7-0.4s1.2,0.1,1.7,0.4s0.9,0.7,1.2,1.2s0.4,1,0.4,1.7c0,0.7-0.1,1.2-0.4,1.7s-0.7,0.9-1.2,1.2
				c-0.5,0.3-1.1,0.4-1.7,0.4S310.1,71,309.6,70.7z M312.4,69.8c0.3-0.2,0.6-0.5,0.8-0.8c0.2-0.3,0.3-0.7,0.3-1.2
				c0-0.4-0.1-0.8-0.3-1.2c-0.2-0.3-0.4-0.6-0.8-0.8c-0.3-0.2-0.7-0.3-1.1-0.3s-0.8,0.1-1.1,0.3c-0.3,0.2-0.6,0.4-0.8,0.8
				c-0.2,0.3-0.3,0.7-0.3,1.2c0,0.4,0.1,0.8,0.3,1.2c0.2,0.3,0.4,0.6,0.8,0.8c0.4,0.2,0.7,0.3,1.1,0.3
				C311.7,70.1,312.1,70,312.4,69.8z"/>
		</g>
		<g>
			<path d="M344.6,71l-1.8-2.6c-0.2,0-0.4,0-0.5,0h-2.1V71H339v-8.4h3.3c1.1,0,1.9,0.3,2.6,0.8s0.9,1.2,0.9,2.1
				c0,0.6-0.2,1.2-0.5,1.7s-0.8,0.8-1.4,1l2,2.8C345.9,71,344.6,71,344.6,71z M344,67c0.4-0.3,0.6-0.8,0.6-1.4s-0.2-1.1-0.6-1.4
				c-0.4-0.3-1-0.5-1.7-0.5h-2v3.8h2C343,67.5,343.6,67.3,344,67z"/>
			<path d="M353.3,68.2h-5.2c0.1,0.6,0.3,1,0.7,1.4c0.4,0.3,0.9,0.5,1.6,0.5c0.8,0,1.4-0.3,1.8-0.8l0.6,0.7
				c-0.3,0.3-0.6,0.6-1.1,0.8s-0.9,0.3-1.4,0.3c-0.7,0-1.3-0.1-1.8-0.4c-0.5-0.3-0.9-0.7-1.2-1.2s-0.4-1.1-0.4-1.7
				c0-0.6,0.1-1.2,0.4-1.7s0.7-0.9,1.1-1.2c0.5-0.3,1-0.4,1.6-0.4s1.2,0.1,1.6,0.4c0.5,0.3,0.8,0.7,1.1,1.2c0.3,0.5,0.4,1.1,0.4,1.7
				C353.3,68,353.3,68.1,353.3,68.2z M348.8,66.1c-0.4,0.3-0.6,0.8-0.7,1.3h4.1c-0.1-0.5-0.3-1-0.7-1.3c-0.4-0.3-0.8-0.5-1.4-0.5
				C349.6,65.6,349.2,65.7,348.8,66.1z"/>
		</g>
	</g>
</g>
<g id="Guide" class="st4">
</g>
</svg>
