<?xml version="1.0" encoding="utf-8"?>
<!-- Generator: Adobe Illustrator 23.0.1, SVG Export Plug-In . SVG Version: 6.00 Build 0)  -->
<svg version="1.1" xmlns="http://www.w3.org/2000/svg" xmlns:xlink="http://www.w3.org/1999/xlink" x="0px" y="0px"
	 viewBox="0 0 406 96" style="enable-background:new 0 0 406 96;" xml:space="preserve">
<style type="text/css">
	.st0{fill:none;stroke:#000000;stroke-width:0.6449;stroke-miterlimit:10;}
	.st1{fill:none;stroke:#000000;stroke-width:0.7937;stroke-miterlimit:10;}
	.st2{fill:none;stroke:#000000;stroke-width:0.5953;stroke-miterlimit:10;}
	.st3{fill:none;stroke:#000000;stroke-width:2.4803;stroke-miterlimit:10;}
</style>
<g id="Note_1_">
	<g id="Note">
		<g>
			<path d="M62.6,71v-6.1l-3,5.1H59l-3-5.1V71h-1.2v-8.4h1l3.5,5.9l3.5-5.9h1V71H62.6z"/>
			<path d="M66.1,63.2c-0.1-0.1-0.2-0.3-0.2-0.5s0.1-0.4,0.2-0.5s0.3-0.2,0.6-0.2s0.4,0.1,0.6,0.2c0.1,0.1,0.2,0.3,0.2,0.5
				s-0.1,0.4-0.2,0.5s-0.3,0.2-0.6,0.2S66.3,63.4,66.1,63.2z M66.1,64.7h1.2V71h-1.2V64.7z"/>
		</g>
		<g>
			<path d="M95.8,63.7v2.9h4.2v1h-4.2V71h-1.2v-8.4h5.9v1h-4.7V63.7z"/>
			<path d="M106.1,65.3c0.5,0.4,0.7,1.1,0.7,1.9V71h-1.1v-0.8c-0.2,0.3-0.5,0.5-0.8,0.7c-0.4,0.2-0.8,0.2-1.3,0.2
				c-0.7,0-1.3-0.2-1.7-0.5s-0.6-0.8-0.6-1.4s0.2-1,0.6-1.3c0.4-0.3,1.1-0.5,1.9-0.5h1.8v-0.2c0-0.5-0.1-0.9-0.4-1.1
				c-0.3-0.3-0.7-0.4-1.3-0.4c-0.4,0-0.7,0.1-1.1,0.2c-0.4,0.1-0.7,0.3-0.9,0.5l-0.5-0.9c0.3-0.3,0.7-0.5,1.2-0.6s0.9-0.2,1.5-0.2
				C105,64.6,105.7,64.8,106.1,65.3z M105,69.9c0.3-0.2,0.6-0.5,0.7-0.8v-0.9h-1.8c-1,0-1.5,0.3-1.5,1c0,0.3,0.1,0.6,0.4,0.8
				c0.2,0.2,0.6,0.3,1,0.3C104.2,70.3,104.7,70.1,105,69.9z"/>
		</g>
		<g>
			<path d="M133.1,70.8c-0.6-0.2-1-0.4-1.4-0.8l0.4-0.9c0.3,0.3,0.7,0.5,1.2,0.7s1,0.3,1.5,0.3c0.7,0,1.2-0.1,1.6-0.4
				c0.3-0.2,0.5-0.6,0.5-0.9s-0.1-0.5-0.3-0.7s-0.4-0.3-0.7-0.4s-0.7-0.2-1.2-0.3c-0.6-0.2-1.1-0.3-1.5-0.5s-0.7-0.4-1-0.7
				c-0.3-0.3-0.4-0.7-0.4-1.3c0-0.4,0.1-0.9,0.4-1.2c0.2-0.4,0.6-0.6,1.1-0.9s1.1-0.3,1.8-0.3c0.5,0,1,0.1,1.5,0.2s0.9,0.3,1.2,0.6
				l-0.4,1c-0.4-0.2-0.7-0.4-1.1-0.5s-0.8-0.2-1.2-0.2c-0.7,0-1.2,0.1-1.5,0.4c-0.3,0.2-0.5,0.6-0.5,1c0,0.3,0.1,0.5,0.3,0.7
				s0.4,0.3,0.7,0.4s0.7,0.2,1.2,0.3c0.6,0.2,1.1,0.3,1.5,0.5s0.7,0.4,1,0.7c0.3,0.3,0.4,0.7,0.4,1.3c0,0.4-0.1,0.8-0.4,1.2
				c-0.2,0.4-0.6,0.7-1.1,0.9c-0.5,0.2-1.1,0.3-1.8,0.3C134.3,71.1,133.7,71,133.1,70.8z"/>
			<path d="M140.8,70.7c-0.5-0.3-0.9-0.7-1.2-1.2s-0.4-1-0.4-1.7s0.1-1.2,0.4-1.7c0.3-0.5,0.7-0.9,1.2-1.2c0.5-0.3,1.1-0.4,1.7-0.4
				s1.2,0.1,1.7,0.4s0.9,0.7,1.2,1.2s0.4,1,0.4,1.7s-0.1,1.2-0.4,1.7c-0.3,0.5-0.7,0.9-1.2,1.2c-0.5,0.3-1.1,0.4-1.7,0.4
				S141.3,71,140.8,70.7z M143.6,69.8c0.3-0.2,0.6-0.5,0.8-0.8s0.3-0.7,0.3-1.2s-0.1-0.8-0.3-1.2s-0.4-0.6-0.8-0.8
				c-0.3-0.2-0.7-0.3-1.1-0.3c-0.4,0-0.8,0.1-1.1,0.3c-0.3,0.2-0.6,0.4-0.8,0.8c-0.2,0.3-0.3,0.7-0.3,1.2s0.1,0.8,0.3,1.2
				c0.2,0.3,0.4,0.6,0.8,0.8c0.3,0.2,0.7,0.3,1.1,0.3S143.3,70,143.6,69.8z"/>
			<path d="M147.4,62.1h1.2V71h-1.2V62.1z"/>
		</g>
		<g>
			<path d="M173.6,62.6h1.2V70h4.5v1h-5.7V62.6z"/>
			<path d="M185,65.3c0.5,0.4,0.7,1.1,0.7,1.9V71h-1.1v-0.8c-0.2,0.3-0.5,0.5-0.8,0.7c-0.4,0.2-0.8,0.2-1.3,0.2
				c-0.7,0-1.3-0.2-1.7-0.5s-0.6-0.8-0.6-1.4s0.2-1,0.6-1.3c0.4-0.3,1.1-0.5,1.9-0.5h1.8v-0.2c0-0.5-0.1-0.9-0.4-1.1
				c-0.3-0.3-0.7-0.4-1.3-0.4c-0.4,0-0.7,0.1-1.1,0.2c-0.4,0.1-0.7,0.3-0.9,0.5l-0.5-0.9c0.3-0.3,0.7-0.5,1.2-0.6s0.9-0.2,1.5-0.2
				C183.8,64.6,184.5,64.8,185,65.3z M183.8,69.9c0.3-0.2,0.6-0.5,0.7-0.8v-0.9h-1.8c-1,0-1.5,0.3-1.5,1c0,0.3,0.1,0.6,0.4,0.8
				c0.2,0.2,0.6,0.3,1,0.3C183.1,70.2,183.5,70.1,183.8,69.9z"/>
		</g>
		<g>
			<path d="M224,70.8c-0.6-0.2-1-0.4-1.4-0.8l0.4-0.9c0.3,0.3,0.7,0.5,1.2,0.7s1,0.3,1.5,0.3c0.7,0,1.2-0.1,1.6-0.4s0.5-0.6,0.5-0.9
				s-0.1-0.5-0.3-0.7c-0.2-0.2-0.4-0.3-0.7-0.4c-0.3-0.1-0.7-0.2-1.2-0.3c-0.6-0.2-1.1-0.3-1.5-0.5s-0.7-0.4-1-0.7
				c-0.3-0.3-0.4-0.7-0.4-1.3c0-0.4,0.1-0.9,0.4-1.2c0.2-0.4,0.6-0.6,1.1-0.9c0.5-0.2,1.1-0.3,1.8-0.3c0.5,0,1,0.1,1.5,0.2
				c0.5,0.1,0.9,0.3,1.2,0.6l-0.4,1c-0.4-0.2-0.7-0.4-1.1-0.5s-0.8-0.2-1.2-0.2c-0.7,0-1.2,0.1-1.5,0.4c-0.3,0.3-0.5,0.6-0.5,1
				c0,0.3,0.1,0.5,0.3,0.7c0.2,0.2,0.4,0.3,0.7,0.4c0.3,0.1,0.7,0.2,1.2,0.3c0.6,0.2,1.1,0.3,1.5,0.5s0.7,0.4,1,0.7
				c0.3,0.3,0.4,0.7,0.4,1.3c0,0.4-0.1,0.8-0.4,1.2c-0.2,0.4-0.6,0.7-1.1,0.9c-0.5,0.2-1.1,0.3-1.8,0.3
				C225.2,71.1,224.6,71,224,70.8z"/>
			<path d="M230.7,63.2c-0.1-0.1-0.2-0.3-0.2-0.5s0.1-0.4,0.2-0.5s0.3-0.2,0.6-0.2c0.2,0,0.4,0.1,0.6,0.2c0.1,0.1,0.2,0.3,0.2,0.5
				s-0.1,0.4-0.2,0.5s-0.3,0.2-0.6,0.2S230.8,63.4,230.7,63.2z M230.6,64.7h1.2V71h-1.2V64.7z"/>
		</g>
		<g>
			<path d="M258.9,62.6h3.5c0.9,0,1.7,0.2,2.4,0.5c0.7,0.4,1.2,0.8,1.6,1.5c0.4,0.6,0.6,1.4,0.6,2.2c0,0.8-0.2,1.6-0.6,2.2
				s-0.9,1.1-1.6,1.5s-1.5,0.5-2.4,0.5h-3.5V62.6z M262.4,70c0.7,0,1.3-0.1,1.8-0.4s0.9-0.6,1.2-1.1s0.4-1,0.4-1.7s-0.1-1.2-0.4-1.6
				c-0.3-0.5-0.7-0.8-1.2-1.1c-0.5-0.3-1.1-0.4-1.8-0.4h-2.3V70H262.4z"/>
			<path d="M269.7,70.7c-0.5-0.3-0.9-0.7-1.2-1.2c-0.3-0.5-0.4-1.1-0.4-1.7s0.1-1.2,0.4-1.7s0.7-0.9,1.2-1.2
				c0.5-0.3,1.1-0.4,1.7-0.4s1.2,0.1,1.7,0.4s0.9,0.7,1.2,1.2s0.4,1,0.4,1.7s-0.1,1.2-0.4,1.7s-0.7,0.9-1.2,1.2
				c-0.5,0.3-1.1,0.4-1.7,0.4S270.2,71,269.7,70.7z M272.5,69.8c0.3-0.2,0.6-0.5,0.8-0.8c0.2-0.3,0.3-0.7,0.3-1.2
				c0-0.4-0.1-0.8-0.3-1.2c-0.2-0.3-0.4-0.6-0.8-0.8c-0.3-0.2-0.7-0.3-1.1-0.3s-0.8,0.1-1.1,0.3c-0.3,0.2-0.6,0.4-0.8,0.8
				c-0.2,0.3-0.3,0.7-0.3,1.2c0,0.4,0.1,0.8,0.3,1.2c0.2,0.3,0.4,0.6,0.8,0.8c0.4,0.2,0.7,0.3,1.1,0.3
				C271.8,70.1,272.2,70,272.5,69.8z"/>
		</g>
		<g>
			<path d="M304.7,71l-1.8-2.6c-0.2,0-0.4,0-0.5,0h-2.1V71h-1.2v-8.4h3.3c1.1,0,1.9,0.3,2.6,0.8s0.9,1.2,0.9,2.1
				c0,0.6-0.2,1.2-0.5,1.7s-0.8,0.8-1.4,1l2,2.8H304.7z M304.1,67c0.4-0.3,0.6-0.8,0.6-1.4s-0.2-1.1-0.6-1.4c-0.4-0.3-1-0.5-1.7-0.5
				h-2v3.8h2C303.1,67.5,303.7,67.3,304.1,67z"/>
			<path d="M313.4,68.2h-5.2c0.1,0.6,0.3,1,0.7,1.4c0.4,0.3,0.9,0.5,1.6,0.5c0.8,0,1.4-0.3,1.8-0.8l0.6,0.7
				c-0.3,0.3-0.6,0.6-1.1,0.8s-0.9,0.3-1.4,0.3c-0.7,0-1.3-0.1-1.8-0.4s-0.9-0.7-1.2-1.2s-0.4-1.1-0.4-1.7s0.1-1.2,0.4-1.7
				s0.7-0.9,1.1-1.2c0.5-0.3,1-0.4,1.6-0.4s1.2,0.1,1.6,0.4c0.5,0.3,0.8,0.7,1.1,1.2c0.3,0.5,0.4,1.1,0.4,1.7
				C313.4,68,313.4,68.1,313.4,68.2z M308.9,66.1c-0.4,0.3-0.6,0.8-0.7,1.3h4.1c-0.1-0.5-0.3-1-0.7-1.3c-0.4-0.3-0.8-0.5-1.4-0.5
				C309.7,65.6,309.3,65.7,308.9,66.1z"/>
		</g>
		<g>
			<path d="M347.2,71.1v-6.1l-3,5.1h-0.6l-3-5.1v6.1h-1.2v-8.4h1l3.5,5.9l3.5-5.9h1v8.4H347.2z"/>
			<path d="M350.7,63.3c-0.1-0.1-0.2-0.3-0.2-0.5s0.1-0.4,0.2-0.5s0.3-0.2,0.6-0.2s0.4,0.1,0.6,0.2c0.1,0.1,0.2,0.3,0.2,0.5
				s-0.1,0.4-0.2,0.5c-0.1,0.1-0.3,0.2-0.6,0.2S350.9,63.5,350.7,63.3z M350.7,64.8h1.2v6.3h-1.2V64.8z"/>
		</g>
	</g>
</g>
<g id="Pentagramma">
	<line class="st0" x1="19.2" y1="31" x2="387.6" y2="31"/>
	<line class="st0" x1="19.2" y1="36" x2="387.6" y2="36"/>
	<line class="st0" x1="19.2" y1="40.9" x2="387.6" y2="40.9"/>
	<line class="st0" x1="19.2" y1="45.9" x2="387.6" y2="45.9"/>
	<line class="st0" x1="19.2" y1="50.9" x2="387.6" y2="50.9"/>
	<path d="M34.2,32.4c0.6,0,1.1,0.5,1.1,1.1s-0.5,1.1-1.1,1.1s-1.1-0.5-1.1-1.1S33.6,32.4,34.2,32.4z M34.2,37.4
		c0.6,0,1.1,0.5,1.1,1.1s-0.5,1.1-1.1,1.1s-1.1-0.5-1.1-1.1S33.6,37.4,34.2,37.4z M26.7,30.8c3.4,0,5.5,2.3,5.5,5.8
		c0,2.6-1,5-2.8,6.9c-2.1,2.3-4.6,3.8-7.3,5.1c-0.1,0.1-0.2,0.1-0.3,0.1c-0.2,0-0.3-0.1-0.3-0.2c0-0.2,0.1-0.3,0.3-0.4
		c2.5-1.4,4.5-3.1,5.7-4.9c1.2-1.9,1.7-4.3,1.7-6.3c0-3.1-0.9-5.2-3-5.2c-2,0-3.2,1.4-3.2,2.2c0,0.2,0.1,0.4,0.3,0.4s0.5-0.1,1-0.1
		c1,0,1.9,0.8,1.9,2.1c0,1.2-0.9,2.1-2.1,2.1c-1.6,0-2.4-1.4-2.4-3C21.7,33.3,23.2,30.8,26.7,30.8z"/>
	<path d="M47.1,36c0.4,0,3.4,0.2,3.4,2.8c0,1.6-1.5,1.7-1.5,1.7c-0.6,0-1.5-0.4-1.5-1.5c0-0.6,0.5-1.5,1.3-1.5
		c0.3,0,0.4-0.3,0.4-0.4c0-0.2-0.4-0.7-1.4-0.7c-1.1,0-2.6,0.7-2.6,3.9c0,3.3,0.9,4.8,2.5,4.8c0.6,0,2.8-0.6,2.8-3.2
		c0-0.3,0.1-0.4,0.3-0.4c0.1,0,0.3,0,0.3,0.4c0,0.6-0.5,3.7-4,3.7c-1.2,0-2.3-0.4-3-1.3c-0.7-0.8-1.2-1.8-1.3-2.9c0-0.2,0-0.4,0-0.5
		c0-1.9,0.9-4,2.7-4.8C45.8,36.1,46.5,36,47.1,36z"/>
	<line class="st1" x1="55.8" y1="55.8" x2="66.6" y2="55.8"/>
	<line class="st2" x1="63.8" y1="55" x2="63.8" y2="38.5"/>
	<path d="M60.2,58.3c-1.1,0-1.9-0.6-1.9-1.6c0-1.7,1.7-3.3,3.9-3.3c1.1,0,1.9,0.6,1.9,1.6C64.1,56.7,62,58.3,60.2,58.3z"/>
	<line class="st2" x1="103.3" y1="52.5" x2="103.3" y2="36"/>
	<path d="M99.7,55.8c-1.1,0-1.9-0.6-1.9-1.6c0-1.7,1.7-3.3,3.9-3.3c1.1,0,1.9,0.6,1.9,1.6C103.6,54.2,101.4,55.8,99.7,55.8z"/>
	<line class="st2" x1="142.8" y1="49.8" x2="142.8" y2="33.2"/>
	<path d="M139.1,53.1c-1.1,0-1.9-0.6-1.9-1.6c0-1.7,1.7-3.3,3.9-3.3c1.1,0,1.9,0.6,1.9,1.6C143.1,51.5,140.9,53.1,139.1,53.1z"/>
	<line class="st2" x1="182.3" y1="47.4" x2="182.3" y2="30.8"/>
	<path d="M178.6,50.7c-1.1,0-1.9-0.6-1.9-1.6c0-1.7,1.7-3.3,3.9-3.3c1.1,0,1.9,0.6,1.9,1.6C182.6,49,180.4,50.7,178.6,50.7z"/>
	<line class="st1" x1="216.6" y1="31" x2="216.6" y2="50.9"/>
	<line class="st2" x1="230" y1="44.9" x2="230" y2="28.4"/>
	<path d="M226.3,48.2c-1.1,0-1.9-0.6-1.9-1.6c0-1.7,1.7-3.3,3.9-3.3c1.1,0,1.9,0.6,1.9,1.6C230.3,46.6,228.1,48.2,226.3,48.2z"/>
	<line class="st2" x1="264.2" y1="44" x2="264.2" y2="60.6"/>
	<path d="M265.8,45.7c-1.1,0-1.9-0.6-1.9-1.6c0-1.7,1.7-3.3,3.9-3.3c1.1,0,1.9,0.6,1.9,1.6C269.7,44,267.6,45.7,265.8,45.7z"/>
	<line class="st2" x1="303.7" y1="41.4" x2="303.7" y2="57.9"/>
	<path d="M305.3,43c-1.1,0-1.9-0.6-1.9-1.6c0-1.7,1.7-3.3,3.9-3.3c1.1,0,1.9,0.6,1.9,1.6C309.2,41.4,307.1,43,305.3,43z"/>
	<line class="st2" x1="343.1" y1="39.1" x2="343.1" y2="55.6"/>
	<path d="M344.8,40.7c-1.1,0-1.9-0.6-1.9-1.6c0-1.7,1.7-3.3,3.9-3.3c1.1,0,1.9,0.6,1.9,1.6C348.7,39.1,346.5,40.7,344.8,40.7z"/>
	<line class="st1" x1="382.7" y1="31" x2="382.7" y2="50.9"/>
	<line class="st3" x1="386.3" y1="31" x2="386.3" y2="50.9"/>
	<line class="st1" x1="19.2" y1="31" x2="19.2" y2="50.9"/>
</g>
</svg>
