<?xml version="1.0" encoding="utf-8"?>
<!-- Generator: Adobe Illustrator 23.0.1, SVG Export Plug-In . SVG Version: 6.00 Build 0)  -->
<svg version="1.1" xmlns="http://www.w3.org/2000/svg" xmlns:xlink="http://www.w3.org/1999/xlink" x="0px" y="0px"
	 viewBox="0 0 406 96" style="enable-background:new 0 0 406 96;" xml:space="preserve">
<style type="text/css">
	.st0{fill:none;stroke:#000000;stroke-width:0.6449;stroke-miterlimit:10;}
	.st1{fill:none;stroke:#000000;stroke-width:0.7937;stroke-miterlimit:10;}
	.st2{fill:none;stroke:#000000;stroke-width:0.5953;stroke-miterlimit:10;}
	.st3{fill:none;stroke:#000000;stroke-width:2.4803;stroke-miterlimit:10;}
</style>
<g id="Note_1_">
	<g id="Note">
		<g>
			<path d="M52.9,62.6h3.5c0.9,0,1.7,0.2,2.4,0.5c0.7,0.4,1.2,0.8,1.6,1.5c0.4,0.6,0.6,1.4,0.6,2.2c0,0.8-0.2,1.6-0.6,2.2
				s-0.9,1.1-1.6,1.5S57.3,71,56.4,71h-3.5V62.6z M56.4,70c0.7,0,1.3-0.1,1.8-0.4s0.9-0.6,1.2-1.1s0.4-1,0.4-1.7s-0.1-1.2-0.4-1.6
				c-0.3-0.5-0.7-0.8-1.2-1.1c-0.5-0.3-1.1-0.4-1.8-0.4h-2.3V70H56.4z"/>
			<path d="M63.7,70.7c-0.5-0.3-0.9-0.7-1.2-1.2c-0.3-0.5-0.4-1.1-0.4-1.7s0.1-1.2,0.4-1.7s0.7-0.9,1.2-1.2c0.5-0.3,1.1-0.4,1.7-0.4
				s1.2,0.1,1.7,0.4s0.9,0.7,1.2,1.2s0.4,1,0.4,1.7s-0.1,1.2-0.4,1.7s-0.7,0.9-1.2,1.2c-0.5,0.3-1.1,0.4-1.7,0.4S64.2,71,63.7,70.7z
				 M66.5,69.8c0.3-0.2,0.6-0.5,0.8-0.8c0.2-0.3,0.3-0.7,0.3-1.2c0-0.4-0.1-0.8-0.3-1.2c-0.2-0.3-0.4-0.6-0.8-0.8
				c-0.3-0.2-0.7-0.3-1.1-0.3s-0.8,0.1-1.1,0.3c-0.3,0.2-0.6,0.4-0.8,0.8c-0.2,0.3-0.3,0.7-0.3,1.2c0,0.4,0.1,0.8,0.3,1.2
				c0.2,0.3,0.4,0.6,0.8,0.8c0.4,0.2,0.7,0.3,1.1,0.3C65.8,70.1,66.2,70,66.5,69.8z"/>
		</g>
		<g>
			<path d="M98.8,71L97,68.4c-0.2,0-0.4,0-0.5,0h-2.1V71h-1.2v-8.4h3.3c1.1,0,1.9,0.3,2.6,0.8s0.9,1.2,0.9,2.1
				c0,0.6-0.2,1.2-0.5,1.7s-0.8,0.8-1.4,1l2,2.8H98.8z M98.2,67c0.4-0.3,0.6-0.8,0.6-1.4s-0.2-1.1-0.6-1.4c-0.4-0.3-1-0.5-1.7-0.5
				h-2v3.8h2C97.2,67.5,97.8,67.3,98.2,67z"/>
			<path d="M107.5,68.2h-5.2c0.1,0.6,0.3,1,0.7,1.4c0.4,0.3,0.9,0.5,1.6,0.5c0.8,0,1.4-0.3,1.8-0.8L107,70c-0.3,0.3-0.6,0.6-1.1,0.8
				s-0.9,0.3-1.4,0.3c-0.7,0-1.3-0.1-1.8-0.4s-0.9-0.7-1.2-1.2s-0.4-1.1-0.4-1.7s0.1-1.2,0.4-1.7s0.7-0.9,1.1-1.2
				c0.5-0.3,1-0.4,1.6-0.4s1.2,0.1,1.6,0.4c0.5,0.3,0.8,0.7,1.1,1.2c0.3,0.5,0.4,1.1,0.4,1.7C107.5,68,107.5,68.1,107.5,68.2z
				 M103,66.1c-0.4,0.3-0.6,0.8-0.7,1.3h4.1c-0.1-0.5-0.3-1-0.7-1.3c-0.4-0.3-0.8-0.5-1.4-0.5C103.8,65.6,103.4,65.7,103,66.1z"/>
		</g>
		<g>
			<path d="M141.3,71.1v-6.1l-3,5.1h-0.6l-3-5.1v6.1h-1.2v-8.4h1l3.5,5.9l3.5-5.9h1v8.4H141.3z"/>
			<path d="M144.8,63.3c-0.1-0.1-0.2-0.3-0.2-0.5s0.1-0.4,0.2-0.5c0.1-0.1,0.3-0.2,0.6-0.2c0.3,0,0.4,0.1,0.6,0.2
				c0.1,0.1,0.2,0.3,0.2,0.5s-0.1,0.4-0.2,0.5c-0.1,0.1-0.3,0.2-0.6,0.2C145.1,63.5,145,63.5,144.8,63.3z M144.8,64.8h1.2v6.3h-1.2
				V64.8z"/>
		</g>
		<g>
			<path d="M174.5,63.7v2.9h4.2v1h-4.2V71h-1.2v-8.4h5.9v1h-4.7V63.7z"/>
			<path d="M184.8,65.3c0.5,0.4,0.7,1.1,0.7,1.9V71h-1.1v-0.8c-0.2,0.3-0.5,0.5-0.8,0.7c-0.4,0.2-0.8,0.2-1.3,0.2
				c-0.7,0-1.3-0.2-1.7-0.5s-0.6-0.8-0.6-1.4s0.2-1,0.6-1.3c0.4-0.3,1.1-0.5,1.9-0.5h1.8v-0.2c0-0.5-0.1-0.9-0.4-1.1
				c-0.3-0.3-0.7-0.4-1.3-0.4c-0.4,0-0.7,0.1-1.1,0.2c-0.4,0.1-0.7,0.3-0.9,0.5l-0.5-0.9c0.3-0.3,0.7-0.5,1.2-0.6s0.9-0.2,1.5-0.2
				C183.7,64.6,184.4,64.8,184.8,65.3z M183.7,69.9c0.3-0.2,0.6-0.5,0.7-0.8v-0.9h-1.8c-1,0-1.5,0.3-1.5,1c0,0.3,0.1,0.6,0.4,0.8
				c0.2,0.2,0.6,0.3,1,0.3C182.9,70.3,183.4,70.1,183.7,69.9z"/>
		</g>
		<g>
			<path d="M220.1,70.8c-0.6-0.2-1-0.4-1.4-0.8l0.4-0.9c0.3,0.3,0.7,0.5,1.2,0.7s1,0.3,1.5,0.3c0.7,0,1.2-0.1,1.6-0.4
				c0.3-0.2,0.5-0.6,0.5-0.9s-0.1-0.5-0.3-0.7s-0.4-0.3-0.7-0.4s-0.7-0.2-1.2-0.3c-0.6-0.2-1.1-0.3-1.5-0.5s-0.7-0.4-1-0.7
				c-0.3-0.3-0.4-0.7-0.4-1.3c0-0.4,0.1-0.9,0.4-1.2c0.2-0.4,0.6-0.6,1.1-0.9s1.1-0.3,1.8-0.3c0.5,0,1,0.1,1.5,0.2s0.9,0.3,1.2,0.6
				l-0.4,1c-0.4-0.2-0.7-0.4-1.1-0.5s-0.8-0.2-1.2-0.2c-0.7,0-1.2,0.1-1.5,0.4c-0.3,0.2-0.5,0.6-0.5,1c0,0.3,0.1,0.5,0.3,0.7
				s0.4,0.3,0.7,0.4s0.7,0.2,1.2,0.3c0.6,0.2,1.1,0.3,1.5,0.5s0.7,0.4,1,0.7c0.3,0.3,0.4,0.7,0.4,1.3c0,0.4-0.1,0.8-0.4,1.2
				c-0.2,0.4-0.6,0.7-1.1,0.9c-0.5,0.2-1.1,0.3-1.8,0.3C221.3,71.1,220.7,71,220.1,70.8z"/>
			<path d="M227.8,70.7c-0.5-0.3-0.9-0.7-1.2-1.2s-0.4-1-0.4-1.7s0.1-1.2,0.4-1.7c0.3-0.5,0.7-0.9,1.2-1.2c0.5-0.3,1.1-0.4,1.7-0.4
				s1.2,0.1,1.7,0.4s0.9,0.7,1.2,1.2s0.4,1,0.4,1.7s-0.1,1.2-0.4,1.7c-0.3,0.5-0.7,0.9-1.2,1.2c-0.5,0.3-1.1,0.4-1.7,0.4
				S228.3,71,227.8,70.7z M230.6,69.8c0.3-0.2,0.6-0.5,0.8-0.8s0.3-0.7,0.3-1.2s-0.1-0.8-0.3-1.2s-0.4-0.6-0.8-0.8
				c-0.3-0.2-0.7-0.3-1.1-0.3c-0.4,0-0.8,0.1-1.1,0.3c-0.3,0.2-0.6,0.4-0.8,0.8c-0.2,0.3-0.3,0.7-0.3,1.2s0.1,0.8,0.3,1.2
				c0.2,0.3,0.4,0.6,0.8,0.8c0.3,0.2,0.7,0.3,1.1,0.3S230.3,70,230.6,69.8z"/>
			<path d="M234.4,62.1h1.2V71h-1.2V62.1z"/>
		</g>
		<g>
			<path d="M260.6,62.6h1.2V70h4.5v1h-5.7V62.6z"/>
			<path d="M272,65.3c0.5,0.4,0.7,1.1,0.7,1.9V71h-1.1v-0.8c-0.2,0.3-0.5,0.5-0.8,0.7c-0.4,0.2-0.8,0.2-1.3,0.2
				c-0.7,0-1.3-0.2-1.7-0.5s-0.6-0.8-0.6-1.4s0.2-1,0.6-1.3s1.1-0.5,1.9-0.5h1.8v-0.2c0-0.5-0.1-0.9-0.4-1.1
				c-0.3-0.3-0.7-0.4-1.3-0.4c-0.4,0-0.7,0.1-1.1,0.2c-0.4,0.1-0.7,0.3-0.9,0.5l-0.5-0.9c0.3-0.3,0.7-0.5,1.2-0.6s0.9-0.2,1.5-0.2
				C270.8,64.6,271.5,64.8,272,65.3z M270.8,69.9c0.3-0.2,0.6-0.5,0.7-0.8v-0.9h-1.8c-1,0-1.5,0.3-1.5,1c0,0.3,0.1,0.6,0.4,0.8
				c0.2,0.2,0.6,0.3,1,0.3C270.1,70.2,270.5,70.1,270.8,69.9z"/>
		</g>
		<g>
			<path d="M302.9,70.8c-0.6-0.2-1-0.4-1.4-0.8l0.4-0.9c0.3,0.3,0.7,0.5,1.2,0.7s1,0.3,1.5,0.3c0.7,0,1.2-0.1,1.6-0.4
				s0.5-0.6,0.5-0.9s-0.1-0.5-0.3-0.7c-0.2-0.2-0.4-0.3-0.7-0.4c-0.3-0.1-0.7-0.2-1.2-0.3c-0.6-0.2-1.1-0.3-1.5-0.5s-0.7-0.4-1-0.7
				c-0.3-0.3-0.4-0.7-0.4-1.3c0-0.4,0.1-0.9,0.4-1.2c0.2-0.4,0.6-0.6,1.1-0.9c0.5-0.2,1.1-0.3,1.8-0.3c0.5,0,1,0.1,1.5,0.2
				c0.5,0.1,0.9,0.3,1.2,0.6l-0.4,1c-0.4-0.2-0.7-0.4-1.1-0.5s-0.8-0.2-1.2-0.2c-0.7,0-1.2,0.1-1.5,0.4c-0.3,0.3-0.5,0.6-0.5,1
				c0,0.3,0.1,0.5,0.3,0.7c0.2,0.2,0.4,0.3,0.7,0.4c0.3,0.1,0.7,0.2,1.2,0.3c0.6,0.2,1.1,0.3,1.5,0.5s0.7,0.4,1,0.7
				c0.3,0.3,0.4,0.7,0.4,1.3c0,0.4-0.1,0.8-0.4,1.2c-0.2,0.4-0.6,0.7-1.1,0.9c-0.5,0.2-1.1,0.3-1.8,0.3
				C304.1,71.1,303.5,71,302.9,70.8z"/>
			<path d="M309.6,63.2c-0.1-0.1-0.2-0.3-0.2-0.5s0.1-0.4,0.2-0.5s0.3-0.2,0.6-0.2c0.2,0,0.4,0.1,0.6,0.2c0.1,0.1,0.2,0.3,0.2,0.5
				s-0.1,0.4-0.2,0.5s-0.3,0.2-0.6,0.2S309.7,63.4,309.6,63.2z M309.5,64.7h1.2V71h-1.2V64.7z"/>
		</g>
		<g>
			<path d="M337.8,62.3h3.5c0.9,0,1.7,0.2,2.4,0.5c0.7,0.4,1.2,0.8,1.6,1.5c0.4,0.6,0.6,1.4,0.6,2.2c0,0.8-0.2,1.6-0.6,2.2
				s-0.9,1.1-1.6,1.5s-1.5,0.5-2.4,0.5h-3.5V62.3z M341.3,69.7c0.7,0,1.3-0.1,1.8-0.4s0.9-0.6,1.2-1.1s0.4-1,0.4-1.7
				s-0.1-1.2-0.4-1.6c-0.3-0.5-0.7-0.8-1.2-1.1c-0.5-0.3-1.1-0.4-1.8-0.4H339v6.3H341.3z"/>
			<path d="M348.6,70.3c-0.5-0.3-0.9-0.7-1.2-1.2c-0.3-0.5-0.4-1.1-0.4-1.7s0.1-1.2,0.4-1.7s0.7-0.9,1.2-1.2
				c0.5-0.3,1.1-0.4,1.7-0.4s1.2,0.1,1.7,0.4s0.9,0.7,1.2,1.2s0.4,1,0.4,1.7s-0.1,1.2-0.4,1.7s-0.7,0.9-1.2,1.2
				c-0.5,0.3-1.1,0.4-1.7,0.4S349.1,70.7,348.6,70.3z M351.4,69.5c0.3-0.2,0.6-0.5,0.8-0.8c0.2-0.3,0.3-0.7,0.3-1.2
				c0-0.4-0.1-0.8-0.3-1.2c-0.2-0.3-0.4-0.6-0.8-0.8c-0.3-0.2-0.7-0.3-1.1-0.3s-0.8,0.1-1.1,0.3c-0.3,0.2-0.6,0.4-0.8,0.8
				c-0.2,0.3-0.3,0.7-0.3,1.2c0,0.4,0.1,0.8,0.3,1.2c0.2,0.3,0.4,0.6,0.8,0.8c0.4,0.2,0.7,0.3,1.1,0.3
				C350.7,69.8,351.1,69.7,351.4,69.5z"/>
		</g>
	</g>
</g>
<g id="Pentagramma">
	<line class="st0" x1="19.2" y1="31" x2="387.6" y2="31"/>
	<line class="st0" x1="19.2" y1="35.9" x2="387.6" y2="35.9"/>
	<line class="st0" x1="19.2" y1="40.9" x2="387.6" y2="40.9"/>
	<line class="st0" x1="19.2" y1="45.9" x2="387.6" y2="45.9"/>
	<line class="st0" x1="19.2" y1="50.8" x2="387.6" y2="50.8"/>
	<path d="M29.2,37.6l0.5,2.9c0.1,0.4,0.1,0.4,0.6,0.4c2.9,0,4.8,2.2,4.8,4.8c0,2.2-1.3,3.9-3.3,4.7c-0.3,0.1-0.3,0.1-0.3,0.3
		c0.2,1.2,0.6,3.1,0.6,4.2c0,3.4-2.6,4-3.9,4c-3,0-3.8-1.9-3.8-3.2c0-1.2,0.8-2.3,2.1-2.3c1.2,0,1.9,0.9,1.9,2
		c0,1.2-0.7,1.7-1.3,1.9c-0.5,0.1-0.6,0.2-0.6,0.3c0,0.3,0.5,0.6,1.6,0.6c1.2,0,3.2-0.4,3.2-3.3c0-0.9-0.3-2.7-0.5-4
		c0-0.2-0.1-0.2-0.3-0.2c-0.4,0.1-0.9,0.1-1.4,0.1c-4.9,0-7.2-3.3-7.2-6.7c0-2.1,0.9-4,2.2-5.7c1-1.3,2.4-2.5,3.7-3.5
		c0.2-0.2,0.2-0.2,0.2-0.5c-0.1-0.8-0.3-2.1-0.3-3.3c0-2.1,0.5-4.5,1.9-6.2c0.4-0.4,1-1,1.3-1c0.2,0,0.7,0.6,1,1
		c0.8,1.2,1.3,2.9,1.3,4.6c0,2.2-1,4.6-2.7,6.4c-0.4,0.4-0.8,0.8-1.1,1.1C29.2,37.4,29.1,37.4,29.2,37.6z M28.9,40.7l-0.4-2.5
		c0-0.2-0.1-0.2-0.3-0.1c-0.9,0.8-1.8,1.5-3,2.8c-1.6,1.9-1.8,3.4-1.8,4.6c0,2.8,2.2,4.7,5.7,4.7c0.4,0,0.8,0,1.1-0.1
		c0.3-0.1,0.3-0.1,0.3-0.3l-1-5.9c0-0.2-0.1-0.2-0.4-0.2c-1.2,0.3-2,1.2-2,2.3c0,0.9,0.6,1.8,1.4,2.1c0.1,0.1,0.3,0.1,0.3,0.3
		c0,0.1-0.1,0.2-0.2,0.2c-0.1,0-0.4-0.1-0.5-0.1c-1.3-0.5-2.3-1.7-2.3-3.5c0-1.7,1.1-3.3,2.9-3.8C28.9,41,28.9,41,28.9,40.7z
		 M30.2,43.8l1,5.7c0,0.2,0.1,0.2,0.3,0.1c1.1-0.6,1.9-1.6,1.9-2.8c0-1.7-1.3-3.1-2.9-3.2C30.2,43.5,30.2,43.6,30.2,43.8z M31,27.2
		c-1.2,0-2.6,1.9-2.6,5c0,0.6,0,1.3,0.1,1.8c0,0.3,0.1,0.3,0.3,0.2c0.5-0.4,0.9-0.9,1.3-1.2c1.5-1.5,2.2-2.8,2.2-4.2
		C32.2,27.7,31.7,27.2,31,27.2z"/>
	<path d="M46.8,35.9c0.4,0,3.4,0.2,3.4,2.8c0,1.6-1.5,1.7-1.5,1.7c-0.6,0-1.5-0.4-1.5-1.5c0-0.6,0.5-1.5,1.3-1.5
		c0.3,0,0.4-0.3,0.4-0.4c0-0.2-0.4-0.7-1.4-0.7c-1.1,0-2.6,0.7-2.6,3.9c0,3.3,0.9,4.8,2.5,4.8c0.6,0,2.8-0.6,2.8-3.2
		c0-0.3,0.1-0.4,0.3-0.4c0.1,0,0.3,0,0.3,0.4c0,0.6-0.5,3.7-4,3.7c-1.2,0-2.3-0.4-3-1.3c-0.7-0.8-1.2-1.8-1.3-2.9c0-0.2,0-0.4,0-0.5
		c0-1.9,0.9-4,2.7-4.8C45.5,36.1,46.2,35.9,46.8,35.9z"/>
	<line class="st1" x1="55.4" y1="55.8" x2="66.2" y2="55.8"/>
	<line class="st2" x1="63.5" y1="55" x2="63.5" y2="38.4"/>
	<path d="M59.8,58.3c-1.1,0-1.9-0.6-1.9-1.6c0-1.7,1.7-3.3,3.9-3.3c1.1,0,1.9,0.6,1.9,1.6C63.8,56.6,61.6,58.3,59.8,58.3z"/>
	<line class="st2" x1="103" y1="52.5" x2="103" y2="35.9"/>
	<path d="M99.4,55.8c-1.1,0-1.9-0.6-1.9-1.6c0-1.7,1.7-3.3,3.9-3.3c1.1,0,1.9,0.6,1.9,1.6C103.3,54.2,101.1,55.8,99.4,55.8z"/>
	<line class="st2" x1="142.5" y1="50" x2="142.5" y2="33.5"/>
	<path d="M138.9,53.3c-1.1,0-1.9-0.6-1.9-1.6c0-1.7,1.7-3.3,3.9-3.3c1.1,0,1.9,0.6,1.9,1.6C142.8,51.7,140.6,53.3,138.9,53.3z"/>
	<line class="st2" x1="182" y1="47.5" x2="182" y2="31"/>
	<path d="M178.4,50.8c-1.1,0-1.9-0.6-1.9-1.6c0-1.7,1.7-3.3,3.9-3.3c1.1,0,1.9,0.6,1.9,1.6C182.3,49.2,180.2,50.8,178.4,50.8z"/>
	<line class="st1" x1="216.4" y1="31" x2="216.4" y2="50.8"/>
	<line class="st2" x1="229.8" y1="45" x2="229.8" y2="28.5"/>
	<path d="M226.2,48.3c-1.1,0-1.9-0.6-1.9-1.6c0-1.7,1.7-3.3,3.9-3.3c1.1,0,1.9,0.6,1.9,1.6C230.1,46.7,227.9,48.3,226.2,48.3z"/>
	<line class="st2" x1="269.3" y1="42.6" x2="269.3" y2="26"/>
	<path d="M265.7,45.9c-1.1,0-1.9-0.6-1.9-1.6c0-1.7,1.7-3.3,3.9-3.3c1.1,0,1.9,0.6,1.9,1.6C269.6,44.2,267.4,45.9,265.7,45.9z"/>
	<line class="st2" x1="303.6" y1="41.7" x2="303.6" y2="58.3"/>
	<path d="M305.2,43.4c-1.1,0-1.9-0.6-1.9-1.6c0-1.7,1.7-3.3,3.9-3.3c1.1,0,1.9,0.6,1.9,1.6C309.1,41.8,307,43.4,305.2,43.4z"/>
	<line class="st2" x1="343.1" y1="39.3" x2="343.1" y2="55.8"/>
	<path d="M344.7,40.9c-1.1,0-1.9-0.6-1.9-1.6c0-1.7,1.7-3.3,3.9-3.3c1.1,0,1.9,0.6,1.9,1.6C348.7,39.3,346.5,40.9,344.7,40.9z"/>
	<line class="st1" x1="382.7" y1="31" x2="382.7" y2="50.8"/>
	<line class="st3" x1="386.3" y1="31" x2="386.3" y2="50.8"/>
	<line class="st1" x1="19.2" y1="31" x2="19.2" y2="50.8"/>
</g>
</svg>
